<?xml version="1.0" encoding="UTF-8" standalone="no"?>
<!-- Created with Inkscape (http://www.inkscape.org/) -->
<svg id="svg2" xmlns:rdf="http://www.w3.org/1999/02/22-rdf-syntax-ns#" xmlns="http://www.w3.org/2000/svg" height="468.92" width="449.62" version="1.1" xmlns:cc="http://creativecommons.org/ns#" xmlns:dc="http://purl.org/dc/elements/1.1/">
<metadata id="metadata7">
<rdf:RDF>
<cc:Work rdf:about="">
<dc:format>image/svg+xml</dc:format>
<dc:type rdf:resource="http://purl.org/dc/dcmitype/StillImage"/>
<dc:title/>
</cc:Work>
</rdf:RDF>
</metadata>
<g id="layer2">
<path id="rect2985-6-7-4-8-5" d="m197.69-82.731h180.22c11.08 0 20 8.92 20 20v426.08c0 11.08-8.92 20-20 20h-180.22c-11.08 0-20-8.92-20-20v-426.08c0-11.08 8.92-20 20-20z" transform="translate(50.709 84.571)" stroke="#000" stroke-linecap="round" stroke-width="2" fill="#3c6eb4"/>
<path id="rect2985-6-7-4-8" d="m198.01 19.827h137.1c11.08 0 20 8.92 20 20v323.05c0 11.08-8.92 20-20 20h-137.1c-11.08 0-20-8.92-20-20v-323.05c0-11.08 8.92-20 20-20z" transform="translate(50.709 84.571)" stroke="#000" stroke-linecap="round" stroke-width="2" fill="#79db32"/>
<path id="rect2985-6-7-4" d="m198.28 175.22h93.79c11.08 0 20 8.92 20 20v167.48c0 11.08-8.92 20-20 20h-93.79c-11.08 0-20-8.92-20-20v-167.48c0-11.08 8.92-20 20-20z" transform="translate(50.709 84.571)" stroke="#000" stroke-linecap="round" stroke-width="2" fill="#db3279"/>
<g id="text3989" transform="matrix(0 1 -1 0 50.709 84.571)">
<path id="path3195" d="m224.99-273.5v-4.1484h3.2344v-23.695h-3.2344v-4.1484h13.148v4.1484h-3.2578v23.695h3.2578v4.1484h-13.148"/>
<path id="path3197" d="m252.97-294.05c0.98436 0.00002 1.8672 0.0703 2.6484 0.21094 0.78123 0.12502 1.5468 0.35158 2.2969 0.67968v-0.89062h9.75v4.1016h-3.2109v12.375h3.2109v4.0781h-9.75v-0.89063c-0.71877 0.3125-1.4922 0.53906-2.3203 0.67969-0.81252 0.14062-1.6875 0.21094-2.625 0.21094-1.7344 0-3.2734-0.25-4.6172-0.75-1.3281-0.5-2.5-1.25-3.5156-2.25-1.125-1.1406-1.9688-2.3047-2.5312-3.4922-0.56251-1.2031-0.84375-2.4609-0.84375-3.7734 0-2.5937 1.125-5.0156 3.375-7.2656 2.0156-2.0156 4.7266-3.0234 8.1328-3.0234m3.5391 5.9062c-1.25-1.2031-2.4297-1.8047-3.5391-1.8047-1.1406 0.00002-2.3125 0.60158-3.5156 1.8047-0.96875 0.96876-1.4531 2.4297-1.4531 4.3828-0.00001 1.9375 0.48437 3.3906 1.4531 4.3594 1.1875 1.2188 2.3594 1.8281 3.5156 1.8281 1.125 0 2.2969-0.60937 3.5156-1.8281 0.95311-0.98437 1.4297-2.4375 1.4297-4.3594-0.00002-1.9219-0.48439-3.3828-1.4531-4.3828h0.0469"/>
<path id="path3199" d="m282.69-294.05c0.98436 0.00002 1.8672 0.0703 2.6484 0.21094 0.78123 0.12502 1.5468 0.35158 2.2969 0.67968v-0.89062h9.75v4.1016h-3.2109v12.375h3.2109v4.0781h-9.75v-0.89063c-0.71877 0.3125-1.4922 0.53906-2.3203 0.67969-0.81252 0.14062-1.6875 0.21094-2.625 0.21094-1.7344 0-3.2734-0.25-4.6172-0.75-1.3281-0.5-2.5-1.25-3.5156-2.25-1.125-1.1406-1.9688-2.3047-2.5312-3.4922-0.56251-1.2031-0.84375-2.4609-0.84375-3.7734 0-2.5937 1.125-5.0156 3.375-7.2656 2.0156-2.0156 4.7266-3.0234 8.1328-3.0234m3.5391 5.9062c-1.25-1.2031-2.4297-1.8047-3.5391-1.8047-1.1406 0.00002-2.3125 0.60158-3.5156 1.8047-0.96875 0.96876-1.4531 2.4297-1.4531 4.3828-0.00001 1.9375 0.48437 3.3906 1.4531 4.3594 1.1875 1.2188 2.3594 1.8281 3.5156 1.8281 1.125 0 2.2969-0.60937 3.5156-1.8281 0.95311-0.98437 1.4297-2.4375 1.4297-4.3594-0.00002-1.9219-0.48439-3.3828-1.4531-4.3828h0.0469"/>
<path id="path3201" d="m324.48-305.47v9h-6.5625c-0.00002-1.8125-0.4297-2.9844-1.2891-3.5156-1.2969-0.8281-2.2969-1.2812-3-1.3594-1.5938-0.0625-3.0078 0.34377-4.2422 1.2188-0.84376 0.6094-1.3906 1.5938-1.6406 2.9531v-0.0234c-0.0156 0.0781-0.0313 0.17971-0.0469 0.30469-0.00001 0.1094-0.00001 0.24221 0 0.39844-0.00001 1.0938 0.21874 1.836 0.65625 2.2266 0.82812 0.7344 1.4453 1.125 1.8516 1.1719 1.0469 0.14064 2.1484 0.25783 3.3047 0.35156 0.71874 0.0625 1.4219 0.14845 2.1094 0.25781 0.7031 0.0938 1.4062 0.21096 2.1094 0.35156h-0.0234c2.0469 0.4219 3.6406 1.1641 4.7812 2.2266 2.0625 2.0313 3.0703 4.1875 3.0234 6.4688-0.0469 2.1406-1.0938 4.3438-3.1406 6.6094-1.8125 2-4.711 3.1016-8.6953 3.3047-1.9531 0.0625-3.6797-0.14063-5.1797-0.60938-0.39064-0.125-0.56251-0.14843-0.51563-0.0703-0.0313-0.0312-0.0625-0.0625-0.0937-0.0937-0.0313-0.0312-0.0703-0.0625-0.11719-0.0937v0.89063h-6.6562v-9.0234h6.6094c0.21874 1.3281 0.58593 2.3516 1.1016 3.0703 0.53124 0.71876 1.125 1.1875 1.7812 1.4062 0.46874 0.14063 0.92186 0.25 1.3594 0.32813 0.45311 0.0625 0.90623 0.0781 1.3594 0.0469 1.5312-0.0781 2.8906-0.71093 4.0781-1.8984 0.4531-0.45312 0.79685-0.99218 1.0312-1.6172 0.24998-0.64062 0.40623-1.3672 0.46875-2.1797 0.0156-0.40624-0.00002-0.77343-0.0469-1.1016-0.0469-0.32812-0.10939-0.60937-0.1875-0.84375l0.0234 0.0234c-0.40627-0.95311-0.70314-1.5234-0.89063-1.7109h0.0234c-0.95314-0.82812-1.7031-1.2812-2.25-1.3594-1.2031-0.20311-2.2813-0.34373-3.2344-0.42187-0.73439-0.0312-1.4453-0.0937-2.1328-0.1875-0.68751-0.0937-1.375-0.20311-2.0625-0.32813-2.0781-0.45311-3.6016-1.1719-4.5703-2.1562-1.6562-1.625-2.4844-3.3203-2.4844-5.0859-0.00001-0.15622-0.00001-0.29685 0-0.42187 0.0156-0.1406 0.0312-0.28123 0.0469-0.42188 0.0937-0.93747 0.45312-1.8828 1.0781-2.8359 0.64062-0.96873 1.539-1.9453 2.6953-2.9297 1.8281-1.5625 4.5234-2.3437 8.0859-2.3438 0.12498 0.00003 0.28123 0.00003 0.46875 0 0.20311 0.00003 0.37498 0.008 0.51562 0.0234 0.73436 0.0313 1.414 0.10159 2.0391 0.21093 0.64061 0.0938 1.25 0.2266 1.8281 0.39844v-0.60937h6.6328"/>
</g>
<g id="text3989-4" transform="matrix(0 1 -1 0 50.709 84.571)">
<path id="path3204" d="m157.63-317.35h-13.148v-4.1484h3.2344v-23.695h-3.2344v-4.1484h16.336c2.9062 0.00003 5.1797 0.82034 6.8203 2.4609 1.8906 1.8907 2.8359 3.8672 2.8359 5.9297-0.00002 2.0469-0.94533 4.0235-2.8359 5.9297-1.6406 1.6406-3.9141 2.461-6.8203 2.4609h-6.4453v11.062h3.2578v4.1484m-3.2578-27.844v8.4609h6.4453c0.59374 0.00002 1.2969-0.40623 2.1094-1.2188 0.28123-0.29685 0.49217-0.68748 0.63281-1.1719 0.15623-0.48436 0.23436-1.0937 0.23438-1.8281-0.00002-1.4062-0.28909-2.414-0.86719-3.0234-0.81252-0.81247-1.5156-1.2187-2.1094-1.2188h-6.4453"/>
<path id="path3206" d="m184.21-337.91c0.98436 0.00002 1.8672 0.0703 2.6484 0.21093 0.78123 0.12502 1.5469 0.35159 2.2969 0.67969v-0.89062h9.75v4.1016h-3.2109v12.375h3.2109v4.0781h-9.75v-0.89062c-0.71876 0.3125-1.4922 0.53906-2.3203 0.67969-0.81251 0.14062-1.6875 0.21093-2.625 0.21093-1.7344 0-3.2734-0.25-4.6172-0.75-1.3281-0.49999-2.5-1.25-3.5156-2.25-1.125-1.1406-1.9688-2.3047-2.5312-3.4922-0.5625-1.2031-0.84375-2.4609-0.84375-3.7734 0-2.5937 1.125-5.0156 3.375-7.2656 2.0156-2.0156 4.7266-3.0234 8.1328-3.0234m3.5391 5.9062c-1.25-1.2031-2.4297-1.8047-3.5391-1.8047-1.1406 0.00002-2.3125 0.60158-3.5156 1.8047-0.96875 0.96876-1.4531 2.4297-1.4531 4.3828-0.00001 1.9375 0.48437 3.3906 1.4531 4.3594 1.1875 1.2188 2.3594 1.8281 3.5156 1.8281 1.125 0 2.2969-0.60937 3.5156-1.8281 0.95311-0.98436 1.4297-2.4375 1.4297-4.3594-0.00002-1.9219-0.48439-3.3828-1.4531-4.3828h0.0469"/>
<path id="path3208" d="m213.92-337.91c0.98436 0.00002 1.8672 0.0703 2.6484 0.21093 0.78123 0.12502 1.5469 0.35159 2.2969 0.67969v-0.89062h9.75v4.1016h-3.2109v12.375h3.2109v4.0781h-9.75v-0.89062c-0.71876 0.3125-1.4922 0.53906-2.3203 0.67969-0.81251 0.14062-1.6875 0.21093-2.625 0.21093-1.7344 0-3.2734-0.25-4.6172-0.75-1.3281-0.49999-2.5-1.25-3.5156-2.25-1.125-1.1406-1.9688-2.3047-2.5312-3.4922-0.5625-1.2031-0.84375-2.4609-0.84375-3.7734 0-2.5937 1.125-5.0156 3.375-7.2656 2.0156-2.0156 4.7266-3.0234 8.1328-3.0234m3.5391 5.9062c-1.25-1.2031-2.4297-1.8047-3.5391-1.8047-1.1406 0.00002-2.3125 0.60158-3.5156 1.8047-0.96875 0.96876-1.4531 2.4297-1.4531 4.3828-0.00001 1.9375 0.48437 3.3906 1.4531 4.3594 1.1875 1.2188 2.3594 1.8281 3.5156 1.8281 1.125 0 2.2969-0.60937 3.5156-1.8281 0.95311-0.98436 1.4297-2.4375 1.4297-4.3594-0.00002-1.9219-0.48439-3.3828-1.4531-4.3828h0.0469"/>
<path id="path3210" d="m255.71-349.32v9h-6.5625c-0.00002-1.8125-0.4297-2.9843-1.2891-3.5156-1.2969-0.8281-2.2969-1.2812-3-1.3594-1.5938-0.0625-3.0078 0.34378-4.2422 1.2188-0.84376 0.60941-1.3906 1.5938-1.6406 2.9531v-0.0234c-0.0156 0.0781-0.0313 0.17971-0.0469 0.30469-0.00001 0.1094-0.00001 0.24221 0 0.39844-0.00001 1.0938 0.21874 1.836 0.65625 2.2266 0.82812 0.73439 1.4453 1.125 1.8516 1.1719 1.0469 0.14065 2.1484 0.25784 3.3047 0.35157 0.71874 0.0625 1.4219 0.14845 2.1094 0.25781 0.70311 0.0938 1.4062 0.21096 2.1094 0.35156h-0.0234c2.0469 0.4219 3.6406 1.1641 4.7812 2.2266 2.0625 2.0313 3.0703 4.1875 3.0234 6.4688-0.0469 2.1406-1.0938 4.3438-3.1406 6.6094-1.8125 2-4.711 3.1016-8.6953 3.3047-1.9531 0.0625-3.6797-0.14063-5.1797-0.60938-0.39064-0.125-0.56251-0.14843-0.51563-0.0703-0.0313-0.0312-0.0625-0.0625-0.0937-0.0937-0.0313-0.0312-0.0703-0.0625-0.11719-0.0937v0.89062h-6.6562v-9.0234h6.6094c0.21874 1.3281 0.58593 2.3516 1.1016 3.0703 0.53124 0.71875 1.125 1.1875 1.7812 1.4062 0.46874 0.14063 0.92187 0.25 1.3594 0.32812 0.45311 0.0625 0.90623 0.0781 1.3594 0.0469 1.5312-0.0781 2.8906-0.71093 4.0781-1.8984 0.4531-0.45312 0.79685-0.99218 1.0312-1.6172 0.24998-0.64061 0.40623-1.3672 0.46875-2.1797 0.0156-0.40624-0.00002-0.77343-0.0469-1.1016-0.0469-0.32811-0.10939-0.60936-0.1875-0.84375l0.0234 0.0234c-0.40627-0.95311-0.70314-1.5234-0.89063-1.7109h0.0234c-0.95314-0.82811-1.7031-1.2812-2.25-1.3594-1.2031-0.20311-2.2813-0.34374-3.2344-0.42188-0.73439-0.0312-1.4453-0.0937-2.1328-0.1875-0.68751-0.0937-1.375-0.2031-2.0625-0.32812-2.0781-0.45311-3.6016-1.1719-4.5703-2.1562-1.6562-1.625-2.4844-3.3203-2.4844-5.0859v-0.42187c0.0156-0.1406 0.0312-0.28123 0.0469-0.42188 0.0937-0.93747 0.45313-1.8828 1.0781-2.8359 0.64062-0.96872 1.5391-1.9453 2.6953-2.9297 1.8281-1.5625 4.5234-2.3437 8.0859-2.3438 0.12498 0.00003 0.28123 0.00003 0.46875 0 0.20311 0.00003 0.37498 0.008 0.51562 0.0234 0.73436 0.0313 1.414 0.1016 2.0391 0.21094 0.64061 0.0938 1.25 0.2266 1.8281 0.39844v-0.60938h6.6328"/>
</g>
<g id="text3989-3" transform="matrix(0 1 -1 0 50.709 84.571)">
<path id="path3213" d="m117.06-392.33v9h-6.5625c-0.00002-1.8125-0.42971-2.9844-1.2891-3.5156-1.2969-0.8281-2.2969-1.2812-3-1.3594-1.5938-0.0625-3.0078 0.34377-4.2422 1.2188-0.84376 0.6094-1.3906 1.5938-1.6406 2.9531v-0.0234c-0.0156 0.0781-0.0313 0.17971-0.0469 0.30469-0.00001 0.1094-0.00001 0.24221 0 0.39844-0.00001 1.0938 0.21874 1.836 0.65625 2.2266 0.82811 0.7344 1.4453 1.125 1.8516 1.1719 1.0469 0.14064 2.1484 0.25783 3.3047 0.35156 0.71873 0.0625 1.4219 0.14846 2.1094 0.25781 0.70311 0.0938 1.4062 0.21096 2.1094 0.35156h-0.0234c2.0468 0.4219 3.6406 1.1641 4.7812 2.2266 2.0625 2.0313 3.0703 4.1875 3.0234 6.4688-0.0469 2.1406-1.0938 4.3438-3.1406 6.6094-1.8125 2-4.711 3.1016-8.6953 3.3047-1.9531 0.0625-3.6797-0.14063-5.1797-0.60938-0.39063-0.125-0.56251-0.14843-0.51562-0.0703-0.0313-0.0312-0.0625-0.0625-0.0937-0.0937-0.0313-0.0312-0.0703-0.0625-0.11719-0.0937v0.89063h-6.6562v-9.0234h6.6094c0.21875 1.3281 0.58593 2.3516 1.1016 3.0703 0.53124 0.71876 1.125 1.1875 1.7812 1.4062 0.46874 0.14063 0.92186 0.25001 1.3594 0.32813 0.45311 0.0625 0.90624 0.0781 1.3594 0.0469 1.5312-0.0781 2.8906-0.71093 4.0781-1.8984 0.45311-0.45311 0.79686-0.99218 1.0312-1.6172 0.24998-0.64062 0.40623-1.3672 0.46875-2.1797 0.0156-0.40624-0.00002-0.77343-0.0469-1.1016-0.0469-0.32812-0.1094-0.60937-0.1875-0.84375l0.0234 0.0234c-0.40626-0.95311-0.70314-1.5234-0.89062-1.7109h0.0234c-0.95315-0.82811-1.7031-1.2812-2.25-1.3594-1.2031-0.20311-2.2813-0.34373-3.2344-0.42187-0.73439-0.0312-1.4453-0.0937-2.1328-0.1875-0.68751-0.0937-1.375-0.20311-2.0625-0.32813-2.0781-0.45311-3.6016-1.1719-4.5703-2.1562-1.6563-1.625-2.4844-3.3203-2.4844-5.0859-0.000002-0.15622-0.000002-0.29685 0-0.42187 0.01562-0.1406 0.03125-0.28123 0.04687-0.42188 0.09375-0.93747 0.45312-1.8828 1.0781-2.8359 0.64062-0.96873 1.5391-1.9453 2.6953-2.9297 1.8281-1.5625 4.5234-2.3437 8.0859-2.3438 0.12499 0.00003 0.28124 0.00003 0.46875 0 0.20311 0.00003 0.37499 0.008 0.51563 0.0234 0.73436 0.0313 1.414 0.10159 2.0391 0.21093 0.64061 0.0938 1.25 0.2266 1.8281 0.39844v-0.60937h6.6328"/>
<path id="path3215" d="m132.93-380.92c0.98437 0.00002 1.8672 0.0703 2.6484 0.21094 0.78124 0.12502 1.5469 0.35158 2.2969 0.67968v-0.89062h9.75v4.1016h-3.2109v12.375h3.2109v4.0781h-9.75v-0.89063c-0.71877 0.3125-1.4922 0.53906-2.3203 0.67969-0.81251 0.14062-1.6875 0.21094-2.625 0.21094-1.7344 0-3.2734-0.25-4.6172-0.75-1.3281-0.5-2.5-1.25-3.5156-2.25-1.125-1.1406-1.9688-2.3047-2.5312-3.4922-0.5625-1.2031-0.84375-2.4609-0.84375-3.7734 0-2.5937 1.125-5.0156 3.375-7.2656 2.0156-2.0156 4.7266-3.0234 8.1328-3.0234m3.5391 5.9062c-1.25-1.2031-2.4297-1.8047-3.5391-1.8047-1.1406 0.00002-2.3125 0.60158-3.5156 1.8047-0.96876 0.96876-1.4531 2.4297-1.4531 4.3828 0 1.9375 0.48437 3.3906 1.4531 4.3594 1.1875 1.2188 2.3594 1.8281 3.5156 1.8281 1.125 0.00001 2.2969-0.60937 3.5156-1.8281 0.95311-0.98437 1.4297-2.4375 1.4297-4.3594-0.00002-1.9219-0.4844-3.3828-1.4531-4.3828h0.0469"/>
<path id="path3217" d="m162.65-380.92c0.98437 0.00002 1.8672 0.0703 2.6484 0.21094 0.78124 0.12502 1.5469 0.35158 2.2969 0.67968v-0.89062h9.75v4.1016h-3.2109v12.375h3.2109v4.0781h-9.75v-0.89063c-0.71877 0.3125-1.4922 0.53906-2.3203 0.67969-0.81251 0.14062-1.6875 0.21094-2.625 0.21094-1.7344 0-3.2734-0.25-4.6172-0.75-1.3281-0.5-2.5-1.25-3.5156-2.25-1.125-1.1406-1.9688-2.3047-2.5312-3.4922-0.5625-1.2031-0.84375-2.4609-0.84375-3.7734 0-2.5937 1.125-5.0156 3.375-7.2656 2.0156-2.0156 4.7266-3.0234 8.1328-3.0234m3.5391 5.9062c-1.25-1.2031-2.4297-1.8047-3.5391-1.8047-1.1406 0.00002-2.3125 0.60158-3.5156 1.8047-0.96876 0.96876-1.4531 2.4297-1.4531 4.3828 0 1.9375 0.48437 3.3906 1.4531 4.3594 1.1875 1.2188 2.3594 1.8281 3.5156 1.8281 1.125 0.00001 2.2969-0.60937 3.5156-1.8281 0.95311-0.98437 1.4297-2.4375 1.4297-4.3594-0.00002-1.9219-0.4844-3.3828-1.4531-4.3828h0.0469"/>
<path id="path3219" d="m204.44-392.33v9h-6.5625c-0.00002-1.8125-0.42971-2.9844-1.2891-3.5156-1.2969-0.8281-2.2969-1.2812-3-1.3594-1.5938-0.0625-3.0078 0.34377-4.2422 1.2188-0.84376 0.6094-1.3906 1.5938-1.6406 2.9531v-0.0234c-0.0156 0.0781-0.0313 0.17971-0.0469 0.30469-0.00001 0.1094-0.00001 0.24221 0 0.39844-0.00001 1.0938 0.21874 1.836 0.65625 2.2266 0.82811 0.7344 1.4453 1.125 1.8516 1.1719 1.0469 0.14064 2.1484 0.25783 3.3047 0.35156 0.71873 0.0625 1.4219 0.14846 2.1094 0.25781 0.70311 0.0938 1.4062 0.21096 2.1094 0.35156h-0.0234c2.0468 0.4219 3.6406 1.1641 4.7812 2.2266 2.0625 2.0313 3.0703 4.1875 3.0234 6.4688-0.0469 2.1406-1.0938 4.3438-3.1406 6.6094-1.8125 2-4.711 3.1016-8.6953 3.3047-1.9531 0.0625-3.6797-0.14063-5.1797-0.60938-0.39063-0.125-0.56251-0.14843-0.51562-0.0703-0.0313-0.0312-0.0625-0.0625-0.0937-0.0937-0.0313-0.0312-0.0703-0.0625-0.11719-0.0937v0.89063h-6.6562v-9.0234h6.6094c0.21875 1.3281 0.58593 2.3516 1.1016 3.0703 0.53124 0.71876 1.125 1.1875 1.7812 1.4062 0.46874 0.14063 0.92186 0.25001 1.3594 0.32813 0.45311 0.0625 0.90624 0.0781 1.3594 0.0469 1.5312-0.0781 2.8906-0.71093 4.0781-1.8984 0.45311-0.45311 0.79686-0.99218 1.0312-1.6172 0.24998-0.64062 0.40623-1.3672 0.46875-2.1797 0.0156-0.40624-0.00002-0.77343-0.0469-1.1016-0.0469-0.32812-0.1094-0.60937-0.1875-0.84375l0.0234 0.0234c-0.40626-0.95311-0.70314-1.5234-0.89062-1.7109h0.0234c-0.95315-0.82811-1.7031-1.2812-2.25-1.3594-1.2031-0.20311-2.2813-0.34373-3.2344-0.42187-0.73439-0.0312-1.4453-0.0937-2.1328-0.1875-0.68751-0.0937-1.375-0.20311-2.0625-0.32813-2.0781-0.45311-3.6016-1.1719-4.5703-2.1562-1.6563-1.625-2.4844-3.3203-2.4844-5.0859v-0.42187c0.0156-0.1406 0.0312-0.28123 0.0469-0.42188 0.0937-0.93747 0.45312-1.8828 1.0781-2.8359 0.64062-0.96873 1.5391-1.9453 2.6953-2.9297 1.8281-1.5625 4.5234-2.3437 8.0859-2.3438 0.12499 0.00003 0.28124 0.00003 0.46875 0 0.20311 0.00003 0.37499 0.008 0.51563 0.0234 0.73436 0.0313 1.414 0.10159 2.0391 0.21093 0.64061 0.0938 1.25 0.2266 1.8281 0.39844v-0.60937h6.6328"/>
</g>
</g>
<g id="layer1" transform="translate(50.709 84.571)">
<g id="g3199" transform="translate(-159.82 -243.61)">
<g id="g3194">
<path id="rect2985-6-7" d="m130.11 575.78h279.66c11.08 0 20 8.92 20 20v10.872c0 11.08-8.92 20-20 20h-279.66c-11.08 0-20-8.92-20-20v-10.872c0-11.08 8.92-20 20-20z" stroke="#000" stroke-linecap="round" stroke-width="2" fill="#dedede"/>
<g id="text3835">
<path id="path3033" style="" d="m191.89 596.52c0-0.42967 0.14974-0.79425 0.44922-1.0938 0.3125-0.31248 0.68359-0.46873 1.1133-0.46875 0.42968 0.00002 0.79427 0.15627 1.0938 0.46875 0.3125 0.2995 0.46875 0.66408 0.46875 1.0938v1.2695c1.9531-1.888 4.2969-2.832 7.0312-2.832 2.7995 0.00002 5.1888 0.99612 7.168 2.9883 1.9922 1.9792 2.9883 4.3685 2.9883 7.168v10.156c-0.00002 0.42969-0.15627 0.80078-0.46875 1.1133-0.2995 0.29948-0.66408 0.44922-1.0938 0.44922-0.42971 0-0.8008-0.14974-1.1133-0.44922-0.2995-0.3125-0.44924-0.68359-0.44922-1.1133v-10.156c-0.00002-1.9401-0.69012-3.5937-2.0703-4.9609-1.3672-1.3802-3.0208-2.0703-4.9609-2.0703-1.9401 0.00002-3.6003 0.69012-4.9805 2.0703-1.3672 1.3672-2.0508 3.0208-2.0508 4.9609v10.156c0 0.42969-0.15625 0.80078-0.46875 1.1133-0.29948 0.29948-0.66407 0.44922-1.0938 0.44922-0.42969 0-0.80078-0.14974-1.1133-0.44922-0.29948-0.3125-0.44922-0.68359-0.44922-1.1133v-18.75"/>
<path id="path3035" style="" d="m233.94 604.34c-0.28648-1.4974-1.0026-2.819-2.1484-3.9648-1.5234-1.5234-3.3659-2.2851-5.5273-2.2852-2.1615 0.00002-4.0039 0.76174-5.5273 2.2852-1.1458 1.1458-1.862 2.4675-2.1484 3.9648h15.352m-1.6602 7.1875c0.42966 0.00001 0.79425 0.15626 1.0938 0.46875 0.31248 0.29949 0.46873 0.66407 0.46875 1.0938-0.00002 0.42969-0.14976 0.80079-0.44922 1.1133-2.0182 1.7578-4.3946 2.6367-7.1289 2.6367-3.0208 0-5.599-1.0677-7.7344-3.2031s-3.2031-4.7135-3.2031-7.7344c0-3.0208 1.0677-5.5989 3.2031-7.7344 2.1354-2.1354 4.7135-3.2031 7.7344-3.2031 3.0208 0.00002 5.5989 1.0677 7.7344 3.2031 2.1354 2.1354 3.2031 4.7136 3.2031 7.7344-0.00002 0.4297-0.15627 0.80079-0.46875 1.1133-0.2995 0.29949-0.66408 0.44923-1.0938 0.44922h-17.051c0.28645 1.4974 1.0026 2.819 2.1484 3.9648 1.5234 1.5234 3.3659 2.2852 5.5273 2.2852 1.9531 0 3.6328-0.61848 5.0391-1.8555 0.28644-0.22135 0.61196-0.33202 0.97657-0.33203"/>
<path id="path3037" style="" d="m249.55 613.71c0.42968 0 0.79426 0.15625 1.0938 0.46875 0.31249 0.29948 0.46874 0.66407 0.46875 1.0938-0.00001 0.42969-0.15626 0.80078-0.46875 1.1133-0.29949 0.29948-0.66407 0.44922-1.0938 0.44922-5.2083 0-7.8125-2.6042-7.8125-7.8125v-10.938h-1.5625c-0.42969 0.00002-0.80078-0.14972-1.1133-0.44922-0.29948-0.31248-0.44922-0.68357-0.44922-1.1133 0-0.42967 0.14974-0.79425 0.44922-1.0938 0.3125-0.31248 0.68359-0.46873 1.1133-0.46875h1.5625v-7.8125c0-0.42966 0.14974-0.79424 0.44922-1.0938 0.31249-0.31247 0.68359-0.46872 1.1133-0.46875 0.42968 0.00003 0.79426 0.15628 1.0938 0.46875 0.31249 0.29951 0.46874 0.66409 0.46875 1.0938v7.8125h3.1445c0.42968 0.00002 0.79426 0.15627 1.0938 0.46875 0.31249 0.2995 0.46874 0.66408 0.46875 1.0938-0.00001 0.42971-0.15626 0.8008-0.46875 1.1133-0.29949 0.2995-0.66407 0.44924-1.0938 0.44922h-3.1445v10.938c-0.00001 3.125 1.5625 4.6875 4.6875 4.6875"/>
<path id="path3039" style="" d="m267.2 595.41c0.29946-0.29946 0.66405-0.4492 1.0938-0.44922 0.42967 0.00002 0.80077 0.14976 1.1133 0.44922 0.1953 0.20835 0.33202 0.44924 0.41016 0.72266l4.7266 14.199 4.8242-14.473c0.0781-0.15623 0.18877-0.30597 0.33203-0.44922 0.29945-0.29946 0.66404-0.4492 1.0938-0.44922 0.42966 0.00002 0.79424 0.15627 1.0938 0.46875 0.31247 0.2995 0.46872 0.66408 0.46875 1.0938-0.00003 0.20835-0.0391 0.41018-0.11719 0.60547l-6.2305 18.711c-0.0781 0.19531-0.19533 0.38411-0.35156 0.5664-0.31252 0.28646-0.68361 0.42969-1.1133 0.42969-0.42971 0-0.79429-0.14323-1.0938-0.42969-0.16929-0.18229-0.29299-0.37109-0.37109-0.5664l-4.7852-14.375-4.7852 14.375c-0.0781 0.19531-0.19532 0.38411-0.35156 0.5664-0.31251 0.28646-0.6836 0.42969-1.1133 0.42969s-0.79428-0.14323-1.0938-0.42969c-0.16928-0.18229-0.29298-0.37109-0.37109-0.5664l-6.2305-18.711c-0.0781-0.19529-0.11719-0.39712-0.11719-0.60547 0-0.42967 0.14974-0.79425 0.44922-1.0938 0.3125-0.31248 0.68359-0.46873 1.1133-0.46875 0.42968 0.00002 0.80078 0.14976 1.1133 0.44922 0.13021 0.14325 0.23437 0.29299 0.3125 0.44922l4.8242 14.473 4.7266-14.199c0.0911-0.27342 0.23436-0.51431 0.42969-0.72266"/>
<path id="path3041" style="" d="m307.36 605.9c-0.00002 3.0208-1.0677 5.599-3.2031 7.7344s-4.7136 3.2031-7.7344 3.2031-5.599-1.0677-7.7344-3.2031-3.2031-4.7135-3.2031-7.7344c0-3.0208 1.0677-5.5989 3.2031-7.7344 2.1354-2.1354 4.7135-3.2031 7.7344-3.2031 3.0208 0.00002 5.5989 1.0677 7.7344 3.2031 2.1354 2.1354 3.2031 4.7136 3.2031 7.7344m-10.938-7.8125c-2.1615 0.00002-4.0039 0.76174-5.5273 2.2852-1.5234 1.5234-2.2852 3.3659-2.2852 5.5273 0 2.1615 0.76171 4.0039 2.2852 5.5274 1.5234 1.5234 3.3659 2.2852 5.5273 2.2852s4.0039-0.76171 5.5273-2.2852c1.5234-1.5234 2.2851-3.3659 2.2852-5.5274-0.00002-2.1614-0.76174-4.0039-2.2852-5.5273-1.5234-1.5234-3.3659-2.2851-5.5273-2.2852"/>
<path id="path3043" style="" d="m310.49 596.52c0-0.42967 0.14974-0.79425 0.44922-1.0938 0.3125-0.31248 0.68359-0.46873 1.1133-0.46875 0.42968 0.00002 0.79427 0.15627 1.0938 0.46875 0.3125 0.2995 0.46875 0.66408 0.46875 1.0938v1.7188c2.1875-2.1875 4.7917-3.2812 7.8125-3.2812 1.5234 0.00002 2.9232 0.26044 4.1992 0.78125 0.23436 0.0912 0.4492 0.22789 0.64453 0.41016 0.29946 0.31252 0.4492 0.68361 0.44922 1.1133-0.00002 0.42971-0.15627 0.8008-0.46875 1.1133-0.2995 0.2995-0.66408 0.44924-1.0938 0.44922-0.24741 0.00002-0.47528-0.0521-0.68359-0.15625-0.9245-0.39061-1.9401-0.58592-3.0469-0.58594-2.1615 0.00002-4.0039 0.76174-5.5273 2.2852-1.5234 1.5234-2.2852 3.3659-2.2852 5.5273v9.375c0 0.42969-0.15625 0.80078-0.46875 1.1133-0.29948 0.29948-0.66407 0.44922-1.0938 0.44922-0.42969 0-0.80078-0.14974-1.1133-0.44922-0.29948-0.3125-0.44922-0.68359-0.44922-1.1133v-18.75"/>
<path id="path3045" style="" d="m332.36 603.79 13.223-8.5938c0.24737-0.15623 0.52732-0.23436 0.83984-0.23438 0.42967 0.00002 0.79425 0.15627 1.0938 0.46875 0.31248 0.2995 0.46873 0.66408 0.46875 1.0938-0.00002 0.42971-0.14976 0.79429-0.44922 1.0938-0.0781 0.0781-0.14976 0.14325-0.21484 0.19531l-9.0625 5.8984 9.2969 10.469c0.28644 0.3125 0.42967 0.67709 0.42969 1.0938-0.00002 0.42969-0.15627 0.80078-0.46875 1.1133-0.2995 0.29948-0.66408 0.44922-1.0938 0.44922-0.42971 0-0.80731-0.15625-1.1328-0.46875l-9.707-10.938-3.2227 2.0898v7.7539c0 0.42969-0.15625 0.80078-0.46875 1.1133-0.29948 0.29948-0.66407 0.44922-1.0938 0.44922-0.42969 0-0.80078-0.14974-1.1133-0.44922-0.29948-0.3125-0.44922-0.68359-0.44922-1.1133v-28.125c0-0.42966 0.14974-0.79424 0.44922-1.0938 0.3125-0.31247 0.68359-0.46872 1.1133-0.46875 0.42968 0.00003 0.79427 0.15628 1.0938 0.46875 0.3125 0.29951 0.46875 0.66409 0.46875 1.0938v16.641"/>
</g>
</g>
<g id="g3189">
<path id="rect2985-6-4" d="m130.11 523.81h279.66c11.08 0 20 8.92 20 20v10.872c0 11.08-8.92 20-20 20h-279.66c-11.08 0-20-8.92-20-20v-10.872c0-11.08 8.92-20 20-20z" stroke="#000" stroke-linecap="round" stroke-width="2" fill="#dedede"/>
<g id="text3835-9">
<path id="path3049" style="" d="m198.42 553.25c-1.1849-0.4427-2.0117-0.90494-2.4805-1.3867-0.92448-0.91145-1.3867-2.0117-1.3867-3.3008 0-1.289 0.48177-2.4154 1.4453-3.3789 1.875-1.914 4.3229-2.8711 7.3438-2.8711 3.2682 0.00002 6.0677 1.3086 8.3984 3.9258 0.20831 0.24741 0.30597 0.5534 0.29297 0.91797-0.00002 0.4297-0.15627 0.80079-0.46875 1.1133-0.2995 0.29949-0.66408 0.44923-1.0938 0.44922-0.42971 0.00001-0.77476-0.13671-1.0352-0.41016-0.26043-0.27342-0.44923-0.46873-0.5664-0.58594-1.5235-1.5234-3.3659-2.2851-5.5274-2.2852-2.1615 0.00001-3.8867 0.6771-5.1758 2.0312-0.3125 0.37762-0.46875 0.82683-0.46875 1.3476 0.0391 0.612 0.35807 1.0287 0.95703 1.25l9.6094 3.1836c1.1849 0.44271 2.0117 0.90495 2.4805 1.3867 0.92446 0.91147 1.3867 2.0117 1.3867 3.3008-0.00002 1.2891-0.48179 2.4154-1.4453 3.3789-1.875 1.9141-4.3229 2.8711-7.3438 2.8711-3.2812 0-6.0807-1.3086-8.3984-3.9258-0.19532-0.27343-0.29297-0.57942-0.29297-0.91796 0-0.42969 0.14973-0.79427 0.44922-1.0938 0.31249-0.3125 0.68359-0.46875 1.1133-0.46875 0.42968 0 0.77473 0.13672 1.0352 0.41015 0.26042 0.27345 0.44922 0.46876 0.56641 0.58594 1.5234 1.5234 3.3659 2.2852 5.5273 2.2852s3.8867-0.67708 5.1758-2.0312c0.31249-0.3776 0.46874-0.82682 0.46875-1.3477-0.0391-0.61197-0.35808-1.0286-0.95703-1.25l-9.6094-3.1836"/>
<path id="path3051" style="" d="m226.19 561.06c0.42967 0 0.79425 0.15625 1.0938 0.46875 0.31248 0.29948 0.46873 0.66406 0.46875 1.0938-0.00002 0.42968-0.15627 0.80078-0.46875 1.1133-0.2995 0.29948-0.66408 0.44922-1.0938 0.44922-5.2084 0-7.8125-2.6042-7.8125-7.8125v-10.938h-1.5625c-0.42969 0.00001-0.80079-0.14972-1.1133-0.44922-0.29948-0.31248-0.44922-0.68358-0.44921-1.1133-0.00001-0.42967 0.14973-0.79425 0.44921-1.0938 0.3125-0.31248 0.6836-0.46873 1.1133-0.46875h1.5625v-7.8125c-0.00001-0.42966 0.14973-0.79424 0.44921-1.0938 0.3125-0.31247 0.68359-0.46872 1.1133-0.46875 0.42968 0.00003 0.79426 0.15628 1.0938 0.46875 0.31249 0.29951 0.46874 0.66409 0.46875 1.0938v7.8125h3.1445c0.42967 0.00002 0.79426 0.15627 1.0938 0.46875 0.31248 0.2995 0.46873 0.66408 0.46875 1.0938-0.00002 0.4297-0.15627 0.8008-0.46875 1.1133-0.29949 0.2995-0.66408 0.44923-1.0938 0.44922h-3.1445v10.938c-0.00001 3.125 1.5625 4.6875 4.6875 4.6875"/>
<path id="path3053" style="" d="m251.58 553.25c-0.00002 3.0208-1.0677 5.599-3.2031 7.7344s-4.7136 3.2031-7.7344 3.2031-5.599-1.0677-7.7344-3.2031-3.2031-4.7135-3.2031-7.7344c0-3.0208 1.0677-5.599 3.2031-7.7344s4.7135-3.2031 7.7344-3.2031c3.0208 0.00002 5.5989 1.0677 7.7344 3.2031 2.1354 2.1354 3.2031 4.7136 3.2031 7.7344m-10.938-7.8125c-2.1615 0.00001-4.0039 0.76173-5.5273 2.2852-1.5234 1.5234-2.2852 3.3659-2.2852 5.5274s0.76171 4.0039 2.2852 5.5273c1.5234 1.5234 3.3659 2.2852 5.5273 2.2852s4.0039-0.76172 5.5273-2.2852c1.5234-1.5234 2.2851-3.3659 2.2852-5.5273-0.00002-2.1614-0.76174-4.0039-2.2852-5.5274-1.5234-1.5234-3.3659-2.2851-5.5273-2.2852"/>
<path id="path3055" style="" d="m254.7 543.87c0-0.42967 0.14974-0.79425 0.44922-1.0938 0.3125-0.31248 0.68359-0.46873 1.1133-0.46875 0.42968 0.00002 0.79427 0.15627 1.0938 0.46875 0.3125 0.2995 0.46875 0.66408 0.46875 1.0938v1.7188c2.1875-2.1875 4.7917-3.2812 7.8125-3.2812 1.5234 0.00002 2.9232 0.26043 4.1992 0.78125 0.23436 0.0912 0.4492 0.22788 0.64453 0.41015 0.29946 0.31252 0.4492 0.68362 0.44922 1.1133-0.00002 0.42971-0.15627 0.8008-0.46875 1.1133-0.2995 0.2995-0.66408 0.44924-1.0938 0.44922-0.24741 0.00002-0.47528-0.0521-0.68359-0.15625-0.9245-0.3906-1.9401-0.58592-3.0469-0.58593-2.1615 0.00001-4.0039 0.76173-5.5273 2.2852-1.5234 1.5234-2.2852 3.3659-2.2852 5.5274v9.375c0 0.42968-0.15625 0.80078-0.46875 1.1133-0.29948 0.29948-0.66407 0.44922-1.0938 0.44922-0.42969 0-0.80078-0.14974-1.1133-0.44922-0.29948-0.3125-0.44922-0.6836-0.44922-1.1133v-18.75"/>
<path id="path3057" style="" d="m284.39 545.43c-2.1615 0.00001-4.0039 0.76173-5.5273 2.2852-1.5234 1.5234-2.2852 3.3659-2.2852 5.5274s0.76171 4.0039 2.2852 5.5273c1.5234 1.5234 3.3659 2.2852 5.5273 2.2852s4.0039-0.76172 5.5273-2.2852c1.5234-1.5234 2.2851-3.3659 2.2852-5.5273-0.00002-2.1614-0.76174-4.0039-2.2852-5.5274-1.5234-1.5234-3.3659-2.2851-5.5273-2.2852m7.8125 15.469c-2.1875 2.1875-4.7917 3.2812-7.8125 3.2812s-5.599-1.0677-7.7344-3.2031-3.2031-4.7135-3.2031-7.7344c0-3.0208 1.0677-5.599 3.2031-7.7344s4.7135-3.2031 7.7344-3.2031c3.0208 0.00002 5.5989 1.0677 7.7344 3.2031 2.1354 2.1354 3.2031 4.7136 3.2031 7.7344v9.375c-0.00002 0.42968-0.15627 0.80078-0.46875 1.1133-0.2995 0.29948-0.66408 0.44922-1.0938 0.44922-0.42971 0-0.8008-0.14974-1.1133-0.44922-0.2995-0.3125-0.44924-0.6836-0.44922-1.1133v-1.7188"/>
<path id="path3059" style="" d="m309.39 545.43c-2.1615 0.00001-4.0039 0.76173-5.5273 2.2852-1.5234 1.5234-2.2852 3.3659-2.2852 5.5274s0.76171 4.0039 2.2852 5.5273c1.5234 1.5234 3.3659 2.2852 5.5273 2.2852s4.0039-0.76172 5.5273-2.2852c1.5234-1.5234 2.2851-3.3659 2.2852-5.5273-0.00002-2.1614-0.76174-4.0039-2.2852-5.5274-1.5234-1.5234-3.3659-2.2851-5.5273-2.2852m7.8125 15.469c-0.0261 0.026-0.0521 0.0521-0.0781 0.0781-2.1354 2.1354-4.7136 3.2031-7.7344 3.2031s-5.599-1.0677-7.7344-3.2031-3.2031-4.7135-3.2031-7.7344c0-3.0208 1.0677-5.599 3.2031-7.7344s4.7135-3.2031 7.7344-3.2031c3.0208 0.00002 5.5989 1.0677 7.7344 3.2031 2.1354 2.1354 3.2031 4.7136 3.2031 7.7344v10.938c-0.00002 2.2786-0.82033 4.2578-2.4609 5.9375-2.2917 2.2916-5.0586 3.4375-8.3008 3.4375-3.2422-0.00001-6.0026-1.1458-8.2812-3.4375-0.84636-0.83334-1.5365-1.7383-2.0703-2.7148-0.15625-0.23438-0.23438-0.50781-0.23438-0.82031 0-0.42969 0.14974-0.80078 0.44922-1.1133 0.3125-0.29948 0.68359-0.44922 1.1133-0.44922 0.42969 0 0.80078 0.14974 1.1133 0.44922 0.1302 0.14323 0.24088 0.29948 0.33203 0.46875 0.39062 0.70312 0.89192 1.3607 1.5039 1.9726 1.6797 1.6797 3.7044 2.5195 6.0742 2.5195 2.3698-0.00001 4.3945-0.83985 6.0742-2.5195 1.0416-1.25 1.5625-2.4935 1.5625-3.7305v-3.2812"/>
<path id="path3061" style="" d="m342.07 551.68c-0.28648-1.4974-1.0026-2.819-2.1484-3.9648-1.5234-1.5234-3.3659-2.2851-5.5273-2.2852-2.1615 0.00001-4.0039 0.76173-5.5273 2.2852-1.1458 1.1458-1.862 2.4675-2.1484 3.9648h15.352m-1.6602 7.1875c0.42966 0 0.79425 0.15625 1.0938 0.46875 0.31248 0.29948 0.46873 0.66406 0.46875 1.0938-0.00002 0.42969-0.14976 0.80078-0.44922 1.1133-2.0182 1.7578-4.3946 2.6367-7.1289 2.6367-3.0208 0-5.599-1.0677-7.7344-3.2031s-3.2031-4.7135-3.2031-7.7344c0-3.0208 1.0677-5.599 3.2031-7.7344s4.7135-3.2031 7.7344-3.2031c3.0208 0.00002 5.5989 1.0677 7.7344 3.2031 2.1354 2.1354 3.2031 4.7136 3.2031 7.7344-0.00002 0.42969-0.15627 0.80079-0.46875 1.1133-0.2995 0.29949-0.66408 0.44923-1.0938 0.44922h-17.051c0.28645 1.4974 1.0026 2.819 2.1484 3.9648 1.5234 1.5234 3.3659 2.2852 5.5273 2.2852 1.9531 0 3.6328-0.61849 5.0391-1.8555 0.28644-0.22135 0.61196-0.33203 0.97657-0.33203"/>
</g>
</g>
<g id="g3179">
<path id="rect2985-80" d="m130.11 419.87h279.66c11.08 0 20 8.92 20 20v10.872c0 11.08-8.92 20-20 20h-279.66c-11.08 0-20-8.92-20-20v-10.872c0-11.08 8.92-20 20-20z" stroke="#000" stroke-linecap="round" stroke-width="2" fill="#dedede"/>
<g id="text3835-0">
<path id="path3065" style="" d="m156.91 460.51c-0.28647 0.28646-0.65756 0.42969-1.1133 0.42969s-0.82683-0.14974-1.1133-0.44922c-0.0912-0.0781-0.17579-0.20182-0.25391-0.37109l-8.6719-18.887c-0.0781-0.18228-0.11719-0.3841-0.11719-0.60547 0-0.42967 0.14974-0.79425 0.44922-1.0938 0.3125-0.31248 0.68359-0.46873 1.1133-0.46875 0.42968 0.00002 0.80078 0.14976 1.1133 0.44922 0.10416 0.10418 0.20182 0.2409 0.29297 0.41015l7.1875 15.703 7.1875-15.703c0.0911-0.16925 0.19529-0.30597 0.3125-0.41015 0.29946-0.29946 0.66404-0.4492 1.0938-0.44922 0.42967 0.00002 0.79425 0.15627 1.0938 0.46875 0.31248 0.2995 0.46873 0.66408 0.46875 1.0938-0.00002 0.22137-0.0391 0.42319-0.11719 0.60547l-8.6719 18.887c-0.0781 0.16927-0.16278 0.29948-0.25391 0.39062"/>
<path id="path3067" style="" d="m174.16 434.37c-0.00001 0.53388-0.19532 0.99612-0.58594 1.3867-0.37761 0.37763-0.83334 0.56643-1.3672 0.5664-0.53386 0.00003-0.9961-0.18877-1.3867-0.5664-0.37761-0.3906-0.56641-0.85284-0.5664-1.3867-0.00001-0.53383 0.18879-0.98956 0.5664-1.3672 0.39062-0.3906 0.85286-0.58591 1.3867-0.58594 0.53385 0.00003 0.98958 0.19534 1.3672 0.58594 0.39062 0.37763 0.58593 0.83336 0.58594 1.3672m-3.5156 6.25c0-0.42967 0.14974-0.79425 0.44922-1.0938 0.3125-0.31248 0.68359-0.46873 1.1133-0.46875 0.42968 0.00002 0.79427 0.15627 1.0938 0.46875 0.31249 0.2995 0.46874 0.66408 0.46875 1.0938v18.75c-0.00001 0.42969-0.15626 0.80078-0.46875 1.1133-0.29948 0.29948-0.66407 0.44922-1.0938 0.44922-0.42969 0-0.80078-0.14974-1.1133-0.44922-0.29948-0.3125-0.44922-0.68359-0.44922-1.1133v-18.75"/>
<path id="path3069" style="" d="m178.45 440.62c0-0.42967 0.14974-0.79425 0.44922-1.0938 0.3125-0.31248 0.68359-0.46873 1.1133-0.46875 0.42968 0.00002 0.79427 0.15627 1.0938 0.46875 0.3125 0.2995 0.46875 0.66408 0.46875 1.0938v1.7188c2.1875-2.1875 4.7917-3.2812 7.8125-3.2812 1.5234 0.00002 2.9232 0.26044 4.1992 0.78125 0.23436 0.0912 0.4492 0.22788 0.64453 0.41015 0.29946 0.31252 0.4492 0.68362 0.44922 1.1133-0.00002 0.4297-0.15627 0.8008-0.46875 1.1133-0.2995 0.29949-0.66408 0.44923-1.0938 0.44922-0.24741 0.00001-0.47528-0.0521-0.68359-0.15625-0.9245-0.39061-1.9401-0.58592-3.0469-0.58594-2.1615 0.00002-4.0039 0.76173-5.5273 2.2852s-2.2852 3.3659-2.2852 5.5274v9.375c0 0.42969-0.15625 0.80078-0.46875 1.1133-0.29948 0.29948-0.66407 0.44922-1.0938 0.44922-0.42969 0-0.80078-0.14974-1.1133-0.44922-0.29948-0.3125-0.44922-0.68359-0.44922-1.1133v-18.75"/>
<path id="path3071" style="" d="m208.14 457.81c0.42968 0 0.79426 0.15625 1.0938 0.46875 0.31249 0.29948 0.46874 0.66406 0.46875 1.0938-0.00001 0.42969-0.15626 0.80078-0.46875 1.1133-0.29949 0.29948-0.66407 0.44922-1.0938 0.44922-5.2083 0-7.8125-2.6042-7.8125-7.8125v-10.938h-1.5625c-0.42969 0.00002-0.80078-0.14972-1.1133-0.44922-0.29948-0.31248-0.44922-0.68357-0.44922-1.1133 0-0.42967 0.14974-0.79425 0.44922-1.0938 0.3125-0.31248 0.68359-0.46873 1.1133-0.46875h1.5625v-7.8125c0-0.42966 0.14974-0.79424 0.44922-1.0938 0.31249-0.31247 0.68359-0.46872 1.1133-0.46875 0.42968 0.00003 0.79426 0.15628 1.0938 0.46875 0.31249 0.29951 0.46874 0.66409 0.46875 1.0938v7.8125h3.1445c0.42968 0.00002 0.79426 0.15627 1.0938 0.46875 0.31249 0.2995 0.46874 0.66408 0.46875 1.0938-0.00001 0.42971-0.15626 0.8008-0.46875 1.1133-0.29949 0.2995-0.66407 0.44924-1.0938 0.44922h-3.1445v10.938c-0.00001 3.125 1.5625 4.6875 4.6875 4.6875"/>
<path id="path3073" style="" d="m233.14 459.37c-0.00002 0.42969-0.15627 0.80078-0.46875 1.1133-0.2995 0.29948-0.66408 0.44922-1.0938 0.44922-0.42971 0-0.8008-0.14974-1.1133-0.44922-0.2995-0.3125-0.44924-0.68359-0.44922-1.1133v-1.2695c-1.9531 1.888-4.2969 2.832-7.0312 2.832-2.7995 0-5.1953-0.98958-7.1875-2.9688-1.9792-1.9922-2.9688-4.388-2.9688-7.1875v-10.156c0-0.42967 0.14974-0.79425 0.44922-1.0938 0.3125-0.31248 0.68359-0.46873 1.1133-0.46875 0.42968 0.00002 0.79427 0.15627 1.0938 0.46875 0.3125 0.2995 0.46875 0.66408 0.46875 1.0938v10.156c0 1.9401 0.68359 3.6003 2.0508 4.9805 1.3802 1.3672 3.0404 2.0508 4.9805 2.0508s3.5937-0.68359 4.9609-2.0508c1.3802-1.3802 2.0703-3.0404 2.0703-4.9805v-10.156c-0.00002-0.42967 0.14972-0.79425 0.44922-1.0938 0.31248-0.31248 0.68357-0.46873 1.1133-0.46875 0.42967 0.00002 0.79425 0.15627 1.0938 0.46875 0.31248 0.2995 0.46873 0.66408 0.46875 1.0938v18.75"/>
<path id="path3075" style="" d="m247.2 442.19c-2.1615 0.00002-4.0039 0.76173-5.5273 2.2852s-2.2852 3.3659-2.2852 5.5274 0.76171 4.0039 2.2852 5.5273c1.5234 1.5234 3.3659 2.2852 5.5273 2.2852s4.0039-0.76172 5.5273-2.2852c1.5234-1.5234 2.2851-3.3659 2.2852-5.5273-0.00002-2.1614-0.76174-4.0039-2.2852-5.5274-1.5234-1.5234-3.3659-2.2851-5.5273-2.2852m7.8125 15.469c-2.1875 2.1875-4.7917 3.2812-7.8125 3.2812s-5.599-1.0677-7.7344-3.2031-3.2031-4.7135-3.2031-7.7344c0-3.0208 1.0677-5.5989 3.2031-7.7344 2.1354-2.1354 4.7135-3.2031 7.7344-3.2031 3.0208 0.00002 5.5989 1.0677 7.7344 3.2031 2.1354 2.1354 3.2031 4.7136 3.2031 7.7344v9.375c-0.00002 0.42969-0.15627 0.80078-0.46875 1.1133-0.2995 0.29948-0.66408 0.44922-1.0938 0.44922-0.42971 0-0.8008-0.14974-1.1133-0.44922-0.2995-0.3125-0.44924-0.68359-0.44922-1.1133v-1.7188"/>
<path id="path3077" style="" d="m261.27 431.25c0-0.42966 0.14974-0.79424 0.44922-1.0938 0.3125-0.31247 0.68359-0.46872 1.1133-0.46875 0.42968 0.00003 0.79427 0.15628 1.0938 0.46875 0.3125 0.29951 0.46875 0.66409 0.46875 1.0938v26.562h1.5625c0.42968 0 0.79426 0.15625 1.0938 0.46875 0.31249 0.29948 0.46874 0.66406 0.46875 1.0938-0.00001 0.42969-0.15626 0.80078-0.46875 1.1133-0.29949 0.29948-0.66407 0.44922-1.0938 0.44922h-3.125c-0.42969 0-0.80078-0.14974-1.1133-0.44922-0.29948-0.3125-0.44922-0.68359-0.44922-1.1133v-28.125"/>
<path id="path3079" style="" d="m275.72 434.37c-0.00001 0.53388-0.19532 0.99612-0.58594 1.3867-0.37761 0.37763-0.83334 0.56643-1.3672 0.5664-0.53386 0.00003-0.9961-0.18877-1.3867-0.5664-0.37761-0.3906-0.56641-0.85284-0.5664-1.3867-0.00001-0.53383 0.18879-0.98956 0.5664-1.3672 0.39062-0.3906 0.85286-0.58591 1.3867-0.58594 0.53385 0.00003 0.98958 0.19534 1.3672 0.58594 0.39062 0.37763 0.58593 0.83336 0.58594 1.3672m-3.5156 6.25c0-0.42967 0.14974-0.79425 0.44922-1.0938 0.3125-0.31248 0.68359-0.46873 1.1133-0.46875 0.42968 0.00002 0.79427 0.15627 1.0938 0.46875 0.31249 0.2995 0.46874 0.66408 0.46875 1.0938v18.75c-0.00001 0.42969-0.15626 0.80078-0.46875 1.1133-0.29948 0.29948-0.66407 0.44922-1.0938 0.44922-0.42969 0-0.80078-0.14974-1.1133-0.44922-0.29948-0.3125-0.44922-0.68359-0.44922-1.1133v-18.75"/>
<path id="path3081" style="" d="m297.2 457.81c0.42967 0 0.79425 0.15625 1.0938 0.46875 0.31248 0.29948 0.46873 0.66406 0.46875 1.0938-0.00002 0.42969-0.15627 0.80078-0.46875 1.1133-0.2995 0.29948-0.66408 0.44922-1.0938 0.44922h-15.625c-0.42969 0-0.80078-0.14974-1.1133-0.44922-0.29948-0.3125-0.44922-0.68359-0.44922-1.1133 0-0.36458 0.10417-0.68359 0.3125-0.95703l13.535-16.23h-12.285c-0.42969 0.00002-0.80078-0.14972-1.1133-0.44922-0.29948-0.31248-0.44922-0.68357-0.44922-1.1133 0-0.42967 0.14974-0.79425 0.44922-1.0938 0.3125-0.31248 0.68359-0.46873 1.1133-0.46875h15.625c0.42967 0.00002 0.79425 0.15627 1.0938 0.46875 0.31248 0.2995 0.46873 0.66408 0.46875 1.0938-0.00002 0.39064-0.12372 0.72918-0.37109 1.0156l-13.496 16.172h12.305"/>
<path id="path3083" style="" d="m311.58 442.19c-2.1615 0.00002-4.0039 0.76173-5.5273 2.2852s-2.2852 3.3659-2.2852 5.5274 0.76171 4.0039 2.2852 5.5273c1.5234 1.5234 3.3659 2.2852 5.5273 2.2852s4.0039-0.76172 5.5273-2.2852c1.5234-1.5234 2.2851-3.3659 2.2852-5.5273-0.00002-2.1614-0.76174-4.0039-2.2852-5.5274-1.5234-1.5234-3.3659-2.2851-5.5273-2.2852m7.8125 15.469c-2.1875 2.1875-4.7917 3.2812-7.8125 3.2812s-5.599-1.0677-7.7344-3.2031-3.2031-4.7135-3.2031-7.7344c0-3.0208 1.0677-5.5989 3.2031-7.7344 2.1354-2.1354 4.7135-3.2031 7.7344-3.2031 3.0208 0.00002 5.5989 1.0677 7.7344 3.2031 2.1354 2.1354 3.2031 4.7136 3.2031 7.7344v9.375c-0.00002 0.42969-0.15627 0.80078-0.46875 1.1133-0.2995 0.29948-0.66408 0.44922-1.0938 0.44922-0.42971 0-0.8008-0.14974-1.1133-0.44922-0.2995-0.3125-0.44924-0.68359-0.44922-1.1133v-1.7188"/>
<path id="path3085" style="" d="m334.86 457.81c0.42968 0 0.79426 0.15625 1.0938 0.46875 0.31249 0.29948 0.46874 0.66406 0.46875 1.0938-0.00001 0.42969-0.15626 0.80078-0.46875 1.1133-0.29949 0.29948-0.66407 0.44922-1.0938 0.44922-5.2083 0-7.8125-2.6042-7.8125-7.8125v-10.938h-1.5625c-0.42969 0.00002-0.80078-0.14972-1.1133-0.44922-0.29948-0.31248-0.44922-0.68357-0.44922-1.1133 0-0.42967 0.14974-0.79425 0.44922-1.0938 0.3125-0.31248 0.68359-0.46873 1.1133-0.46875h1.5625v-7.8125c0-0.42966 0.14974-0.79424 0.44922-1.0938 0.31249-0.31247 0.68359-0.46872 1.1133-0.46875 0.42968 0.00003 0.79426 0.15628 1.0938 0.46875 0.31249 0.29951 0.46874 0.66409 0.46875 1.0938v7.8125h3.1445c0.42968 0.00002 0.79426 0.15627 1.0938 0.46875 0.31249 0.2995 0.46874 0.66408 0.46875 1.0938-0.00001 0.42971-0.15626 0.8008-0.46875 1.1133-0.29949 0.2995-0.66407 0.44924-1.0938 0.44922h-3.1445v10.938c-0.00001 3.125 1.5625 4.6875 4.6875 4.6875"/>
<path id="path3087" style="" d="m344.63 434.37c-0.00001 0.53388-0.19532 0.99612-0.58594 1.3867-0.37761 0.37763-0.83334 0.56643-1.3672 0.5664-0.53386 0.00003-0.9961-0.18877-1.3867-0.5664-0.37761-0.3906-0.56641-0.85284-0.5664-1.3867-0.00001-0.53383 0.18879-0.98956 0.5664-1.3672 0.39062-0.3906 0.85286-0.58591 1.3867-0.58594 0.53385 0.00003 0.98958 0.19534 1.3672 0.58594 0.39062 0.37763 0.58593 0.83336 0.58594 1.3672m-3.5156 6.25c0-0.42967 0.14974-0.79425 0.44922-1.0938 0.3125-0.31248 0.68359-0.46873 1.1133-0.46875 0.42968 0.00002 0.79427 0.15627 1.0938 0.46875 0.31249 0.2995 0.46874 0.66408 0.46875 1.0938v18.75c-0.00001 0.42969-0.15626 0.80078-0.46875 1.1133-0.29948 0.29948-0.66407 0.44922-1.0938 0.44922-0.42969 0-0.80078-0.14974-1.1133-0.44922-0.29948-0.3125-0.44922-0.68359-0.44922-1.1133v-18.75"/>
<path id="path3089" style="" d="m370.8 450c-0.00002 3.0208-1.0677 5.599-3.2031 7.7344s-4.7136 3.2031-7.7344 3.2031-5.599-1.0677-7.7344-3.2031-3.2031-4.7135-3.2031-7.7344c0-3.0208 1.0677-5.5989 3.2031-7.7344 2.1354-2.1354 4.7135-3.2031 7.7344-3.2031 3.0208 0.00002 5.5989 1.0677 7.7344 3.2031 2.1354 2.1354 3.2031 4.7136 3.2031 7.7344m-10.938-7.8125c-2.1615 0.00002-4.0039 0.76173-5.5273 2.2852s-2.2852 3.3659-2.2852 5.5274 0.76171 4.0039 2.2852 5.5273c1.5234 1.5234 3.3659 2.2852 5.5273 2.2852s4.0039-0.76172 5.5273-2.2852c1.5234-1.5234 2.2851-3.3659 2.2852-5.5273-0.00002-2.1614-0.76174-4.0039-2.2852-5.5274-1.5234-1.5234-3.3659-2.2851-5.5273-2.2852"/>
<path id="path3091" style="" d="m373.92 440.62c0-0.42967 0.14974-0.79425 0.44922-1.0938 0.3125-0.31248 0.68359-0.46873 1.1133-0.46875 0.42968 0.00002 0.79427 0.15627 1.0938 0.46875 0.3125 0.2995 0.46875 0.66408 0.46875 1.0938v1.2695c1.9531-1.888 4.2969-2.832 7.0312-2.832 2.7995 0.00002 5.1888 0.99611 7.168 2.9883 1.9922 1.9792 2.9883 4.3685 2.9883 7.168v10.156c-0.00002 0.42969-0.15627 0.80078-0.46875 1.1133-0.2995 0.29948-0.66408 0.44922-1.0938 0.44922-0.42971 0-0.8008-0.14974-1.1133-0.44922-0.2995-0.3125-0.44924-0.68359-0.44922-1.1133v-10.156c-0.00002-1.9401-0.69012-3.5937-2.0703-4.9609-1.3672-1.3802-3.0208-2.0703-4.9609-2.0703-1.9401 0.00002-3.6003 0.69012-4.9805 2.0703-1.3672 1.3672-2.0508 3.0208-2.0508 4.9609v10.156c0 0.42969-0.15625 0.80078-0.46875 1.1133-0.29948 0.29948-0.66407 0.44922-1.0938 0.44922-0.42969 0-0.80078-0.14974-1.1133-0.44922-0.29948-0.3125-0.44922-0.68359-0.44922-1.1133v-18.75"/>
</g>
</g>
<g id="g3184">
<path id="rect2985-6" d="m130.11 471.84h279.66c11.08 0 20 8.92 20 20v10.872c0 11.08-8.92 20-20 20h-279.66c-11.08 0-20-8.92-20-20v-10.872c0-11.08 8.92-20 20-20z" stroke="#000" stroke-linecap="round" stroke-width="2" fill="#dedede"/>
<g id="text3835-01">
<path id="path3095" style="" d="m175.41 483.23c-0.00001-0.42965 0.14973-0.79424 0.44921-1.0938 0.3125-0.31247 0.6836-0.46872 1.1133-0.46875 0.42968 0.00003 0.79426 0.15628 1.0938 0.46875 0.31249 0.29951 0.46874 0.6641 0.46875 1.0938v10.645c1.9531-1.888 4.2969-2.832 7.0312-2.832 2.7995 0.00003 5.1888 0.99612 7.168 2.9883 1.9922 1.9792 2.9883 4.3685 2.9883 7.168v10.156c-0.00003 0.42969-0.15628 0.80079-0.46875 1.1133-0.2995 0.29948-0.66409 0.44922-1.0938 0.44922s-0.80081-0.14974-1.1133-0.44922c-0.29949-0.31249-0.44923-0.68359-0.44921-1.1133v-10.156c-0.00002-1.9401-0.69013-3.5937-2.0703-4.9609-1.3672-1.3802-3.0208-2.0703-4.9609-2.0703-1.9401 0.00002-3.6003 0.69013-4.9805 2.0703-1.3672 1.3672-2.0508 3.0208-2.0508 4.9609v10.156c-0.00001 0.42969-0.15626 0.80079-0.46875 1.1133-0.29949 0.29948-0.66407 0.44922-1.0938 0.44922-0.42969 0-0.80079-0.14974-1.1133-0.44922-0.29948-0.31249-0.44922-0.68359-0.44921-1.1133v-28.125"/>
<path id="path3097" style="" d="m209.78 494.17c-2.1615 0.00002-4.0039 0.76174-5.5274 2.2852-1.5234 1.5234-2.2852 3.3659-2.2852 5.5273-0.00001 2.1615 0.76171 4.0039 2.2852 5.5274 1.5234 1.5234 3.3659 2.2852 5.5274 2.2852 2.1614 0.00001 4.0039-0.76171 5.5273-2.2852 1.5234-1.5234 2.2851-3.3659 2.2852-5.5274-0.00002-2.1614-0.76174-4.0039-2.2852-5.5273-1.5234-1.5234-3.3659-2.2851-5.5273-2.2852m7.8125 15.469c-2.1875 2.1875-4.7917 3.2812-7.8125 3.2812s-5.599-1.0677-7.7344-3.2031-3.2031-4.7135-3.2031-7.7344c-0.00001-3.0208 1.0677-5.5989 3.2031-7.7344 2.1354-2.1354 4.7135-3.2031 7.7344-3.2031 3.0208 0.00003 5.5989 1.0677 7.7344 3.2031 2.1354 2.1354 3.2031 4.7136 3.2031 7.7344v9.375c-0.00003 0.42969-0.15628 0.80079-0.46875 1.1133-0.29951 0.29948-0.66409 0.44922-1.0938 0.44922s-0.80081-0.14974-1.1133-0.44922c-0.2995-0.31249-0.44923-0.68359-0.44921-1.1133v-1.7188"/>
<path id="path3099" style="" d="m223.84 492.61c-0.00001-0.42966 0.14973-0.79425 0.44921-1.0938 0.3125-0.31247 0.6836-0.46872 1.1133-0.46875 0.42968 0.00003 0.79426 0.15628 1.0938 0.46875 0.31249 0.2995 0.46874 0.66409 0.46875 1.0938v1.7188c2.1875-2.1875 4.7916-3.2812 7.8125-3.2812 1.5234 0.00003 2.9232 0.26044 4.1992 0.78125 0.23436 0.0912 0.44921 0.22789 0.64454 0.41016 0.29946 0.31252 0.4492 0.68361 0.44921 1.1133-0.00001 0.42971-0.15626 0.8008-0.46875 1.1133-0.29949 0.2995-0.66407 0.44924-1.0938 0.44922-0.24741 0.00002-0.47527-0.0521-0.68359-0.15625-0.92449-0.39061-1.9401-0.58592-3.0469-0.58594-2.1615 0.00002-4.0039 0.76174-5.5274 2.2852-1.5234 1.5234-2.2852 3.3659-2.2852 5.5273v9.375c-0.00001 0.42969-0.15626 0.80079-0.46875 1.1133-0.29949 0.29948-0.66407 0.44922-1.0938 0.44922-0.42969 0-0.80079-0.14974-1.1133-0.44922-0.29948-0.31249-0.44922-0.68359-0.44921-1.1133v-18.75"/>
<path id="path3101" style="" d="m261.34 501.98c-0.00002-2.1614-0.76174-4.0039-2.2852-5.5273-1.5234-1.5234-3.3659-2.2851-5.5273-2.2852-2.1615 0.00002-4.0039 0.76174-5.5274 2.2852-1.5234 1.5234-2.2852 3.3659-2.2852 5.5273-0.00001 2.1615 0.76171 4.0039 2.2852 5.5274 1.5234 1.5234 3.3659 2.2852 5.5274 2.2852 2.1614 0.00001 4.0039-0.76171 5.5273-2.2852 1.5234-1.5234 2.2851-3.3659 2.2852-5.5274m0-18.789c-0.00002-0.42966 0.14971-0.79424 0.44921-1.0938 0.31248-0.31247 0.68358-0.46872 1.1133-0.46875 0.42966 0.00003 0.79424 0.15628 1.0938 0.46875 0.31247 0.29951 0.46872 0.66409 0.46875 1.0938v18.789c-0.00003 3.0208-1.0677 5.599-3.2031 7.7344s-4.7136 3.2031-7.7344 3.2031-5.599-1.0677-7.7344-3.2031-3.2031-4.7135-3.2031-7.7344c-0.00001-3.0208 1.0677-5.5989 3.2031-7.7344 2.1354-2.1354 4.7135-3.2031 7.7344-3.2031 3.0208 0.00003 5.5989 1.0677 7.7344 3.2031 0.026 0.0261 0.0521 0.0521 0.0781 0.0781v-11.133"/>
<path id="path3103" style="" d="m280.56 491.5c0.29946-0.29946 0.66404-0.44919 1.0938-0.44922 0.42967 0.00003 0.80076 0.14976 1.1133 0.44922 0.19529 0.20836 0.33201 0.44924 0.41015 0.72266l4.7266 14.199 4.8242-14.473c0.0781-0.15623 0.18878-0.30597 0.33204-0.44922 0.29945-0.29946 0.66403-0.44919 1.0938-0.44922 0.42965 0.00003 0.79424 0.15628 1.0938 0.46875 0.31247 0.2995 0.46872 0.66409 0.46875 1.0938-0.00003 0.20836-0.0391 0.41018-0.11719 0.60547l-6.2305 18.711c-0.0781 0.19531-0.19534 0.38411-0.35156 0.56641-0.31253 0.28645-0.68362 0.42968-1.1133 0.42968-0.42971 0-0.7943-0.14323-1.0938-0.42968-0.1693-0.1823-0.29299-0.3711-0.3711-0.56641l-4.7852-14.375-4.7852 14.375c-0.0781 0.19531-0.19532 0.38411-0.35156 0.56641-0.31251 0.28645-0.68361 0.42968-1.1133 0.42968-0.4297 0-0.79428-0.14323-1.0938-0.42968-0.16928-0.1823-0.29298-0.3711-0.3711-0.56641l-6.2305-18.711c-0.0781-0.19529-0.11719-0.39711-0.11718-0.60547-0.00001-0.42966 0.14973-0.79425 0.44921-1.0938 0.3125-0.31247 0.6836-0.46872 1.1133-0.46875 0.42968 0.00003 0.80077 0.14976 1.1133 0.44922 0.1302 0.14325 0.23437 0.29299 0.3125 0.44922l4.8242 14.473 4.7266-14.199c0.0911-0.27342 0.23436-0.5143 0.42969-0.72266"/>
<path id="path3105" style="" d="m309.78 494.17c-2.1615 0.00002-4.0039 0.76174-5.5274 2.2852-1.5234 1.5234-2.2852 3.3659-2.2852 5.5273-0.00001 2.1615 0.76171 4.0039 2.2852 5.5274 1.5234 1.5234 3.3659 2.2852 5.5274 2.2852 2.1614 0.00001 4.0039-0.76171 5.5273-2.2852 1.5234-1.5234 2.2851-3.3659 2.2852-5.5274-0.00002-2.1614-0.76174-4.0039-2.2852-5.5273-1.5234-1.5234-3.3659-2.2851-5.5273-2.2852m7.8125 15.469c-2.1875 2.1875-4.7917 3.2812-7.8125 3.2812s-5.599-1.0677-7.7344-3.2031-3.2031-4.7135-3.2031-7.7344c-0.00001-3.0208 1.0677-5.5989 3.2031-7.7344 2.1354-2.1354 4.7135-3.2031 7.7344-3.2031 3.0208 0.00003 5.5989 1.0677 7.7344 3.2031 2.1354 2.1354 3.2031 4.7136 3.2031 7.7344v9.375c-0.00003 0.42969-0.15628 0.80079-0.46875 1.1133-0.29951 0.29948-0.66409 0.44922-1.0938 0.44922s-0.80081-0.14974-1.1133-0.44922c-0.2995-0.31249-0.44923-0.68359-0.44921-1.1133v-1.7188"/>
<path id="path3107" style="" d="m323.84 492.61c-0.00001-0.42966 0.14973-0.79425 0.44921-1.0938 0.3125-0.31247 0.6836-0.46872 1.1133-0.46875 0.42968 0.00003 0.79426 0.15628 1.0938 0.46875 0.31249 0.2995 0.46874 0.66409 0.46875 1.0938v1.7188c2.1875-2.1875 4.7916-3.2812 7.8125-3.2812 1.5234 0.00003 2.9232 0.26044 4.1992 0.78125 0.23436 0.0912 0.44921 0.22789 0.64454 0.41016 0.29946 0.31252 0.4492 0.68361 0.44921 1.1133-0.00001 0.42971-0.15626 0.8008-0.46875 1.1133-0.29949 0.2995-0.66407 0.44924-1.0938 0.44922-0.24741 0.00002-0.47527-0.0521-0.68359-0.15625-0.92449-0.39061-1.9401-0.58592-3.0469-0.58594-2.1615 0.00002-4.0039 0.76174-5.5274 2.2852-1.5234 1.5234-2.2852 3.3659-2.2852 5.5273v9.375c-0.00001 0.42969-0.15626 0.80079-0.46875 1.1133-0.29949 0.29948-0.66407 0.44922-1.0938 0.44922-0.42969 0-0.80079-0.14974-1.1133-0.44922-0.29948-0.31249-0.44922-0.68359-0.44921-1.1133v-18.75"/>
<path id="path3109" style="" d="m361.21 500.42c-0.28648-1.4974-1.0026-2.819-2.1484-3.9648-1.5234-1.5234-3.3659-2.2851-5.5273-2.2852-2.1615 0.00002-4.0039 0.76174-5.5274 2.2852-1.1458 1.1458-1.862 2.4675-2.1484 3.9648h15.352m-1.6602 7.1875c0.42967 0.00001 0.79425 0.15626 1.0938 0.46875 0.31248 0.29949 0.46873 0.66407 0.46875 1.0938-0.00002 0.42969-0.14976 0.80079-0.44922 1.1133-2.0182 1.7578-4.3945 2.6367-7.1289 2.6367-3.0208 0-5.599-1.0677-7.7344-3.2031s-3.2031-4.7135-3.2031-7.7344c-0.00001-3.0208 1.0677-5.5989 3.2031-7.7344 2.1354-2.1354 4.7135-3.2031 7.7344-3.2031 3.0208 0.00003 5.5989 1.0677 7.7344 3.2031 2.1354 2.1354 3.2031 4.7136 3.2031 7.7344-0.00003 0.4297-0.15628 0.80079-0.46875 1.1133-0.29951 0.29949-0.66409 0.44923-1.0938 0.44922h-17.051c0.28646 1.4974 1.0026 2.819 2.1484 3.9648 1.5234 1.5234 3.3659 2.2852 5.5274 2.2852 1.9531 0.00001 3.6328-0.61848 5.0391-1.8555 0.28644-0.22134 0.61196-0.33202 0.97656-0.33203"/>
</g>
</g>
<g id="g3174">
<path id="rect2985-8" d="m130.11 367.91h279.66c11.08 0 20 8.92 20 20v10.872c0 11.08-8.92 20-20 20h-279.66c-11.08 0-20-8.92-20-20v-10.872c0-11.08 8.92-20 20-20z" stroke="#000" stroke-linecap="round" stroke-width="2" fill="#dedede"/>
<g id="text3835-97">
<path id="path3113" style="" d="m250.21 379.28c-3.4505 0.00003-6.3998 1.224-8.8476 3.6719-2.4349 2.4349-3.6524 5.3776-3.6524 8.8281s1.2174 6.3998 3.6524 8.8477c2.4479 2.4349 5.3971 3.6524 8.8476 3.6523 3.4505 0.00001 6.3932-1.2174 8.8281-3.6523 2.4479-2.4479 3.6718-5.3971 3.6719-8.8477-0.00003-3.4505-1.224-6.3932-3.6719-8.8281-2.4349-2.4479-5.3776-3.6718-8.8281-3.6719m15.625 12.5c-0.00003 4.3099-1.53 7.9948-4.5898 11.055-3.0469 3.0469-6.7253 4.5703-11.035 4.5703-4.3099 0-7.9948-1.5234-11.055-4.5703-3.0469-3.0599-4.5703-6.7448-4.5703-11.055 0-4.3099 1.5234-7.9882 4.5703-11.035 3.0599-3.0599 6.7448-4.5898 11.055-4.5898 4.3099 0.00004 7.9883 1.53 11.035 4.5898 3.0599 3.0469 4.5898 6.7253 4.5898 11.035"/>
<path id="path3115" style="" d="m281.93 376.61c0.29947-0.29945 0.66405-0.44918 1.0938-0.44922 0.42967 0.00004 0.79426 0.15628 1.0938 0.46875 0.31249 0.29951 0.46874 0.6641 0.46875 1.0938-0.00001 0.23441-0.0456 0.45576-0.13672 0.66407l-12.5 31.25c-0.0781 0.15624-0.18229 0.29947-0.3125 0.42968-0.3125 0.3125-0.68359 0.46875-1.1133 0.46875-0.42969 0-0.80078-0.15625-1.1133-0.46875-0.29948-0.29948-0.44922-0.66406-0.44922-1.0938 0-0.23437 0.0456-0.45573 0.13672-0.66406l12.5-31.25c0.0781-0.15622 0.18879-0.30596 0.33203-0.44922"/>
<path id="path3117" style="" d="m288.02 403.13c-0.20833-0.27343-0.3125-0.58593-0.3125-0.9375 0-0.42968 0.14974-0.79426 0.44922-1.0938 0.3125-0.31249 0.68359-0.46874 1.1133-0.46875 0.5599 0.00001 1.0026 0.24089 1.3281 0.72266 0.15624 0.2474 0.33853 0.48177 0.54687 0.70312 1.1068 1.3281 2.526 2.0638 4.2578 2.207 1.7187 0.13021 3.2357-0.35807 4.5508-1.4648 1.3151-1.1198 2.0442-2.5391 2.1875-4.2578 0.14321-1.7318-0.34507-3.2487-1.4648-4.5508-1.1068-1.3151-2.526-2.0443-4.2578-2.1875-2.1484-0.18228-3.9193-1.0937-5.3125-2.7344-1.3932-1.6406-2.0052-3.5416-1.8359-5.7031 0.18229-2.1484 1.0938-3.9192 2.7344-5.3125 1.4713-1.263 3.164-1.8945 5.0781-1.8945 2.2656 0.00004 4.2448 0.93102 5.9375 2.793 0.28644 0.33857 0.54035 0.69013 0.76172 1.0547 0.15623 0.24742 0.23436 0.52737 0.23438 0.83984-0.00002 0.42972-0.15627 0.80081-0.46875 1.1133-0.2995 0.2995-0.66408 0.44924-1.0938 0.44921-0.49481 0.00003-0.85939-0.15622-1.0938-0.46875-0.23439-0.31247-0.47528-0.63148-0.72266-0.95703-0.84637-0.98955-1.9076-1.5364-3.1836-1.6406-1.2891-0.10414-2.4284 0.26695-3.418 1.1133-0.98959 0.83336-1.5365 1.888-1.6406 3.1641-0.10417 1.2891 0.26041 2.4284 1.0938 3.418 0.84635 0.9896 1.9076 1.5365 3.1836 1.6406 2.5911 0.22137 4.7265 1.3151 6.4062 3.2812 1.4713 1.7448 2.207 3.724 2.207 5.9375-0.00002 0.29948-0.013 0.59896-0.0391 0.89843-0.20836 2.5781-1.2956 4.7005-3.2617 6.3672-1.7578 1.4974-3.7565 2.2461-5.9961 2.2461-2.7995 0-5.2083-1.1068-7.2266-3.3203-0.27344-0.29947-0.52083-0.61848-0.74219-0.95703"/>
</g>
</g>
<g id="g3169">
<path id="rect2985-7" d="m130.11 315.94h279.66c11.08 0 20 8.92 20 20v10.872c0 11.08-8.92 20-20 20h-279.66c-11.08 0-20-8.92-20-20v-10.872c0-11.08 8.92-20 20-20z" stroke="#000" stroke-linecap="round" stroke-width="2" fill="#dedede"/>
<g id="text3835-2">
<path id="path3121" style="" d="m160.56 355.46c-0.00001 0.42969-0.15626 0.80078-0.46875 1.1133-0.29949 0.29948-0.66407 0.44922-1.0938 0.44922-0.42969 0-0.80079-0.14974-1.1133-0.44922-0.29948-0.3125-0.44922-0.68359-0.44921-1.1133v-18.75c-0.00001-0.42967 0.14973-0.79425 0.44921-1.0938 0.3125-0.31248 0.6836-0.46873 1.1133-0.46875 0.42968 0.00002 0.79426 0.15627 1.0938 0.46875 0.31249 0.2995 0.46874 0.66408 0.46875 1.0938v0.41016c1.5495-1.3151 3.3724-1.9726 5.4688-1.9727 2.3698 0.00002 4.3945 0.83987 6.0742 2.5195 0.35155 0.35158 0.67056 0.72268 0.95704 1.1133 0.28644-0.3906 0.60545-0.7617 0.95703-1.1133 1.6797-1.6797 3.7044-2.5195 6.0742-2.5195 2.3698 0.00002 4.3945 0.83987 6.0742 2.5195 1.6797 1.6797 2.5195 3.7044 2.5195 6.0742v11.719c-0.00004 0.42969-0.15629 0.80078-0.46875 1.1133-0.29952 0.29948-0.6641 0.44922-1.0938 0.44922-0.42972 0-0.80082-0.14974-1.1133-0.44922-0.2995-0.3125-0.44924-0.68359-0.44921-1.1133v-11.719c-0.00003-1.5104-0.53389-2.7995-1.6016-3.8672s-2.3568-1.6015-3.8672-1.6016c-1.5104 0.00002-2.7995 0.53387-3.8672 1.6016s-1.6016 2.3568-1.6016 3.8672v11.719c-0.00002 0.42969-0.15627 0.80078-0.46875 1.1133-0.2995 0.29948-0.66408 0.44922-1.0938 0.44922-0.42971 0-0.8008-0.14974-1.1133-0.44922-0.29949-0.3125-0.44923-0.68359-0.44921-1.1133v-11.719c-0.00002-1.5104-0.53387-2.7995-1.6016-3.8672s-2.3568-1.6015-3.8672-1.6016c-1.5104 0.00002-2.7995 0.53387-3.8672 1.6016s-1.6016 2.3568-1.6016 3.8672v11.719"/>
<path id="path3123" style="" d="m196.89 330.46c-0.00001 0.53388-0.19532 0.99612-0.58594 1.3867-0.37761 0.37763-0.83334 0.56643-1.3672 0.56641-0.53386 0.00002-0.9961-0.18878-1.3867-0.56641-0.37761-0.3906-0.56641-0.85284-0.56641-1.3867 0-0.53383 0.1888-0.98955 0.56641-1.3672 0.39062-0.39059 0.85286-0.58591 1.3867-0.58593 0.53384 0.00002 0.98957 0.19534 1.3672 0.58593 0.39062 0.37764 0.58593 0.83336 0.58594 1.3672m-3.5156 6.25c-0.00001-0.42967 0.14973-0.79425 0.44921-1.0938 0.3125-0.31248 0.68359-0.46873 1.1133-0.46875 0.42968 0.00002 0.79426 0.15627 1.0938 0.46875 0.31249 0.2995 0.46874 0.66408 0.46875 1.0938v18.75c-0.00001 0.42969-0.15626 0.80078-0.46875 1.1133-0.29949 0.29948-0.66407 0.44922-1.0938 0.44922-0.4297 0-0.80079-0.14974-1.1133-0.44922-0.29948-0.3125-0.44922-0.68359-0.44921-1.1133v-18.75"/>
<path id="path3125" style="" d="m219.94 346.08c-0.00002-2.1614-0.76174-4.0039-2.2852-5.5273-1.5234-1.5234-3.3659-2.2851-5.5273-2.2852-2.1615 0.00002-4.0039 0.76174-5.5274 2.2852-1.5234 1.5234-2.2852 3.3659-2.2852 5.5273-0.00001 2.1615 0.76171 4.0039 2.2852 5.5273 1.5234 1.5234 3.3659 2.2852 5.5274 2.2852 2.1614 0 4.0039-0.76171 5.5273-2.2852 1.5234-1.5234 2.2851-3.3659 2.2852-5.5273m0-18.789c-0.00002-0.42966 0.14971-0.79424 0.44921-1.0938 0.31248-0.31247 0.68358-0.46872 1.1133-0.46875 0.42966 0.00003 0.79424 0.15628 1.0938 0.46875 0.31247 0.29951 0.46872 0.66409 0.46875 1.0938v18.789c-0.00003 3.0208-1.0677 5.599-3.2031 7.7344s-4.7136 3.2031-7.7344 3.2031-5.599-1.0677-7.7344-3.2031-3.2031-4.7135-3.2031-7.7344c-0.00001-3.0208 1.0677-5.5989 3.2031-7.7344 2.1354-2.1354 4.7135-3.2031 7.7344-3.2031 3.0208 0.00002 5.5989 1.0677 7.7344 3.2031 0.026 0.0261 0.0521 0.0521 0.0781 0.0781v-11.133"/>
<path id="path3127" style="" d="m244.94 346.08c-0.00002-2.1614-0.76174-4.0039-2.2852-5.5273-1.5234-1.5234-3.3659-2.2851-5.5273-2.2852-2.1615 0.00002-4.0039 0.76174-5.5274 2.2852-1.5234 1.5234-2.2852 3.3659-2.2852 5.5273-0.00001 2.1615 0.76171 4.0039 2.2852 5.5273 1.5234 1.5234 3.3659 2.2852 5.5274 2.2852 2.1614 0 4.0039-0.76171 5.5273-2.2852 1.5234-1.5234 2.2851-3.3659 2.2852-5.5273m0-18.789c-0.00002-0.42966 0.14971-0.79424 0.44921-1.0938 0.31248-0.31247 0.68358-0.46872 1.1133-0.46875 0.42966 0.00003 0.79424 0.15628 1.0938 0.46875 0.31247 0.29951 0.46872 0.66409 0.46875 1.0938v18.789c-0.00003 3.0208-1.0677 5.599-3.2031 7.7344s-4.7136 3.2031-7.7344 3.2031-5.599-1.0677-7.7344-3.2031-3.2031-4.7135-3.2031-7.7344c-0.00001-3.0208 1.0677-5.5989 3.2031-7.7344 2.1354-2.1354 4.7135-3.2031 7.7344-3.2031 3.0208 0.00002 5.5989 1.0677 7.7344 3.2031 0.026 0.0261 0.0521 0.0521 0.0781 0.0781v-11.133"/>
<path id="path3129" style="" d="m251.19 327.33c-0.00001-0.42966 0.14973-0.79424 0.44921-1.0938 0.3125-0.31247 0.6836-0.46872 1.1133-0.46875 0.42968 0.00003 0.79426 0.15628 1.0938 0.46875 0.31249 0.29951 0.46874 0.66409 0.46875 1.0938v26.562h1.5625c0.42968 0 0.79426 0.15625 1.0938 0.46875 0.31249 0.29948 0.46874 0.66407 0.46875 1.0938-0.00001 0.42969-0.15626 0.80078-0.46875 1.1133-0.29949 0.29948-0.66407 0.44922-1.0938 0.44922h-3.125c-0.42969 0-0.80079-0.14974-1.1133-0.44922-0.29948-0.3125-0.44922-0.68359-0.44921-1.1133v-28.125"/>
<path id="path3131" style="" d="m279.18 344.52c-0.28648-1.4974-1.0026-2.819-2.1484-3.9648-1.5234-1.5234-3.3659-2.2851-5.5273-2.2852-2.1615 0.00002-4.0039 0.76174-5.5274 2.2852-1.1458 1.1458-1.862 2.4675-2.1484 3.9648h15.352m-1.6602 7.1875c0.42967 0.00001 0.79425 0.15626 1.0938 0.46875 0.31248 0.29948 0.46873 0.66407 0.46875 1.0938-0.00002 0.42969-0.14976 0.80079-0.44922 1.1133-2.0182 1.7578-4.3945 2.6367-7.1289 2.6367-3.0208 0-5.599-1.0677-7.7344-3.2031s-3.2031-4.7135-3.2031-7.7344c-0.00001-3.0208 1.0677-5.5989 3.2031-7.7344 2.1354-2.1354 4.7135-3.2031 7.7344-3.2031 3.0208 0.00002 5.5989 1.0677 7.7344 3.2031 2.1354 2.1354 3.2031 4.7136 3.2031 7.7344-0.00003 0.4297-0.15628 0.80079-0.46875 1.1133-0.29951 0.29949-0.66409 0.44923-1.0938 0.44922h-17.051c0.28646 1.4974 1.0026 2.819 2.1484 3.9648 1.5234 1.5234 3.3659 2.2852 5.5274 2.2852 1.9531 0 3.6328-0.61848 5.0391-1.8555 0.28644-0.22135 0.61196-0.33202 0.97656-0.33203"/>
<path id="path3133" style="" d="m298.53 335.59c0.29946-0.29946 0.66404-0.4492 1.0938-0.44922 0.42967 0.00002 0.80076 0.14976 1.1133 0.44922 0.19529 0.20835 0.33201 0.44924 0.41015 0.72266l4.7266 14.199 4.8242-14.473c0.0781-0.15623 0.18878-0.30597 0.33204-0.44922 0.29945-0.29946 0.66403-0.4492 1.0938-0.44922 0.42965 0.00002 0.79424 0.15627 1.0938 0.46875 0.31247 0.2995 0.46872 0.66408 0.46875 1.0938-0.00003 0.20835-0.0391 0.41018-0.11719 0.60547l-6.2305 18.711c-0.0781 0.19531-0.19534 0.38411-0.35156 0.5664-0.31253 0.28646-0.68362 0.42969-1.1133 0.42969-0.42971 0-0.7943-0.14323-1.0938-0.42969-0.1693-0.18229-0.29299-0.37109-0.3711-0.5664l-4.7852-14.375-4.7852 14.375c-0.0781 0.19531-0.19532 0.38411-0.35156 0.5664-0.31251 0.28646-0.68361 0.42969-1.1133 0.42969-0.4297 0-0.79428-0.14323-1.0938-0.42969-0.16928-0.18229-0.29298-0.37109-0.3711-0.5664l-6.2305-18.711c-0.0781-0.19529-0.11719-0.39712-0.11718-0.60547-0.00001-0.42967 0.14973-0.79425 0.44921-1.0938 0.3125-0.31248 0.6836-0.46873 1.1133-0.46875 0.42968 0.00002 0.80077 0.14976 1.1133 0.44922 0.1302 0.14325 0.23437 0.29299 0.3125 0.44922l4.8242 14.473 4.7266-14.199c0.0911-0.27342 0.23436-0.51431 0.42969-0.72266"/>
<path id="path3135" style="" d="m327.75 338.27c-2.1615 0.00002-4.0039 0.76174-5.5274 2.2852-1.5234 1.5234-2.2852 3.3659-2.2852 5.5273-0.00001 2.1615 0.76171 4.0039 2.2852 5.5273 1.5234 1.5234 3.3659 2.2852 5.5274 2.2852 2.1614 0 4.0039-0.76171 5.5273-2.2852 1.5234-1.5234 2.2851-3.3659 2.2852-5.5273-0.00002-2.1614-0.76174-4.0039-2.2852-5.5273-1.5234-1.5234-3.3659-2.2851-5.5273-2.2852m7.8125 15.469c-2.1875 2.1875-4.7917 3.2812-7.8125 3.2812s-5.599-1.0677-7.7344-3.2031-3.2031-4.7135-3.2031-7.7344c-0.00001-3.0208 1.0677-5.5989 3.2031-7.7344 2.1354-2.1354 4.7135-3.2031 7.7344-3.2031 3.0208 0.00002 5.5989 1.0677 7.7344 3.2031 2.1354 2.1354 3.2031 4.7136 3.2031 7.7344v9.375c-0.00003 0.42969-0.15628 0.80078-0.46875 1.1133-0.29951 0.29948-0.66409 0.44922-1.0938 0.44922s-0.80081-0.14974-1.1133-0.44922c-0.2995-0.3125-0.44923-0.68359-0.44921-1.1133v-1.7188"/>
<path id="path3137" style="" d="m341.81 336.71c-0.00001-0.42967 0.14973-0.79425 0.44921-1.0938 0.3125-0.31248 0.6836-0.46873 1.1133-0.46875 0.42968 0.00002 0.79426 0.15627 1.0938 0.46875 0.31249 0.2995 0.46874 0.66408 0.46875 1.0938v1.7188c2.1875-2.1875 4.7916-3.2812 7.8125-3.2812 1.5234 0.00002 2.9232 0.26044 4.1992 0.78125 0.23436 0.0912 0.44921 0.22789 0.64454 0.41016 0.29946 0.31252 0.4492 0.68361 0.44921 1.1133-0.00001 0.42971-0.15626 0.8008-0.46875 1.1133-0.29949 0.2995-0.66407 0.44924-1.0938 0.44922-0.24741 0.00002-0.47527-0.0521-0.68359-0.15625-0.92449-0.39061-1.9401-0.58592-3.0469-0.58594-2.1615 0.00002-4.0039 0.76174-5.5274 2.2852-1.5234 1.5234-2.2852 3.3659-2.2852 5.5273v9.375c-0.00001 0.42969-0.15626 0.80078-0.46875 1.1133-0.29949 0.29948-0.66407 0.44922-1.0938 0.44922-0.42969 0-0.80079-0.14974-1.1133-0.44922-0.29948-0.3125-0.44922-0.68359-0.44921-1.1133v-18.75"/>
<path id="path3139" style="" d="m379.18 344.52c-0.28648-1.4974-1.0026-2.819-2.1484-3.9648-1.5234-1.5234-3.3659-2.2851-5.5273-2.2852-2.1615 0.00002-4.0039 0.76174-5.5274 2.2852-1.1458 1.1458-1.862 2.4675-2.1484 3.9648h15.352m-1.6602 7.1875c0.42967 0.00001 0.79425 0.15626 1.0938 0.46875 0.31248 0.29948 0.46873 0.66407 0.46875 1.0938-0.00002 0.42969-0.14976 0.80079-0.44922 1.1133-2.0182 1.7578-4.3945 2.6367-7.1289 2.6367-3.0208 0-5.599-1.0677-7.7344-3.2031s-3.2031-4.7135-3.2031-7.7344c-0.00001-3.0208 1.0677-5.5989 3.2031-7.7344 2.1354-2.1354 4.7135-3.2031 7.7344-3.2031 3.0208 0.00002 5.5989 1.0677 7.7344 3.2031 2.1354 2.1354 3.2031 4.7136 3.2031 7.7344-0.00003 0.4297-0.15628 0.80079-0.46875 1.1133-0.29951 0.29949-0.66409 0.44923-1.0938 0.44922h-17.051c0.28646 1.4974 1.0026 2.819 2.1484 3.9648 1.5234 1.5234 3.3659 2.2852 5.5274 2.2852 1.9531 0 3.6328-0.61848 5.0391-1.8555 0.28644-0.22135 0.61196-0.33202 0.97656-0.33203"/>
</g>
</g>
<g id="g3159">
<path id="rect2985-1" d="m130.11 212.01h279.66c11.08 0 20 8.92 20 20v10.872c0 11.08-8.92 20-20 20h-279.66c-11.08 0-20-8.92-20-20v-10.872c0-11.08 8.92-20 20-20z" stroke="#000" stroke-linecap="round" stroke-width="2" fill="#dedede"/>
<g id="text3835-99">
<path id="path3143" style="" d="m246.38 242.15c-0.00002-2.1614-0.76174-4.0039-2.2852-5.5273-1.5234-1.5234-3.3659-2.2851-5.5273-2.2852-2.1615 0.00002-4.0039 0.76174-5.5274 2.2852-1.5234 1.5234-2.2852 3.3659-2.2852 5.5273-0.00001 2.1615 0.76171 4.0039 2.2852 5.5274 1.5234 1.5234 3.3659 2.2852 5.5274 2.2852 2.1614 0.00001 4.0039-0.76171 5.5273-2.2852 1.5234-1.5234 2.2851-3.3659 2.2852-5.5274m0-18.789c-0.00002-0.42966 0.14972-0.79424 0.44922-1.0938 0.31248-0.31247 0.68357-0.46872 1.1133-0.46875 0.42966 0.00003 0.79425 0.15628 1.0938 0.46875 0.31247 0.29951 0.46872 0.66409 0.46875 1.0938v18.789c-0.00003 3.0208-1.0677 5.599-3.2031 7.7344s-4.7136 3.2031-7.7344 3.2031-5.599-1.0677-7.7344-3.2031-3.2031-4.7135-3.2031-7.7344c0-3.0208 1.0677-5.5989 3.2031-7.7344 2.1354-2.1354 4.7135-3.2031 7.7344-3.2031 3.0208 0.00003 5.5989 1.0677 7.7344 3.2031 0.026 0.0261 0.0521 0.0521 0.0781 0.0781v-11.133"/>
<path id="path3145" style="" d="m263.57 234.34c-2.1615 0.00002-4.0039 0.76174-5.5274 2.2852-1.5234 1.5234-2.2852 3.3659-2.2852 5.5273-0.00001 2.1615 0.76171 4.0039 2.2852 5.5274 1.5234 1.5234 3.3659 2.2852 5.5274 2.2852 2.1614 0.00001 4.0039-0.76171 5.5273-2.2852 1.5234-1.5234 2.2851-3.3659 2.2852-5.5274-0.00002-2.1614-0.76174-4.0039-2.2852-5.5273-1.5234-1.5234-3.3659-2.2851-5.5273-2.2852m7.8125 15.469c-2.1875 2.1875-4.7917 3.2812-7.8125 3.2812s-5.599-1.0677-7.7344-3.2031-3.2031-4.7135-3.2031-7.7344c0-3.0208 1.0677-5.5989 3.2031-7.7344 2.1354-2.1354 4.7135-3.2031 7.7344-3.2031 3.0208 0.00003 5.5989 1.0677 7.7344 3.2031 2.1354 2.1354 3.2031 4.7136 3.2031 7.7344v9.375c-0.00003 0.42969-0.15628 0.80079-0.46875 1.1133-0.2995 0.29948-0.66409 0.44922-1.0938 0.44922s-0.8008-0.14974-1.1133-0.44922c-0.2995-0.31249-0.44924-0.68359-0.44922-1.1133v-1.7188"/>
<path id="path3147" style="" d="m286.85 249.96c0.42967 0.00001 0.79426 0.15626 1.0938 0.46875 0.31248 0.29948 0.46873 0.66407 0.46875 1.0938-0.00002 0.42969-0.15627 0.80079-0.46875 1.1133-0.29949 0.29948-0.66408 0.44922-1.0938 0.44922-5.2083 0-7.8125-2.6042-7.8125-7.8125v-10.938h-1.5625c-0.42969 0.00002-0.80079-0.14972-1.1133-0.44922-0.29948-0.31248-0.44922-0.68357-0.44922-1.1133 0-0.42966 0.14974-0.79425 0.44922-1.0938 0.31249-0.31248 0.68359-0.46872 1.1133-0.46875h1.5625v-7.8125c-0.00001-0.42965 0.14973-0.79424 0.44922-1.0938 0.31249-0.31247 0.68358-0.46872 1.1133-0.46875 0.42968 0.00003 0.79426 0.15628 1.0938 0.46875 0.31249 0.29951 0.46874 0.6641 0.46875 1.0938v7.8125h3.1445c0.42968 0.00003 0.79426 0.15627 1.0938 0.46875 0.31249 0.2995 0.46874 0.66409 0.46875 1.0938-0.00001 0.42971-0.15626 0.8008-0.46875 1.1133-0.29949 0.2995-0.66407 0.44924-1.0938 0.44922h-3.1445v10.938c-0.00001 3.125 1.5625 4.6875 4.6875 4.6875"/>
<path id="path3149" style="" d="m301.31 234.34c-2.1615 0.00002-4.0039 0.76174-5.5273 2.2852-1.5234 1.5234-2.2852 3.3659-2.2852 5.5273 0 2.1615 0.76172 4.0039 2.2852 5.5274 1.5234 1.5234 3.3659 2.2852 5.5273 2.2852 2.1614 0.00001 4.0039-0.76171 5.5274-2.2852 1.5234-1.5234 2.2851-3.3659 2.2852-5.5274-0.00002-2.1614-0.76174-4.0039-2.2852-5.5273s-3.3659-2.2851-5.5274-2.2852m7.8125 15.469c-2.1875 2.1875-4.7917 3.2812-7.8125 3.2812s-5.599-1.0677-7.7344-3.2031-3.2031-4.7135-3.2031-7.7344c0-3.0208 1.0677-5.5989 3.2031-7.7344 2.1354-2.1354 4.7135-3.2031 7.7344-3.2031 3.0208 0.00003 5.5989 1.0677 7.7344 3.2031 2.1354 2.1354 3.2031 4.7136 3.2031 7.7344v9.375c-0.00002 0.42969-0.15627 0.80079-0.46875 1.1133-0.2995 0.29948-0.66408 0.44922-1.0938 0.44922-0.42971 0-0.8008-0.14974-1.1133-0.44922-0.2995-0.31249-0.44924-0.68359-0.44922-1.1133v-1.7188"/>
</g>
</g>
<g id="g3154">
<path id="rect2985" d="m130.11 160.04h279.66c11.08 0 20 8.92 20 20v10.872c0 11.08-8.92 20-20 20h-279.66c-11.08 0-20-8.92-20-20v-10.872c0-11.08 8.92-20 20-20z" stroke="#000" stroke-linecap="round" stroke-width="2" fill="#dedede"/>
<g id="text3835-5">
<path id="path3153" style="" d="m176.27 181.09c-2.1615 0.00001-4.0039 0.76173-5.5273 2.2852-1.5234 1.5234-2.2852 3.3659-2.2852 5.5274s0.76171 4.0039 2.2852 5.5273c1.5234 1.5234 3.3659 2.2852 5.5273 2.2852s4.0039-0.76172 5.5273-2.2852c1.5234-1.5234 2.2851-3.3659 2.2852-5.5273-0.00002-2.1614-0.76174-4.0039-2.2852-5.5274-1.5234-1.5234-3.3659-2.2851-5.5273-2.2852m7.8125 15.469c-2.1875 2.1875-4.7917 3.2812-7.8125 3.2812s-5.599-1.0677-7.7344-3.2031-3.2031-4.7135-3.2031-7.7344c0-3.0208 1.0677-5.599 3.2031-7.7344s4.7135-3.2031 7.7344-3.2031c3.0208 0.00002 5.5989 1.0677 7.7344 3.2031 2.1354 2.1354 3.2031 4.7136 3.2031 7.7344v9.375c-0.00002 0.42968-0.15627 0.80078-0.46875 1.1133-0.2995 0.29948-0.66408 0.44922-1.0938 0.44922-0.42971 0-0.8008-0.14974-1.1133-0.44922-0.2995-0.3125-0.44924-0.6836-0.44922-1.1133v-1.7188"/>
<path id="path3155" style="" d="m193.45 188.9c0 2.1615 0.76171 4.0039 2.2852 5.5273 1.5234 1.5234 3.3659 2.2852 5.5273 2.2852s4.0039-0.76172 5.5273-2.2852c1.5234-1.5234 2.2851-3.3659 2.2852-5.5273-0.00002-2.1614-0.76174-4.0039-2.2852-5.5274-1.5234-1.5234-3.3659-2.2851-5.5273-2.2852-2.1615 0.00001-4.0039 0.76173-5.5273 2.2852-1.5234 1.5234-2.2852 3.3659-2.2852 5.5274m0 18.75c0 0.42968-0.15625 0.79426-0.46875 1.0938-0.29948 0.31249-0.66407 0.46874-1.0938 0.46875-0.42969-0.00001-0.80078-0.15626-1.1133-0.46875-0.29948-0.29949-0.44922-0.66407-0.44922-1.0938v-18.75c0-3.0208 1.0677-5.599 3.2031-7.7344s4.7135-3.2031 7.7344-3.2031c3.0208 0.00002 5.5989 1.0677 7.7344 3.2031 2.1354 2.1354 3.2031 4.7136 3.2031 7.7344-0.00002 3.0208-1.0677 5.599-3.2031 7.7344s-4.7136 3.2031-7.7344 3.2031-5.599-1.0677-7.7344-3.2031l-0.0781-0.0781v11.094"/>
<path id="path3157" style="" d="m218.45 188.9c0 2.1615 0.76171 4.0039 2.2852 5.5273 1.5234 1.5234 3.3659 2.2852 5.5273 2.2852s4.0039-0.76172 5.5273-2.2852c1.5234-1.5234 2.2851-3.3659 2.2852-5.5273-0.00002-2.1614-0.76174-4.0039-2.2852-5.5274-1.5234-1.5234-3.3659-2.2851-5.5273-2.2852-2.1615 0.00001-4.0039 0.76173-5.5273 2.2852-1.5234 1.5234-2.2852 3.3659-2.2852 5.5274m0 18.75c0 0.42968-0.15625 0.79426-0.46875 1.0938-0.29948 0.31249-0.66407 0.46874-1.0938 0.46875-0.42969-0.00001-0.80078-0.15626-1.1133-0.46875-0.29948-0.29949-0.44922-0.66407-0.44922-1.0938v-18.75c0-3.0208 1.0677-5.599 3.2031-7.7344s4.7135-3.2031 7.7344-3.2031c3.0208 0.00002 5.5989 1.0677 7.7344 3.2031 2.1354 2.1354 3.2031 4.7136 3.2031 7.7344-0.00002 3.0208-1.0677 5.599-3.2031 7.7344s-4.7136 3.2031-7.7344 3.2031-5.599-1.0677-7.7344-3.2031l-0.0781-0.0781v11.094"/>
<path id="path3159" style="" d="m240.33 170.15c0-0.42966 0.14974-0.79424 0.44922-1.0938 0.3125-0.31247 0.68359-0.46872 1.1133-0.46875 0.42968 0.00003 0.79427 0.15628 1.0938 0.46875 0.3125 0.29951 0.46875 0.66409 0.46875 1.0938v26.562h1.5625c0.42968 0 0.79426 0.15625 1.0938 0.46875 0.31249 0.29948 0.46874 0.66406 0.46875 1.0938-0.00001 0.42968-0.15626 0.80078-0.46875 1.1133-0.29949 0.29948-0.66407 0.44922-1.0938 0.44922h-3.125c-0.42969 0-0.80078-0.14974-1.1133-0.44922-0.29948-0.3125-0.44922-0.6836-0.44922-1.1133v-28.125"/>
<path id="path3161" style="" d="m254.78 173.28c-0.00001 0.53388-0.19532 0.99612-0.58594 1.3867-0.37761 0.37763-0.83334 0.56644-1.3672 0.56641-0.53386 0.00003-0.9961-0.18878-1.3867-0.56641-0.37761-0.39059-0.56641-0.85283-0.5664-1.3867-0.00001-0.53383 0.18879-0.98956 0.5664-1.3672 0.39062-0.3906 0.85286-0.58591 1.3867-0.58594 0.53385 0.00003 0.98958 0.19534 1.3672 0.58594 0.39062 0.37763 0.58593 0.83336 0.58594 1.3672m-3.5156 6.25c0-0.42967 0.14974-0.79425 0.44922-1.0938 0.3125-0.31248 0.68359-0.46873 1.1133-0.46875 0.42968 0.00002 0.79427 0.15627 1.0938 0.46875 0.31249 0.2995 0.46874 0.66408 0.46875 1.0938v18.75c-0.00001 0.42968-0.15626 0.80078-0.46875 1.1133-0.29948 0.29948-0.66407 0.44922-1.0938 0.44922-0.42969 0-0.80078-0.14974-1.1133-0.44922-0.29948-0.3125-0.44922-0.6836-0.44922-1.1133v-18.75"/>
<path id="path3163" style="" d="m276.07 194.49c0.42967 0.00001 0.79425 0.15626 1.0938 0.46875 0.31248 0.29949 0.46873 0.66407 0.46875 1.0938-0.00002 0.42969-0.16278 0.81381-0.48828 1.1524-2.0182 1.7578-4.3946 2.6367-7.1289 2.6367-3.0208 0-5.599-1.0677-7.7344-3.2031s-3.2031-4.7135-3.2031-7.7344c0-3.0208 1.0677-5.599 3.2031-7.7344s4.7135-3.2031 7.7344-3.2031c2.7344 0.00002 5.1107 0.87892 7.1289 2.6367 0.36456 0.32554 0.54685 0.72919 0.54687 1.2109-0.00002 0.42971-0.15627 0.8008-0.46875 1.1133-0.2995 0.2995-0.66408 0.44924-1.0938 0.44922-0.37762 0.00002-0.70965-0.11717-0.99609-0.35156-1.4584-1.289-3.1641-1.9336-5.1172-1.9336-2.1615 0.00001-4.0039 0.76173-5.5273 2.2852-1.5234 1.5234-2.2852 3.3659-2.2852 5.5274s0.76171 4.0039 2.2852 5.5273c1.5234 1.5234 3.3659 2.2852 5.5273 2.2852 1.9531 0 3.6523-0.63802 5.0977-1.9141 0.27342-0.20832 0.59243-0.31249 0.95703-0.3125"/>
<path id="path3165" style="" d="m291.89 181.09c-2.1615 0.00001-4.0039 0.76173-5.5273 2.2852-1.5234 1.5234-2.2852 3.3659-2.2852 5.5274s0.76171 4.0039 2.2852 5.5273c1.5234 1.5234 3.3659 2.2852 5.5273 2.2852s4.0039-0.76172 5.5273-2.2852c1.5234-1.5234 2.2851-3.3659 2.2852-5.5273-0.00002-2.1614-0.76174-4.0039-2.2852-5.5274-1.5234-1.5234-3.3659-2.2851-5.5273-2.2852m7.8125 15.469c-2.1875 2.1875-4.7917 3.2812-7.8125 3.2812s-5.599-1.0677-7.7344-3.2031-3.2031-4.7135-3.2031-7.7344c0-3.0208 1.0677-5.599 3.2031-7.7344s4.7135-3.2031 7.7344-3.2031c3.0208 0.00002 5.5989 1.0677 7.7344 3.2031 2.1354 2.1354 3.2031 4.7136 3.2031 7.7344v9.375c-0.00002 0.42968-0.15627 0.80078-0.46875 1.1133-0.2995 0.29948-0.66408 0.44922-1.0938 0.44922-0.42971 0-0.8008-0.14974-1.1133-0.44922-0.2995-0.3125-0.44924-0.6836-0.44922-1.1133v-1.7188"/>
<path id="path3167" style="" d="m315.17 196.72c0.42968 0 0.79426 0.15625 1.0938 0.46875 0.31249 0.29948 0.46874 0.66406 0.46875 1.0938-0.00001 0.42968-0.15626 0.80078-0.46875 1.1133-0.29949 0.29948-0.66407 0.44922-1.0938 0.44922-5.2083 0-7.8125-2.6042-7.8125-7.8125v-10.938h-1.5625c-0.42969 0.00001-0.80078-0.14972-1.1133-0.44922-0.29948-0.31248-0.44922-0.68358-0.44922-1.1133 0-0.42967 0.14974-0.79425 0.44922-1.0938 0.3125-0.31248 0.68359-0.46873 1.1133-0.46875h1.5625v-7.8125c0-0.42966 0.14974-0.79424 0.44922-1.0938 0.31249-0.31247 0.68359-0.46872 1.1133-0.46875 0.42968 0.00003 0.79426 0.15628 1.0938 0.46875 0.31249 0.29951 0.46874 0.66409 0.46875 1.0938v7.8125h3.1445c0.42968 0.00002 0.79426 0.15627 1.0938 0.46875 0.31249 0.2995 0.46874 0.66408 0.46875 1.0938-0.00001 0.4297-0.15626 0.8008-0.46875 1.1133-0.29949 0.2995-0.66407 0.44923-1.0938 0.44922h-3.1445v10.938c-0.00001 3.125 1.5625 4.6875 4.6875 4.6875"/>
<path id="path3169" style="" d="m324.94 173.28c-0.00001 0.53388-0.19532 0.99612-0.58594 1.3867-0.37761 0.37763-0.83334 0.56644-1.3672 0.56641-0.53386 0.00003-0.9961-0.18878-1.3867-0.56641-0.37761-0.39059-0.56641-0.85283-0.5664-1.3867-0.00001-0.53383 0.18879-0.98956 0.5664-1.3672 0.39062-0.3906 0.85286-0.58591 1.3867-0.58594 0.53385 0.00003 0.98958 0.19534 1.3672 0.58594 0.39062 0.37763 0.58593 0.83336 0.58594 1.3672m-3.5156 6.25c0-0.42967 0.14974-0.79425 0.44922-1.0938 0.3125-0.31248 0.68359-0.46873 1.1133-0.46875 0.42968 0.00002 0.79427 0.15627 1.0938 0.46875 0.31249 0.2995 0.46874 0.66408 0.46875 1.0938v18.75c-0.00001 0.42968-0.15626 0.80078-0.46875 1.1133-0.29948 0.29948-0.66407 0.44922-1.0938 0.44922-0.42969 0-0.80078-0.14974-1.1133-0.44922-0.29948-0.3125-0.44922-0.6836-0.44922-1.1133v-18.75"/>
<path id="path3171" style="" d="m351.11 188.9c-0.00002 3.0208-1.0677 5.599-3.2031 7.7344s-4.7136 3.2031-7.7344 3.2031-5.599-1.0677-7.7344-3.2031-3.2031-4.7135-3.2031-7.7344c0-3.0208 1.0677-5.599 3.2031-7.7344s4.7135-3.2031 7.7344-3.2031c3.0208 0.00002 5.5989 1.0677 7.7344 3.2031 2.1354 2.1354 3.2031 4.7136 3.2031 7.7344m-10.938-7.8125c-2.1615 0.00001-4.0039 0.76173-5.5273 2.2852-1.5234 1.5234-2.2852 3.3659-2.2852 5.5274s0.76171 4.0039 2.2852 5.5273c1.5234 1.5234 3.3659 2.2852 5.5273 2.2852s4.0039-0.76172 5.5273-2.2852c1.5234-1.5234 2.2851-3.3659 2.2852-5.5273-0.00002-2.1614-0.76174-4.0039-2.2852-5.5274-1.5234-1.5234-3.3659-2.2851-5.5273-2.2852"/>
<path id="path3173" style="" d="m354.24 179.53c0-0.42967 0.14974-0.79425 0.44922-1.0938 0.3125-0.31248 0.68359-0.46873 1.1133-0.46875 0.42968 0.00002 0.79427 0.15627 1.0938 0.46875 0.3125 0.2995 0.46875 0.66408 0.46875 1.0938v1.2695c1.9531-1.888 4.2969-2.832 7.0312-2.832 2.7995 0.00002 5.1888 0.99611 7.168 2.9883 1.9922 1.9792 2.9883 4.3685 2.9883 7.168v10.156c-0.00002 0.42968-0.15627 0.80078-0.46875 1.1133-0.2995 0.29948-0.66408 0.44922-1.0938 0.44922-0.42971 0-0.8008-0.14974-1.1133-0.44922-0.2995-0.3125-0.44924-0.6836-0.44922-1.1133v-10.156c-0.00002-1.9401-0.69012-3.5937-2.0703-4.9609-1.3672-1.3802-3.0208-2.0703-4.9609-2.0703-1.9401 0.00001-3.6003 0.69012-4.9805 2.0703-1.3672 1.3672-2.0508 3.0208-2.0508 4.9609v10.156c0 0.42968-0.15625 0.80078-0.46875 1.1133-0.29948 0.29948-0.66407 0.44922-1.0938 0.44922-0.42969 0-0.80078-0.14974-1.1133-0.44922-0.29948-0.3125-0.44922-0.6836-0.44922-1.1133v-18.75"/>
</g>
</g>
<g id="g3164">
<path id="rect2985-2" d="m130.11 263.97h279.66c11.08 0 20 8.92 20 20v10.872c0 11.08-8.92 20-20 20h-279.66c-11.08 0-20-8.92-20-20v-10.872c0-11.08 8.92-20 20-20z" stroke="#000" stroke-linecap="round" stroke-width="2" fill="#dedede"/>
<g id="text3835-8">
<path id="path3177" style="" d="m197.2 284.72c0-0.42967 0.14974-0.79425 0.44922-1.0938 0.3125-0.31248 0.68359-0.46873 1.1133-0.46875 0.42968 0.00002 0.79427 0.15627 1.0938 0.46875 0.3125 0.2995 0.46875 0.66408 0.46875 1.0938v1.7188c2.1875-2.1875 4.7917-3.2812 7.8125-3.2812 1.5234 0.00002 2.9232 0.26043 4.1992 0.78125 0.23436 0.0912 0.4492 0.22788 0.64453 0.41015 0.29946 0.31252 0.4492 0.68362 0.44922 1.1133-0.00002 0.42971-0.15627 0.8008-0.46875 1.1133-0.2995 0.2995-0.66408 0.44924-1.0938 0.44922-0.24741 0.00002-0.47528-0.0521-0.68359-0.15625-0.9245-0.3906-1.9401-0.58592-3.0469-0.58593-2.1615 0.00001-4.0039 0.76173-5.5273 2.2852-1.5234 1.5234-2.2852 3.3659-2.2852 5.5274v9.375c0 0.42968-0.15625 0.80078-0.46875 1.1133-0.29948 0.29948-0.66407 0.44922-1.0938 0.44922-0.42969 0-0.80078-0.14974-1.1133-0.44922-0.29948-0.3125-0.44922-0.6836-0.44922-1.1133v-18.75"/>
<path id="path3179" style="" d="m236.27 303.47c-0.00002 0.42968-0.15627 0.80078-0.46875 1.1133-0.2995 0.29948-0.66408 0.44922-1.0938 0.44922-0.42971 0-0.8008-0.14974-1.1133-0.44922-0.2995-0.3125-0.44924-0.6836-0.44922-1.1133v-1.2695c-1.9531 1.888-4.2969 2.832-7.0312 2.832-2.7995 0-5.1953-0.98959-7.1875-2.9688-1.9792-1.9922-2.9688-4.388-2.9688-7.1875v-10.156c0-0.42967 0.14974-0.79425 0.44922-1.0938 0.3125-0.31248 0.68359-0.46873 1.1133-0.46875 0.42968 0.00002 0.79427 0.15627 1.0938 0.46875 0.3125 0.2995 0.46875 0.66408 0.46875 1.0938v10.156c0 1.9401 0.68359 3.6003 2.0508 4.9805 1.3802 1.3672 3.0404 2.0508 4.9805 2.0508s3.5937-0.68359 4.9609-2.0508c1.3802-1.3802 2.0703-3.0404 2.0703-4.9805v-10.156c-0.00002-0.42967 0.14972-0.79425 0.44922-1.0938 0.31248-0.31248 0.68357-0.46873 1.1133-0.46875 0.42967 0.00002 0.79425 0.15627 1.0938 0.46875 0.31248 0.2995 0.46873 0.66408 0.46875 1.0938v18.75"/>
<path id="path3181" style="" d="m239.39 284.72c0-0.42967 0.14974-0.79425 0.44922-1.0938 0.3125-0.31248 0.68359-0.46873 1.1133-0.46875 0.42968 0.00002 0.79427 0.15627 1.0938 0.46875 0.3125 0.2995 0.46875 0.66408 0.46875 1.0938v1.2695c1.9531-1.888 4.2969-2.832 7.0312-2.832 2.7995 0.00002 5.1888 0.99611 7.168 2.9883 1.9922 1.9792 2.9883 4.3685 2.9883 7.168v10.156c-0.00002 0.42968-0.15627 0.80078-0.46875 1.1133-0.2995 0.29948-0.66408 0.44922-1.0938 0.44922-0.42971 0-0.8008-0.14974-1.1133-0.44922-0.2995-0.3125-0.44924-0.6836-0.44922-1.1133v-10.156c-0.00002-1.9401-0.69012-3.5937-2.0703-4.9609-1.3672-1.3802-3.0208-2.0703-4.9609-2.0703-1.9401 0.00001-3.6003 0.69012-4.9805 2.0703-1.3672 1.3672-2.0508 3.0208-2.0508 4.9609v10.156c0 0.42968-0.15625 0.80078-0.46875 1.1133-0.29948 0.29948-0.66407 0.44922-1.0938 0.44922-0.42969 0-0.80078-0.14974-1.1133-0.44922-0.29948-0.3125-0.44922-0.6836-0.44922-1.1133v-18.75"/>
<path id="path3183" style="" d="m272.36 301.91c0.42968 0 0.79426 0.15625 1.0938 0.46875 0.31249 0.29948 0.46874 0.66406 0.46875 1.0938-0.00001 0.42968-0.15626 0.80078-0.46875 1.1133-0.29949 0.29948-0.66407 0.44922-1.0938 0.44922-5.2083 0-7.8125-2.6042-7.8125-7.8125v-10.938h-1.5625c-0.42969 0.00001-0.80078-0.14972-1.1133-0.44922-0.29948-0.31248-0.44922-0.68358-0.44922-1.1133 0-0.42967 0.14974-0.79425 0.44922-1.0938 0.3125-0.31248 0.68359-0.46873 1.1133-0.46875h1.5625v-7.8125c0-0.42966 0.14974-0.79424 0.44922-1.0938 0.31249-0.31247 0.68359-0.46872 1.1133-0.46875 0.42968 0.00003 0.79426 0.15628 1.0938 0.46875 0.31249 0.29951 0.46874 0.66409 0.46875 1.0938v7.8125h3.1445c0.42968 0.00002 0.79426 0.15627 1.0938 0.46875 0.31249 0.2995 0.46874 0.66408 0.46875 1.0938-0.00001 0.4297-0.15626 0.8008-0.46875 1.1133-0.29949 0.2995-0.66407 0.44923-1.0938 0.44922h-3.1445v10.938c-0.00001 3.125 1.5625 4.6875 4.6875 4.6875"/>
<path id="path3185" style="" d="m282.13 278.47c-0.00001 0.53388-0.19532 0.99612-0.58594 1.3867-0.37761 0.37763-0.83334 0.56644-1.3672 0.56641-0.53386 0.00003-0.9961-0.18878-1.3867-0.56641-0.37761-0.39059-0.56641-0.85283-0.5664-1.3867-0.00001-0.53383 0.18879-0.98956 0.5664-1.3672 0.39062-0.3906 0.85286-0.58591 1.3867-0.58594 0.53385 0.00003 0.98958 0.19534 1.3672 0.58594 0.39062 0.37763 0.58593 0.83336 0.58594 1.3672m-3.5156 6.25c0-0.42967 0.14974-0.79425 0.44922-1.0938 0.3125-0.31248 0.68359-0.46873 1.1133-0.46875 0.42968 0.00002 0.79427 0.15627 1.0938 0.46875 0.31249 0.2995 0.46874 0.66408 0.46875 1.0938v18.75c-0.00001 0.42968-0.15626 0.80078-0.46875 1.1133-0.29948 0.29948-0.66407 0.44922-1.0938 0.44922-0.42969 0-0.80078-0.14974-1.1133-0.44922-0.29948-0.3125-0.44922-0.6836-0.44922-1.1133v-18.75"/>
<path id="path3187" style="" d="m289.55 303.47c0 0.42968-0.15625 0.80078-0.46875 1.1133-0.29948 0.29948-0.66407 0.44922-1.0938 0.44922-0.42969 0-0.80078-0.14974-1.1133-0.44922-0.29948-0.3125-0.44922-0.6836-0.44922-1.1133v-18.75c0-0.42967 0.14974-0.79425 0.44922-1.0938 0.3125-0.31248 0.68359-0.46873 1.1133-0.46875 0.42968 0.00002 0.79427 0.15627 1.0938 0.46875 0.3125 0.2995 0.46875 0.66408 0.46875 1.0938v0.41015c1.5495-1.3151 3.3724-1.9726 5.4688-1.9726 2.3698 0.00002 4.3945 0.83986 6.0742 2.5195 0.35155 0.35158 0.67056 0.72267 0.95703 1.1133 0.28644-0.39061 0.60545-0.7617 0.95703-1.1133 1.6797-1.6797 3.7044-2.5195 6.0742-2.5195 2.3698 0.00002 4.3945 0.83986 6.0742 2.5195 1.6796 1.6797 2.5195 3.7044 2.5195 6.0742v11.719c-0.00003 0.42968-0.15628 0.80078-0.46875 1.1133-0.29951 0.29948-0.66409 0.44922-1.0938 0.44922-0.42972 0-0.80081-0.14974-1.1133-0.44922-0.29951-0.3125-0.44925-0.6836-0.44922-1.1133v-11.719c-0.00003-1.5104-0.53388-2.7995-1.6016-3.8672s-2.3568-1.6016-3.8672-1.6016c-1.5104 0.00001-2.7995 0.53387-3.8672 1.6016s-1.6016 2.3568-1.6016 3.8672v11.719c-0.00002 0.42968-0.15627 0.80078-0.46875 1.1133-0.2995 0.29948-0.66408 0.44922-1.0938 0.44922-0.4297 0-0.8008-0.14974-1.1133-0.44922-0.2995-0.3125-0.44924-0.6836-0.44922-1.1133v-11.719c-0.00002-1.5104-0.53387-2.7995-1.6016-3.8672s-2.3568-1.6016-3.8672-1.6016c-1.5104 0.00001-2.7995 0.53387-3.8672 1.6016s-1.6016 2.3568-1.6016 3.8672v11.719"/>
<path id="path3189" style="" d="m339.41 292.53c-0.28648-1.4974-1.0026-2.819-2.1484-3.9648-1.5234-1.5234-3.3659-2.2851-5.5273-2.2852-2.1615 0.00001-4.0039 0.76173-5.5273 2.2852-1.1458 1.1458-1.862 2.4675-2.1484 3.9648h15.352m-1.6602 7.1875c0.42966 0 0.79425 0.15625 1.0938 0.46875 0.31248 0.29948 0.46873 0.66406 0.46875 1.0938-0.00002 0.42969-0.14976 0.80078-0.44922 1.1133-2.0182 1.7578-4.3946 2.6367-7.1289 2.6367-3.0208 0-5.599-1.0677-7.7344-3.2031s-3.2031-4.7135-3.2031-7.7344c0-3.0208 1.0677-5.599 3.2031-7.7344s4.7135-3.2031 7.7344-3.2031c3.0208 0.00002 5.5989 1.0677 7.7344 3.2031 2.1354 2.1354 3.2031 4.7136 3.2031 7.7344-0.00002 0.42969-0.15627 0.80079-0.46875 1.1133-0.2995 0.29949-0.66408 0.44923-1.0938 0.44922h-17.051c0.28645 1.4974 1.0026 2.819 2.1484 3.9648 1.5234 1.5234 3.3659 2.2852 5.5273 2.2852 1.9531 0 3.6328-0.61849 5.0391-1.8555 0.28644-0.22135 0.61196-0.33203 0.97657-0.33203"/>
</g>
</g>
</g>
</g>
</svg>
