<?xml version="1.0" encoding="UTF-8" standalone="no"?>
<!-- Created with Inkscape (http://www.inkscape.org/) -->
<svg id="svg2" xmlns:rdf="http://www.w3.org/1999/02/22-rdf-syntax-ns#" xmlns="http://www.w3.org/2000/svg" height="572.98" width="369.39" version="1.1" xmlns:cc="http://creativecommons.org/ns#" xmlns:dc="http://purl.org/dc/elements/1.1/">
<metadata id="metadata7">
<rdf:RDF>
<cc:Work rdf:about="">
<dc:format>image/svg+xml</dc:format>
<dc:type rdf:resource="http://purl.org/dc/dcmitype/StillImage"/>
<dc:title/>
</cc:Work>
</rdf:RDF>
</metadata>
<g id="layer3" transform="translate(0 -101.76)">
<path id="rect2985-6-7-4-8-5-3" d="m264.53 102.76h83.853c11.08 0 20 8.92 20 20v530.88c0 11.08-8.92 20-20 20h-83.853c-11.08 0-20-8.92-20-20v-530.88c0-11.08 8.92-20 20-20z" stroke="#000" stroke-linecap="round" stroke-width="2" fill="#3c6eb4"/>
<path id="rect2985-6-7-4-87" d="m278.33 571.21h64.792c11.08 0 20 8.92 20 20v62.482c0 11.08-8.92 20-20 20h-64.792c-11.08 0-20-8.92-20-20v-62.482c0-11.08 8.92-20 20-20z" stroke="#000" stroke-linecap="round" stroke-width="2" fill="#db3279"/>
<g id="text3370" transform="matrix(0 1 -1 0 -1.7398 .24836)">
<path id="path3291" d="m603.72-354.27v6.9336h-2.7148c-0.00002-1.2239-0.58596-2.207-1.7578-2.9492-1.1589-0.75518-2.2656-1.1653-3.3203-1.2305-1.875-0.0781-3.3854 0.29951-4.5312 1.1328-1.1458 0.82033-1.8164 1.7383-2.0117 2.7539-0.22136 1.1328 0.10416 2.0899 0.97656 2.8711 0.70312 0.62501 1.5039 0.99611 2.4024 1.1133 0.91145 0.1172 1.875 0.21486 2.8906 0.29297 1.0156 0.0781 2.1549 0.25392 3.418 0.52734 1.276 0.26043 2.4023 0.85939 3.3789 1.7969 1.4844 1.4193 2.2005 3.1771 2.1484 5.2734-0.0391 1.9401-0.81382 3.7435-2.3242 5.4102-1.4974 1.6536-3.6393 2.5521-6.4258 2.6953-1.4063 0.0521-2.7084-0.11719-3.9062-0.50781-0.98959-0.32552-1.8425-0.77474-2.5586-1.3477v1.875h-2.793v-6.9531h2.832c0.16927 1.0156 0.56641 1.8359 1.1914 2.4609 0.625 0.625 1.3607 1.0742 2.207 1.3476 0.89843 0.29948 1.8555 0.41667 2.8711 0.35156 1.901-0.0911 3.3854-0.67708 4.4531-1.7578s1.6406-2.2461 1.7188-3.4961c0.013-0.65103-0.0912-1.263-0.3125-1.8359-0.24741-0.61197-0.62501-1.1458-1.1328-1.6016-0.80731-0.70311-1.6927-1.1263-2.6562-1.2695-0.95053-0.15624-1.9271-0.27343-2.9297-0.35157-1.0156-0.0651-2.1419-0.21483-3.3789-0.44921-1.224-0.24739-2.2852-0.8203-3.1836-1.7188-1.2891-1.276-1.8424-2.8711-1.6602-4.7852 0.19532-1.7318 1.1068-3.2942 2.7344-4.6875 1.6276-1.3932 3.8607-2.0247 6.6992-1.8945 1.901 0.0912 3.5351 0.59898 4.9023 1.5234v-1.5234h2.7734"/>
<path id="path3293" d="m606.82-344.76h8.3398v2.793h-2.9102l2.793 8.4961 3.6914-11.289h2.0117l3.6914 11.289 2.793-8.4961h-2.9102v-2.793h8.3398v2.793h-2.5195l-4.6875 14.336h-2.0117l-3.6914-11.289-3.7109 11.289h-2.0117l-4.707-14.336h-2.5v-2.793"/>
<path id="path3295" d="m643.29-330.4v2.7734h-8.8867v-2.7734h3.1445l6.5039-21.113h-3.3398v-2.7734h12.461v2.7734h-3.3203l6.4844 21.113h3.1641v2.7734h-8.9062v-2.7734h2.8516l-2.3047-7.4805h-8.3984l-2.2852 7.4805h2.832m3.6719-21.113h-0.0195l-3.3398 10.859h6.6797l-3.3203-10.859"/>
</g>
<g id="text3370-1-5" transform="rotate(90)">
<path id="path3250" d="m153.78-327.01v-2.7734h2.7734v-21.113h-2.7734v-2.7734h8.3398v2.7734h-2.793v21.113h2.793v2.7734h-8.3398"/>
<path id="path3252" d="m178.66-329.79v-8.8672c-0.00002-0.80728-0.32554-1.4713-0.97656-1.9922-0.69012-0.53384-1.6016-0.79425-2.7344-0.78125-1.25 0.0261-2.3112 0.38413-3.1836 1.0742-0.76824 0.59897-1.224 1.3607-1.3672 2.2852v8.2812h2.793v2.7734h-8.3398v-2.7734h2.7734v-11.562h-2.7734v-2.793h5.5469v2.4219c0.0911-0.0911 0.22786-0.24088 0.41016-0.44922 0.55988-0.55988 1.2239-1.0351 1.9922-1.4258 0.76822-0.39061 1.6016-0.58593 2.5-0.58594 1.7448 0.00001 3.1966 0.49481 4.3555 1.4844 1.1849 1.0417 1.7773 2.3893 1.7774 4.043v8.8672h3.0273v2.7734h-8.3203v-2.7734h2.5195"/>
<path id="path3254" d="m186.08-344.14h2.7734v-5.3125c0-1.1588 0.41666-2.1549 1.25-2.9883 0.82031-0.82029 1.8099-1.2304 2.9688-1.2305h1.3477v2.7734h-1.3477c-0.41667 0.00002-0.75521 0.14325-1.0156 0.42969-0.28647 0.27346-0.4297 0.612-0.42969 1.0156v5.3125h2.793v2.793h-2.793v11.562h2.793v2.7734h-8.3398v-2.7734h2.7734v-11.562h-2.7734v-2.793"/>
<path id="path3256" d="m205.32-344.14c2.3698 0.00002 4.388 0.83986 6.0547 2.5195 1.6666 1.6537 2.5 3.6719 2.5 6.0547-0.00002 2.3698-0.83335 4.388-2.5 6.0547-1.6667 1.6667-3.6849 2.5-6.0547 2.5-2.3568 0-4.375-0.83334-6.0547-2.5-1.6667-1.6797-2.5-3.6979-2.5-6.0547 0-2.3698 0.83333-4.388 2.5-6.0547 1.6797-1.6797 3.6979-2.5195 6.0547-2.5195m4.1016 4.4727c-1.1458-1.1198-2.513-1.6797-4.1016-1.6797-1.6016 0.00001-2.9622 0.55991-4.082 1.6797-1.1328 1.1328-1.6992 2.5-1.6992 4.1016 0 1.5886 0.56641 2.9492 1.6992 4.082 1.1068 1.1328 2.4674 1.6992 4.082 1.6992 1.6016 0 2.9687-0.5664 4.1016-1.6992 1.1198-1.1328 1.6797-2.4935 1.6797-4.082-0.00001-1.5885-0.55991-2.9557-1.6797-4.1016"/>
<path id="path3258" d="m227.94-341.33c-0.40366-0.0781-0.80079-0.11066-1.1914-0.0977-1.25 0.0261-2.3112 0.38413-3.1836 1.0742-0.76824 0.59897-1.224 1.3607-1.3672 2.2852v8.2812h2.793v2.7734h-8.3398v-2.7734h2.7734v-11.562h-2.7734v-2.793h5.5469v2.4219c0.0911-0.0911 0.22786-0.24088 0.41016-0.44922 0.55989-0.55988 1.224-1.0351 1.9922-1.4258 0.76822-0.39061 1.6016-0.58593 2.5-0.58594 0.1953 0.00001 0.47525 0.013 0.83984 0.0391v2.8125"/>
<path id="path3260" d="m242.8-329.79v-8.8672c-0.026-0.97655-0.28647-1.6862-0.78125-2.1289-0.46876-0.40364-1.1524-0.59895-2.0508-0.58594-1.211 0.026-2.1615 0.37762-2.8516 1.0547-0.54688 0.52084-0.88542 1.224-1.0156 2.1094v8.418h2.793v2.7734h-8.3398v-2.7734h2.7734v-11.562h-2.7734v-2.793h5.5469v2.1289c0.0651-0.0651 0.12369-0.1302 0.17579-0.19532 0.0651-0.0781 0.13671-0.14972 0.21484-0.21484 1.1979-1.1328 2.474-1.6992 3.8281-1.6992 1.6667 0.00002 2.9557 0.47528 3.8672 1.4258 0.36457 0.37762 0.66405 0.83986 0.89844 1.3867 0.31248-0.44269 0.62498-0.81379 0.9375-1.1133 1.1719-1.1328 2.4414-1.6992 3.8086-1.6992 1.6666 0.00002 2.9557 0.47528 3.8672 1.4258 0.92445 0.95054 1.3867 2.2982 1.3867 4.043v8.8672h2.793v2.7734h-8.3398v-2.7734h2.7734v-8.8672c-0.00002-0.96353-0.25393-1.6732-0.76172-2.1289-0.46877-0.40364-1.1524-0.59895-2.0508-0.58594-1.224 0.026-2.1745 0.37762-2.8516 1.0547-0.71616 0.70313-1.0742 1.6797-1.0742 2.9297v7.5977h2.7734v2.7734h-8.3203v-2.7734h2.7734"/>
<path id="path3262" d="m268.81-344.14c2.2135 0.00002 4.1406 0.75522 5.7812 2.2656v-2.2656h5.5664v2.793h-2.793v11.562h2.793v2.7734h-5.5664v-2.2461c-1.6537 1.4974-3.5807 2.2461-5.7812 2.2461-2.3568 0-4.375-0.83334-6.0547-2.5-1.6667-1.6797-2.5-3.6979-2.5-6.0547 0-2.3698 0.83333-4.388 2.5-6.0547 1.6797-1.6797 3.6979-2.5195 6.0547-2.5195m4.1016 4.4727c-1.1458-1.1198-2.513-1.6797-4.1016-1.6797-1.6016 0.00001-2.9622 0.55991-4.082 1.6797-1.1328 1.1328-1.6992 2.5-1.6992 4.1016-0.00001 1.5886 0.5664 2.9492 1.6992 4.082 1.1068 1.1328 2.4674 1.6992 4.082 1.6992 1.6016 0 2.9687-0.5664 4.1016-1.6992 1.1198-1.1328 1.6797-2.4935 1.6797-4.082-0.00002-1.5885-0.55991-2.9557-1.6797-4.1016"/>
<path id="path3264" d="m282.62-344.14h2.7734v-5.3125h2.7734v5.3125h2.793v2.793h-2.793v11.562h2.793v2.7734h-8.3398v-2.7734h2.7734v-11.562h-2.7734v-2.793"/>
<path id="path3266" d="m292.56-329.79h2.7734v-11.562h-2.7734v-2.793h5.5469v14.355h2.793v2.7734h-8.3398v-2.7734m5.5469-22.5v5.8789h-2.7734v-5.8789h2.7734"/>
<path id="path3268" d="m311.26-344.14c2.3698 0.00002 4.388 0.83986 6.0547 2.5195 1.6666 1.6537 2.5 3.6719 2.5 6.0547-0.00002 2.3698-0.83335 4.388-2.5 6.0547-1.6667 1.6667-3.6849 2.5-6.0547 2.5-2.3568 0-4.375-0.83334-6.0547-2.5-1.6667-1.6797-2.5-3.6979-2.5-6.0547 0-2.3698 0.83333-4.388 2.5-6.0547 1.6797-1.6797 3.6979-2.5195 6.0547-2.5195m4.1016 4.4727c-1.1458-1.1198-2.513-1.6797-4.1016-1.6797-1.6016 0.00001-2.9622 0.55991-4.082 1.6797-1.1328 1.1328-1.6992 2.5-1.6992 4.1016 0 1.5886 0.56641 2.9492 1.6992 4.082 1.1068 1.1328 2.4674 1.6992 4.082 1.6992 1.6016 0 2.9687-0.5664 4.1016-1.6992 1.1198-1.1328 1.6797-2.4935 1.6797-4.082-0.00001-1.5885-0.55991-2.9557-1.6797-4.1016"/>
<path id="path3270" d="m336.39-329.79v-8.8672c-0.00001-0.80728-0.32553-1.4713-0.97656-1.9922-0.69012-0.53384-1.6016-0.79425-2.7344-0.78125-1.25 0.0261-2.3112 0.38413-3.1836 1.0742-0.76824 0.59897-1.224 1.3607-1.3672 2.2852v8.2812h2.793v2.7734h-8.3398v-2.7734h2.7734v-11.562h-2.7734v-2.793h5.5469v2.4219c0.0911-0.0911 0.22786-0.24088 0.41016-0.44922 0.55989-0.55988 1.224-1.0351 1.9922-1.4258 0.76822-0.39061 1.6016-0.58593 2.5-0.58594 1.7448 0.00001 3.1966 0.49481 4.3555 1.4844 1.1849 1.0417 1.7773 2.3893 1.7773 4.043v8.8672h3.0273v2.7734h-8.3203v-2.7734h2.5195"/>
<path id="path3272" d="m369.64-329.79v2.7734h-8.8867v-2.7734h3.1445l6.5039-21.113h-3.3398v-2.7734h12.461v2.7734h-3.3203l6.4844 21.113h3.1641v2.7734h-8.9062v-2.7734h2.8516l-2.3047-7.4805h-8.3984l-2.2852 7.4805h2.832m3.6719-21.113h-0.0195l-3.3398 10.859h6.6797l-3.3203-10.859"/>
<path id="path3274" d="m390.85-332.48c-0.00001 0.88542 0.55338 1.5625 1.6602 2.0312 1.0026 0.44271 2.3438 0.66406 4.0234 0.66406 0.96353 0 1.8424-0.0586 2.6367-0.17578 0.79426-0.11719 1.4844-0.33203 2.0703-0.64453 0.92447-0.48177 1.3867-1.1003 1.3867-1.8555-0.0261-0.85937-0.37762-1.4518-1.0547-1.7774-0.48178-0.22134-1.1263-0.36457-1.9336-0.42968-0.8073-0.0781-1.8229-0.11067-3.0469-0.0977-1.0938 0.026-2.0182 0.007-2.7734-0.0586-0.75522-0.0781-1.4974-0.24739-2.2266-0.50782-1.9662-0.70311-2.9492-2.0508-2.9492-4.043-0.00001-1.5234 0.89192-2.7278 2.6758-3.6133 1.4844-0.75519 3.138-1.1328 4.9609-1.1328 0.8203 0.00002 1.6732 0.0716 2.5586 0.21485 0.89842 0.14324 1.7448 0.38413 2.5391 0.72265 0.16926 0.0781 0.35806 0.16929 0.56641 0.27344v-1.2305h2.7734v5.4883h-2.7734c-0.00002-0.5729-0.14976-0.98957-0.44922-1.25-0.28647-0.2604-0.69012-0.5078-1.2109-0.74219-1.1328-0.48175-2.4675-0.71613-4.0039-0.70312-1.3672 0.00001-2.6172 0.27996-3.75 0.83984-0.7422 0.37762-1.1133 0.78127-1.1133 1.2109 0 0.63803 0.37109 1.0872 1.1133 1.3477 0.54686 0.19532 1.1198 0.31902 1.7188 0.37109 0.59895 0.0521 1.3672 0.0651 2.3047 0.0391 1.4193-0.013 2.6237 0.0326 3.6133 0.13672 1.0026 0.10418 1.8555 0.31251 2.5586 0.625 1.7448 0.82032 2.6302 2.2461 2.6562 4.2774v0.0195c-0.00002 1.888-0.95054 3.3268-2.8516 4.3164-0.74221 0.39063-1.6081 0.6836-2.5977 0.87891-0.97658 0.18229-2.0768 0.27344-3.3008 0.27344-0.97657 0-1.9727-0.0716-2.9883-0.21485-1.0026-0.15625-1.9336-0.46875-2.793-0.9375v1.1524h-2.7734v-5.4688h2.7734"/>
<path id="path3276" d="m410.53-332.48c-0.00001 0.88542 0.55338 1.5625 1.6602 2.0312 1.0026 0.44271 2.3438 0.66406 4.0234 0.66406 0.96353 0 1.8424-0.0586 2.6367-0.17578 0.79426-0.11719 1.4844-0.33203 2.0703-0.64453 0.92447-0.48177 1.3867-1.1003 1.3867-1.8555-0.0261-0.85937-0.37762-1.4518-1.0547-1.7774-0.48178-0.22134-1.1263-0.36457-1.9336-0.42968-0.8073-0.0781-1.8229-0.11067-3.0469-0.0977-1.0938 0.026-2.0182 0.007-2.7734-0.0586-0.75522-0.0781-1.4974-0.24739-2.2266-0.50782-1.9662-0.70311-2.9492-2.0508-2.9492-4.043-0.00001-1.5234 0.89192-2.7278 2.6758-3.6133 1.4844-0.75519 3.138-1.1328 4.9609-1.1328 0.8203 0.00002 1.6732 0.0716 2.5586 0.21485 0.89842 0.14324 1.7448 0.38413 2.5391 0.72265 0.16926 0.0781 0.35806 0.16929 0.56641 0.27344v-1.2305h2.7734v5.4883h-2.7734c-0.00002-0.5729-0.14976-0.98957-0.44922-1.25-0.28647-0.2604-0.69012-0.5078-1.2109-0.74219-1.1328-0.48175-2.4675-0.71613-4.0039-0.70312-1.3672 0.00001-2.6172 0.27996-3.75 0.83984-0.7422 0.37762-1.1133 0.78127-1.1133 1.2109 0 0.63803 0.37109 1.0872 1.1133 1.3477 0.54686 0.19532 1.1198 0.31902 1.7188 0.37109 0.59895 0.0521 1.3672 0.0651 2.3047 0.0391 1.4193-0.013 2.6237 0.0326 3.6133 0.13672 1.0026 0.10418 1.8555 0.31251 2.5586 0.625 1.7448 0.82032 2.6302 2.2461 2.6562 4.2774v0.0195c-0.00002 1.888-0.95054 3.3268-2.8516 4.3164-0.74221 0.39063-1.6081 0.6836-2.5977 0.87891-0.97658 0.18229-2.0768 0.27344-3.3008 0.27344-0.97657 0-1.9727-0.0716-2.9883-0.21485-1.0026-0.15625-1.9336-0.46875-2.793-0.9375v1.1524h-2.7734v-5.4688h2.7734"/>
<path id="path3278" d="m432.82-332.48c0.013 0.83333 0.34505 1.4974 0.9961 1.9922 0.69009 0.54688 1.595 0.80079 2.7148 0.76172 1.237-0.013 2.2982-0.37109 3.1836-1.0742 0.75519-0.58593 1.2109-1.3411 1.3672-2.2656v-8.2812h-2.7734v-2.793h5.5469v14.355h2.7734v2.7734h-5.5469v-2.4219c-0.0651 0.0781-0.13673 0.15625-0.21484 0.23438-0.0651 0.0651-0.13022 0.13672-0.19531 0.21484-0.57293 0.57292-1.2435 1.0482-2.0117 1.4258-0.75522 0.37761-1.5755 0.56641-2.4609 0.56641-1.7969 0-3.2487-0.48828-4.3555-1.4648-1.1979-1.0286-1.7969-2.3698-1.7969-4.0234v-8.8672h-3.0274v-2.793h5.8008v11.66"/>
<path id="path3280" d="m460.75-341.33c-0.40366-0.0781-0.80079-0.11066-1.1914-0.0977-1.25 0.0261-2.3112 0.38413-3.1836 1.0742-0.76824 0.59897-1.224 1.3607-1.3672 2.2852v8.2812h2.793v2.7734h-8.3398v-2.7734h2.7734v-11.562h-2.7734v-2.793h5.5469v2.4219c0.0911-0.0911 0.22786-0.24088 0.41016-0.44922 0.55989-0.55988 1.224-1.0351 1.9922-1.4258 0.76822-0.39061 1.6016-0.58593 2.5-0.58594 0.1953 0.00001 0.47525 0.013 0.83984 0.0391v2.8125"/>
<path id="path3282" d="m471.47-344.14c2.2135 0.00002 4.1406 0.75522 5.7812 2.2656v-2.2656h5.5664v2.793h-2.793v11.562h2.793v2.7734h-5.5664v-2.2461c-1.6537 1.4974-3.5807 2.2461-5.7812 2.2461-2.3568 0-4.375-0.83334-6.0547-2.5-1.6667-1.6797-2.5-3.6979-2.5-6.0547 0-2.3698 0.83333-4.388 2.5-6.0547 1.6797-1.6797 3.6979-2.5195 6.0547-2.5195m4.1016 4.4727c-1.1458-1.1198-2.513-1.6797-4.1016-1.6797-1.6016 0.00001-2.9622 0.55991-4.082 1.6797-1.1328 1.1328-1.6992 2.5-1.6992 4.1016-0.00001 1.5886 0.5664 2.9492 1.6992 4.082 1.1068 1.1328 2.4674 1.6992 4.082 1.6992 1.6016 0 2.9687-0.5664 4.1016-1.6992 1.1198-1.1328 1.6797-2.4935 1.6797-4.082-0.00002-1.5885-0.55991-2.9557-1.6797-4.1016"/>
<path id="path3284" d="m499.91-329.79v-8.8672c-0.00002-0.80728-0.32554-1.4713-0.97656-1.9922-0.69012-0.53384-1.6016-0.79425-2.7344-0.78125-1.25 0.0261-2.3112 0.38413-3.1836 1.0742-0.76824 0.59897-1.224 1.3607-1.3672 2.2852v8.2812h2.793v2.7734h-8.3398v-2.7734h2.7734v-11.562h-2.7734v-2.793h5.5469v2.4219c0.0911-0.0911 0.22786-0.24088 0.41016-0.44922 0.55988-0.55988 1.2239-1.0351 1.9922-1.4258 0.76822-0.39061 1.6016-0.58593 2.5-0.58594 1.7448 0.00001 3.1966 0.49481 4.3555 1.4844 1.1849 1.0417 1.7773 2.3893 1.7774 4.043v8.8672h3.0273v2.7734h-8.3203v-2.7734h2.5195"/>
<path id="path3286" d="m523.03-329.63c-1.7318 1.7318-3.8477 2.5977-6.3477 2.5977-2.5912 0-4.7201-0.82683-6.3867-2.4805-1.6667-1.6667-2.5-3.6849-2.5-6.0547s0.83333-4.388 2.5-6.0547c1.6797-1.6797 3.6979-2.5195 6.0547-2.5195 1.276 0.00002 2.5065 0.27996 3.6914 0.83984v-0.83984h2.7734v5.0391h-2.3633c-0.27345-0.8203-0.83334-1.3997-1.6797-1.7383-0.83335-0.33853-1.6406-0.5078-2.4219-0.50781-1.6016 0.00001-2.9622 0.55991-4.082 1.6797-1.1328 1.1589-1.6992 2.526-1.6992 4.1016 0 1.5886 0.5664 2.9492 1.6992 4.082 1.1198 1.1198 2.5911 1.6797 4.4141 1.6797 0.78124 0 1.6211-0.16276 2.5195-0.48828 0.91145-0.32552 1.6471-0.76172 2.207-1.3086l1.6211 1.9727"/>
<path id="path3288" d="m534.07-344.14c2.3698 0.00002 4.388 0.83986 6.0547 2.5195 1.6666 1.6537 2.5 3.6719 2.5 6.0547-0.00002 0.42969-0.0326 0.89193-0.0977 1.3867h-14.062c0.24739 1.0677 0.7552 1.9662 1.5234 2.6953 1.1068 1.1328 2.4674 1.6992 4.082 1.6992 1.6016 0 2.9687-0.5664 4.1016-1.6992 0.23436-0.23437 0.46873-0.52083 0.70312-0.85937h3.125c-0.44272 1.0807-1.0677 2.0247-1.875 2.832-1.6667 1.6667-3.6849 2.5-6.0547 2.5-2.3568 0-4.375-0.83334-6.0547-2.5-1.6667-1.6797-2.5-3.6979-2.5-6.0547 0-2.3698 0.83333-4.388 2.5-6.0547 1.6797-1.6797 3.6979-2.5195 6.0547-2.5195m-5.6055 7.168h11.23c-0.24741-1.0026-0.75522-1.901-1.5234-2.6953-1.1458-1.1198-2.513-1.6797-4.1016-1.6797-1.6016 0.00001-2.9622 0.55991-4.082 1.6797-0.76823 0.76824-1.276 1.6667-1.5234 2.6953"/>
</g>
</g>
<g id="layer2" transform="translate(-1.7398 -101.51)">
<g id="g3194" transform="translate(-107.37 -420.41)">
<path id="rect2985-6-7" d="m130.11 575.78h279.66c11.08 0 20 8.92 20 20v10.872c0 11.08-8.92 20-20 20h-279.66c-11.08 0-20-8.92-20-20v-10.872c0-11.08 8.92-20 20-20z" stroke="#000" stroke-linecap="round" stroke-width="2" fill="#dedede"/>
<g id="text3835">
<path id="path3235" style="" d="m191.89 596.52c0-0.42967 0.14974-0.79425 0.44922-1.0938 0.3125-0.31248 0.68359-0.46873 1.1133-0.46875 0.42968 0.00002 0.79427 0.15627 1.0938 0.46875 0.3125 0.2995 0.46875 0.66408 0.46875 1.0938v1.2695c1.9531-1.888 4.2969-2.832 7.0312-2.832 2.7995 0.00002 5.1888 0.99612 7.168 2.9883 1.9922 1.9792 2.9883 4.3685 2.9883 7.168v10.156c-0.00002 0.42969-0.15627 0.80078-0.46875 1.1133-0.2995 0.29948-0.66408 0.44922-1.0938 0.44922-0.42971 0-0.8008-0.14974-1.1133-0.44922-0.2995-0.3125-0.44924-0.68359-0.44922-1.1133v-10.156c-0.00002-1.9401-0.69012-3.5937-2.0703-4.9609-1.3672-1.3802-3.0208-2.0703-4.9609-2.0703-1.9401 0.00002-3.6003 0.69012-4.9805 2.0703-1.3672 1.3672-2.0508 3.0208-2.0508 4.9609v10.156c0 0.42969-0.15625 0.80078-0.46875 1.1133-0.29948 0.29948-0.66407 0.44922-1.0938 0.44922-0.42969 0-0.80078-0.14974-1.1133-0.44922-0.29948-0.3125-0.44922-0.68359-0.44922-1.1133v-18.75"/>
<path id="path3237" style="" d="m233.94 604.34c-0.28648-1.4974-1.0026-2.819-2.1484-3.9648-1.5234-1.5234-3.3659-2.2851-5.5273-2.2852-2.1615 0.00002-4.0039 0.76174-5.5273 2.2852-1.1458 1.1458-1.862 2.4675-2.1484 3.9648h15.352m-1.6602 7.1875c0.42966 0.00001 0.79425 0.15626 1.0938 0.46875 0.31248 0.29949 0.46873 0.66407 0.46875 1.0938-0.00002 0.42969-0.14976 0.80079-0.44922 1.1133-2.0182 1.7578-4.3946 2.6367-7.1289 2.6367-3.0208 0-5.599-1.0677-7.7344-3.2031s-3.2031-4.7135-3.2031-7.7344c0-3.0208 1.0677-5.5989 3.2031-7.7344 2.1354-2.1354 4.7135-3.2031 7.7344-3.2031 3.0208 0.00002 5.5989 1.0677 7.7344 3.2031 2.1354 2.1354 3.2031 4.7136 3.2031 7.7344-0.00002 0.4297-0.15627 0.80079-0.46875 1.1133-0.2995 0.29949-0.66408 0.44923-1.0938 0.44922h-17.051c0.28645 1.4974 1.0026 2.819 2.1484 3.9648 1.5234 1.5234 3.3659 2.2852 5.5273 2.2852 1.9531 0 3.6328-0.61848 5.0391-1.8555 0.28644-0.22135 0.61196-0.33202 0.97657-0.33203"/>
<path id="path3239" style="" d="m249.55 613.71c0.42968 0 0.79426 0.15625 1.0938 0.46875 0.31249 0.29948 0.46874 0.66407 0.46875 1.0938-0.00001 0.42969-0.15626 0.80078-0.46875 1.1133-0.29949 0.29948-0.66407 0.44922-1.0938 0.44922-5.2083 0-7.8125-2.6042-7.8125-7.8125v-10.938h-1.5625c-0.42969 0.00002-0.80078-0.14972-1.1133-0.44922-0.29948-0.31248-0.44922-0.68357-0.44922-1.1133 0-0.42967 0.14974-0.79425 0.44922-1.0938 0.3125-0.31248 0.68359-0.46873 1.1133-0.46875h1.5625v-7.8125c0-0.42966 0.14974-0.79424 0.44922-1.0938 0.31249-0.31247 0.68359-0.46872 1.1133-0.46875 0.42968 0.00003 0.79426 0.15628 1.0938 0.46875 0.31249 0.29951 0.46874 0.66409 0.46875 1.0938v7.8125h3.1445c0.42968 0.00002 0.79426 0.15627 1.0938 0.46875 0.31249 0.2995 0.46874 0.66408 0.46875 1.0938-0.00001 0.42971-0.15626 0.8008-0.46875 1.1133-0.29949 0.2995-0.66407 0.44924-1.0938 0.44922h-3.1445v10.938c-0.00001 3.125 1.5625 4.6875 4.6875 4.6875"/>
<path id="path3241" style="" d="m267.2 595.41c0.29946-0.29946 0.66405-0.4492 1.0938-0.44922 0.42967 0.00002 0.80077 0.14976 1.1133 0.44922 0.1953 0.20835 0.33202 0.44924 0.41016 0.72266l4.7266 14.199 4.8242-14.473c0.0781-0.15623 0.18877-0.30597 0.33203-0.44922 0.29945-0.29946 0.66404-0.4492 1.0938-0.44922 0.42966 0.00002 0.79424 0.15627 1.0938 0.46875 0.31247 0.2995 0.46872 0.66408 0.46875 1.0938-0.00003 0.20835-0.0391 0.41018-0.11719 0.60547l-6.2305 18.711c-0.0781 0.19531-0.19533 0.38411-0.35156 0.5664-0.31252 0.28646-0.68361 0.42969-1.1133 0.42969-0.42971 0-0.79429-0.14323-1.0938-0.42969-0.16929-0.18229-0.29299-0.37109-0.37109-0.5664l-4.7852-14.375-4.7852 14.375c-0.0781 0.19531-0.19532 0.38411-0.35156 0.5664-0.31251 0.28646-0.6836 0.42969-1.1133 0.42969s-0.79428-0.14323-1.0938-0.42969c-0.16928-0.18229-0.29298-0.37109-0.37109-0.5664l-6.2305-18.711c-0.0781-0.19529-0.11719-0.39712-0.11719-0.60547 0-0.42967 0.14974-0.79425 0.44922-1.0938 0.3125-0.31248 0.68359-0.46873 1.1133-0.46875 0.42968 0.00002 0.80078 0.14976 1.1133 0.44922 0.13021 0.14325 0.23437 0.29299 0.3125 0.44922l4.8242 14.473 4.7266-14.199c0.0911-0.27342 0.23436-0.51431 0.42969-0.72266"/>
<path id="path3243" style="" d="m307.36 605.9c-0.00002 3.0208-1.0677 5.599-3.2031 7.7344s-4.7136 3.2031-7.7344 3.2031-5.599-1.0677-7.7344-3.2031-3.2031-4.7135-3.2031-7.7344c0-3.0208 1.0677-5.5989 3.2031-7.7344 2.1354-2.1354 4.7135-3.2031 7.7344-3.2031 3.0208 0.00002 5.5989 1.0677 7.7344 3.2031 2.1354 2.1354 3.2031 4.7136 3.2031 7.7344m-10.938-7.8125c-2.1615 0.00002-4.0039 0.76174-5.5273 2.2852-1.5234 1.5234-2.2852 3.3659-2.2852 5.5273 0 2.1615 0.76171 4.0039 2.2852 5.5274 1.5234 1.5234 3.3659 2.2852 5.5273 2.2852s4.0039-0.76171 5.5273-2.2852c1.5234-1.5234 2.2851-3.3659 2.2852-5.5274-0.00002-2.1614-0.76174-4.0039-2.2852-5.5273-1.5234-1.5234-3.3659-2.2851-5.5273-2.2852"/>
<path id="path3245" style="" d="m310.49 596.52c0-0.42967 0.14974-0.79425 0.44922-1.0938 0.3125-0.31248 0.68359-0.46873 1.1133-0.46875 0.42968 0.00002 0.79427 0.15627 1.0938 0.46875 0.3125 0.2995 0.46875 0.66408 0.46875 1.0938v1.7188c2.1875-2.1875 4.7917-3.2812 7.8125-3.2812 1.5234 0.00002 2.9232 0.26044 4.1992 0.78125 0.23436 0.0912 0.4492 0.22789 0.64453 0.41016 0.29946 0.31252 0.4492 0.68361 0.44922 1.1133-0.00002 0.42971-0.15627 0.8008-0.46875 1.1133-0.2995 0.2995-0.66408 0.44924-1.0938 0.44922-0.24741 0.00002-0.47528-0.0521-0.68359-0.15625-0.9245-0.39061-1.9401-0.58592-3.0469-0.58594-2.1615 0.00002-4.0039 0.76174-5.5273 2.2852-1.5234 1.5234-2.2852 3.3659-2.2852 5.5273v9.375c0 0.42969-0.15625 0.80078-0.46875 1.1133-0.29948 0.29948-0.66407 0.44922-1.0938 0.44922-0.42969 0-0.80078-0.14974-1.1133-0.44922-0.29948-0.3125-0.44922-0.68359-0.44922-1.1133v-18.75"/>
<path id="path3247" style="" d="m332.36 603.79 13.223-8.5938c0.24737-0.15623 0.52732-0.23436 0.83984-0.23438 0.42967 0.00002 0.79425 0.15627 1.0938 0.46875 0.31248 0.2995 0.46873 0.66408 0.46875 1.0938-0.00002 0.42971-0.14976 0.79429-0.44922 1.0938-0.0781 0.0781-0.14976 0.14325-0.21484 0.19531l-9.0625 5.8984 9.2969 10.469c0.28644 0.3125 0.42967 0.67709 0.42969 1.0938-0.00002 0.42969-0.15627 0.80078-0.46875 1.1133-0.2995 0.29948-0.66408 0.44922-1.0938 0.44922-0.42971 0-0.80731-0.15625-1.1328-0.46875l-9.707-10.938-3.2227 2.0898v7.7539c0 0.42969-0.15625 0.80078-0.46875 1.1133-0.29948 0.29948-0.66407 0.44922-1.0938 0.44922-0.42969 0-0.80078-0.14974-1.1133-0.44922-0.29948-0.3125-0.44922-0.68359-0.44922-1.1133v-28.125c0-0.42966 0.14974-0.79424 0.44922-1.0938 0.3125-0.31247 0.68359-0.46872 1.1133-0.46875 0.42968 0.00003 0.79427 0.15628 1.0938 0.46875 0.3125 0.29951 0.46875 0.66409 0.46875 1.0938v16.641"/>
</g>
</g>
<g id="g3189" transform="translate(-107.37 -316.57)">
<path id="rect2985-6-4" d="m130.11 523.81h279.66c11.08 0 20 8.92 20 20v10.872c0 11.08-8.92 20-20 20h-279.66c-11.08 0-20-8.92-20-20v-10.872c0-11.08 8.92-20 20-20z" stroke="#000" stroke-linecap="round" stroke-width="2" fill="#dedede"/>
<g id="text3835-9">
<path id="path3219" style="" d="m198.42 553.25c-1.1849-0.4427-2.0117-0.90494-2.4805-1.3867-0.92448-0.91145-1.3867-2.0117-1.3867-3.3008 0-1.289 0.48177-2.4154 1.4453-3.3789 1.875-1.914 4.3229-2.8711 7.3438-2.8711 3.2682 0.00002 6.0677 1.3086 8.3984 3.9258 0.20831 0.24741 0.30597 0.5534 0.29297 0.91797-0.00002 0.4297-0.15627 0.80079-0.46875 1.1133-0.2995 0.29949-0.66408 0.44923-1.0938 0.44922-0.42971 0.00001-0.77476-0.13671-1.0352-0.41016-0.26043-0.27342-0.44923-0.46873-0.5664-0.58594-1.5235-1.5234-3.3659-2.2851-5.5274-2.2852-2.1615 0.00001-3.8867 0.6771-5.1758 2.0312-0.3125 0.37762-0.46875 0.82683-0.46875 1.3476 0.0391 0.612 0.35807 1.0287 0.95703 1.25l9.6094 3.1836c1.1849 0.44271 2.0117 0.90495 2.4805 1.3867 0.92446 0.91147 1.3867 2.0117 1.3867 3.3008-0.00002 1.2891-0.48179 2.4154-1.4453 3.3789-1.875 1.9141-4.3229 2.8711-7.3438 2.8711-3.2812 0-6.0807-1.3086-8.3984-3.9258-0.19532-0.27343-0.29297-0.57942-0.29297-0.91796 0-0.42969 0.14973-0.79427 0.44922-1.0938 0.31249-0.3125 0.68359-0.46875 1.1133-0.46875 0.42968 0 0.77473 0.13672 1.0352 0.41015 0.26042 0.27345 0.44922 0.46876 0.56641 0.58594 1.5234 1.5234 3.3659 2.2852 5.5273 2.2852s3.8867-0.67708 5.1758-2.0312c0.31249-0.3776 0.46874-0.82682 0.46875-1.3477-0.0391-0.61197-0.35808-1.0286-0.95703-1.25l-9.6094-3.1836"/>
<path id="path3221" style="" d="m226.19 561.06c0.42967 0 0.79425 0.15625 1.0938 0.46875 0.31248 0.29948 0.46873 0.66406 0.46875 1.0938-0.00002 0.42968-0.15627 0.80078-0.46875 1.1133-0.2995 0.29948-0.66408 0.44922-1.0938 0.44922-5.2084 0-7.8125-2.6042-7.8125-7.8125v-10.938h-1.5625c-0.42969 0.00001-0.80079-0.14972-1.1133-0.44922-0.29948-0.31248-0.44922-0.68358-0.44921-1.1133-0.00001-0.42967 0.14973-0.79425 0.44921-1.0938 0.3125-0.31248 0.6836-0.46873 1.1133-0.46875h1.5625v-7.8125c-0.00001-0.42966 0.14973-0.79424 0.44921-1.0938 0.3125-0.31247 0.68359-0.46872 1.1133-0.46875 0.42968 0.00003 0.79426 0.15628 1.0938 0.46875 0.31249 0.29951 0.46874 0.66409 0.46875 1.0938v7.8125h3.1445c0.42967 0.00002 0.79426 0.15627 1.0938 0.46875 0.31248 0.2995 0.46873 0.66408 0.46875 1.0938-0.00002 0.4297-0.15627 0.8008-0.46875 1.1133-0.29949 0.2995-0.66408 0.44923-1.0938 0.44922h-3.1445v10.938c-0.00001 3.125 1.5625 4.6875 4.6875 4.6875"/>
<path id="path3223" style="" d="m251.58 553.25c-0.00002 3.0208-1.0677 5.599-3.2031 7.7344s-4.7136 3.2031-7.7344 3.2031-5.599-1.0677-7.7344-3.2031-3.2031-4.7135-3.2031-7.7344c0-3.0208 1.0677-5.599 3.2031-7.7344s4.7135-3.2031 7.7344-3.2031c3.0208 0.00002 5.5989 1.0677 7.7344 3.2031 2.1354 2.1354 3.2031 4.7136 3.2031 7.7344m-10.938-7.8125c-2.1615 0.00001-4.0039 0.76173-5.5273 2.2852-1.5234 1.5234-2.2852 3.3659-2.2852 5.5274s0.76171 4.0039 2.2852 5.5273c1.5234 1.5234 3.3659 2.2852 5.5273 2.2852s4.0039-0.76172 5.5273-2.2852c1.5234-1.5234 2.2851-3.3659 2.2852-5.5273-0.00002-2.1614-0.76174-4.0039-2.2852-5.5274-1.5234-1.5234-3.3659-2.2851-5.5273-2.2852"/>
<path id="path3225" style="" d="m254.7 543.87c0-0.42967 0.14974-0.79425 0.44922-1.0938 0.3125-0.31248 0.68359-0.46873 1.1133-0.46875 0.42968 0.00002 0.79427 0.15627 1.0938 0.46875 0.3125 0.2995 0.46875 0.66408 0.46875 1.0938v1.7188c2.1875-2.1875 4.7917-3.2812 7.8125-3.2812 1.5234 0.00002 2.9232 0.26043 4.1992 0.78125 0.23436 0.0912 0.4492 0.22788 0.64453 0.41015 0.29946 0.31252 0.4492 0.68362 0.44922 1.1133-0.00002 0.42971-0.15627 0.8008-0.46875 1.1133-0.2995 0.2995-0.66408 0.44924-1.0938 0.44922-0.24741 0.00002-0.47528-0.0521-0.68359-0.15625-0.9245-0.3906-1.9401-0.58592-3.0469-0.58593-2.1615 0.00001-4.0039 0.76173-5.5273 2.2852-1.5234 1.5234-2.2852 3.3659-2.2852 5.5274v9.375c0 0.42968-0.15625 0.80078-0.46875 1.1133-0.29948 0.29948-0.66407 0.44922-1.0938 0.44922-0.42969 0-0.80078-0.14974-1.1133-0.44922-0.29948-0.3125-0.44922-0.6836-0.44922-1.1133v-18.75"/>
<path id="path3227" style="" d="m284.39 545.43c-2.1615 0.00001-4.0039 0.76173-5.5273 2.2852-1.5234 1.5234-2.2852 3.3659-2.2852 5.5274s0.76171 4.0039 2.2852 5.5273c1.5234 1.5234 3.3659 2.2852 5.5273 2.2852s4.0039-0.76172 5.5273-2.2852c1.5234-1.5234 2.2851-3.3659 2.2852-5.5273-0.00002-2.1614-0.76174-4.0039-2.2852-5.5274-1.5234-1.5234-3.3659-2.2851-5.5273-2.2852m7.8125 15.469c-2.1875 2.1875-4.7917 3.2812-7.8125 3.2812s-5.599-1.0677-7.7344-3.2031-3.2031-4.7135-3.2031-7.7344c0-3.0208 1.0677-5.599 3.2031-7.7344s4.7135-3.2031 7.7344-3.2031c3.0208 0.00002 5.5989 1.0677 7.7344 3.2031 2.1354 2.1354 3.2031 4.7136 3.2031 7.7344v9.375c-0.00002 0.42968-0.15627 0.80078-0.46875 1.1133-0.2995 0.29948-0.66408 0.44922-1.0938 0.44922-0.42971 0-0.8008-0.14974-1.1133-0.44922-0.2995-0.3125-0.44924-0.6836-0.44922-1.1133v-1.7188"/>
<path id="path3229" style="" d="m309.39 545.43c-2.1615 0.00001-4.0039 0.76173-5.5273 2.2852-1.5234 1.5234-2.2852 3.3659-2.2852 5.5274s0.76171 4.0039 2.2852 5.5273c1.5234 1.5234 3.3659 2.2852 5.5273 2.2852s4.0039-0.76172 5.5273-2.2852c1.5234-1.5234 2.2851-3.3659 2.2852-5.5273-0.00002-2.1614-0.76174-4.0039-2.2852-5.5274-1.5234-1.5234-3.3659-2.2851-5.5273-2.2852m7.8125 15.469c-0.0261 0.026-0.0521 0.0521-0.0781 0.0781-2.1354 2.1354-4.7136 3.2031-7.7344 3.2031s-5.599-1.0677-7.7344-3.2031-3.2031-4.7135-3.2031-7.7344c0-3.0208 1.0677-5.599 3.2031-7.7344s4.7135-3.2031 7.7344-3.2031c3.0208 0.00002 5.5989 1.0677 7.7344 3.2031 2.1354 2.1354 3.2031 4.7136 3.2031 7.7344v10.938c-0.00002 2.2786-0.82033 4.2578-2.4609 5.9375-2.2917 2.2916-5.0586 3.4375-8.3008 3.4375-3.2422-0.00001-6.0026-1.1458-8.2812-3.4375-0.84636-0.83334-1.5365-1.7383-2.0703-2.7148-0.15625-0.23438-0.23438-0.50781-0.23438-0.82031 0-0.42969 0.14974-0.80078 0.44922-1.1133 0.3125-0.29948 0.68359-0.44922 1.1133-0.44922 0.42969 0 0.80078 0.14974 1.1133 0.44922 0.1302 0.14323 0.24088 0.29948 0.33203 0.46875 0.39062 0.70312 0.89192 1.3607 1.5039 1.9726 1.6797 1.6797 3.7044 2.5195 6.0742 2.5195 2.3698-0.00001 4.3945-0.83985 6.0742-2.5195 1.0416-1.25 1.5625-2.4935 1.5625-3.7305v-3.2812"/>
<path id="path3231" style="" d="m342.07 551.68c-0.28648-1.4974-1.0026-2.819-2.1484-3.9648-1.5234-1.5234-3.3659-2.2851-5.5273-2.2852-2.1615 0.00001-4.0039 0.76173-5.5273 2.2852-1.1458 1.1458-1.862 2.4675-2.1484 3.9648h15.352m-1.6602 7.1875c0.42966 0 0.79425 0.15625 1.0938 0.46875 0.31248 0.29948 0.46873 0.66406 0.46875 1.0938-0.00002 0.42969-0.14976 0.80078-0.44922 1.1133-2.0182 1.7578-4.3946 2.6367-7.1289 2.6367-3.0208 0-5.599-1.0677-7.7344-3.2031s-3.2031-4.7135-3.2031-7.7344c0-3.0208 1.0677-5.599 3.2031-7.7344s4.7135-3.2031 7.7344-3.2031c3.0208 0.00002 5.5989 1.0677 7.7344 3.2031 2.1354 2.1354 3.2031 4.7136 3.2031 7.7344-0.00002 0.42969-0.15627 0.80079-0.46875 1.1133-0.2995 0.29949-0.66408 0.44923-1.0938 0.44922h-17.051c0.28645 1.4974 1.0026 2.819 2.1484 3.9648 1.5234 1.5234 3.3659 2.2852 5.5273 2.2852 1.9531 0 3.6328-0.61849 5.0391-1.8555 0.28644-0.22135 0.61196-0.33203 0.97657-0.33203"/>
</g>
</g>
<g id="g3179" transform="translate(-107.37 -108.89)">
<path id="rect2985-80" d="m130.11 419.87h279.66c11.08 0 20 8.92 20 20v10.872c0 11.08-8.92 20-20 20h-279.66c-11.08 0-20-8.92-20-20v-10.872c0-11.08 8.92-20 20-20z" stroke="#000" stroke-linecap="round" stroke-width="2" fill="#dedede"/>
<g id="text3835-0">
<path id="path3189" style="" d="m156.91 460.51c-0.28647 0.28646-0.65756 0.42969-1.1133 0.42969s-0.82683-0.14974-1.1133-0.44922c-0.0912-0.0781-0.17579-0.20182-0.25391-0.37109l-8.6719-18.887c-0.0781-0.18228-0.11719-0.3841-0.11719-0.60547 0-0.42967 0.14974-0.79425 0.44922-1.0938 0.3125-0.31248 0.68359-0.46873 1.1133-0.46875 0.42968 0.00002 0.80078 0.14976 1.1133 0.44922 0.10416 0.10418 0.20182 0.2409 0.29297 0.41015l7.1875 15.703 7.1875-15.703c0.0911-0.16925 0.19529-0.30597 0.3125-0.41015 0.29946-0.29946 0.66404-0.4492 1.0938-0.44922 0.42967 0.00002 0.79425 0.15627 1.0938 0.46875 0.31248 0.2995 0.46873 0.66408 0.46875 1.0938-0.00002 0.22137-0.0391 0.42319-0.11719 0.60547l-8.6719 18.887c-0.0781 0.16927-0.16278 0.29948-0.25391 0.39062"/>
<path id="path3191" style="" d="m174.16 434.37c-0.00001 0.53388-0.19532 0.99612-0.58594 1.3867-0.37761 0.37763-0.83334 0.56643-1.3672 0.5664-0.53386 0.00003-0.9961-0.18877-1.3867-0.5664-0.37761-0.3906-0.56641-0.85284-0.5664-1.3867-0.00001-0.53383 0.18879-0.98956 0.5664-1.3672 0.39062-0.3906 0.85286-0.58591 1.3867-0.58594 0.53385 0.00003 0.98958 0.19534 1.3672 0.58594 0.39062 0.37763 0.58593 0.83336 0.58594 1.3672m-3.5156 6.25c0-0.42967 0.14974-0.79425 0.44922-1.0938 0.3125-0.31248 0.68359-0.46873 1.1133-0.46875 0.42968 0.00002 0.79427 0.15627 1.0938 0.46875 0.31249 0.2995 0.46874 0.66408 0.46875 1.0938v18.75c-0.00001 0.42969-0.15626 0.80078-0.46875 1.1133-0.29948 0.29948-0.66407 0.44922-1.0938 0.44922-0.42969 0-0.80078-0.14974-1.1133-0.44922-0.29948-0.3125-0.44922-0.68359-0.44922-1.1133v-18.75"/>
<path id="path3193" style="" d="m178.45 440.62c0-0.42967 0.14974-0.79425 0.44922-1.0938 0.3125-0.31248 0.68359-0.46873 1.1133-0.46875 0.42968 0.00002 0.79427 0.15627 1.0938 0.46875 0.3125 0.2995 0.46875 0.66408 0.46875 1.0938v1.7188c2.1875-2.1875 4.7917-3.2812 7.8125-3.2812 1.5234 0.00002 2.9232 0.26044 4.1992 0.78125 0.23436 0.0912 0.4492 0.22788 0.64453 0.41015 0.29946 0.31252 0.4492 0.68362 0.44922 1.1133-0.00002 0.4297-0.15627 0.8008-0.46875 1.1133-0.2995 0.29949-0.66408 0.44923-1.0938 0.44922-0.24741 0.00001-0.47528-0.0521-0.68359-0.15625-0.9245-0.39061-1.9401-0.58592-3.0469-0.58594-2.1615 0.00002-4.0039 0.76173-5.5273 2.2852s-2.2852 3.3659-2.2852 5.5274v9.375c0 0.42969-0.15625 0.80078-0.46875 1.1133-0.29948 0.29948-0.66407 0.44922-1.0938 0.44922-0.42969 0-0.80078-0.14974-1.1133-0.44922-0.29948-0.3125-0.44922-0.68359-0.44922-1.1133v-18.75"/>
<path id="path3195" style="" d="m208.14 457.81c0.42968 0 0.79426 0.15625 1.0938 0.46875 0.31249 0.29948 0.46874 0.66406 0.46875 1.0938-0.00001 0.42969-0.15626 0.80078-0.46875 1.1133-0.29949 0.29948-0.66407 0.44922-1.0938 0.44922-5.2083 0-7.8125-2.6042-7.8125-7.8125v-10.938h-1.5625c-0.42969 0.00002-0.80078-0.14972-1.1133-0.44922-0.29948-0.31248-0.44922-0.68357-0.44922-1.1133 0-0.42967 0.14974-0.79425 0.44922-1.0938 0.3125-0.31248 0.68359-0.46873 1.1133-0.46875h1.5625v-7.8125c0-0.42966 0.14974-0.79424 0.44922-1.0938 0.31249-0.31247 0.68359-0.46872 1.1133-0.46875 0.42968 0.00003 0.79426 0.15628 1.0938 0.46875 0.31249 0.29951 0.46874 0.66409 0.46875 1.0938v7.8125h3.1445c0.42968 0.00002 0.79426 0.15627 1.0938 0.46875 0.31249 0.2995 0.46874 0.66408 0.46875 1.0938-0.00001 0.42971-0.15626 0.8008-0.46875 1.1133-0.29949 0.2995-0.66407 0.44924-1.0938 0.44922h-3.1445v10.938c-0.00001 3.125 1.5625 4.6875 4.6875 4.6875"/>
<path id="path3197" style="" d="m233.14 459.37c-0.00002 0.42969-0.15627 0.80078-0.46875 1.1133-0.2995 0.29948-0.66408 0.44922-1.0938 0.44922-0.42971 0-0.8008-0.14974-1.1133-0.44922-0.2995-0.3125-0.44924-0.68359-0.44922-1.1133v-1.2695c-1.9531 1.888-4.2969 2.832-7.0312 2.832-2.7995 0-5.1953-0.98958-7.1875-2.9688-1.9792-1.9922-2.9688-4.388-2.9688-7.1875v-10.156c0-0.42967 0.14974-0.79425 0.44922-1.0938 0.3125-0.31248 0.68359-0.46873 1.1133-0.46875 0.42968 0.00002 0.79427 0.15627 1.0938 0.46875 0.3125 0.2995 0.46875 0.66408 0.46875 1.0938v10.156c0 1.9401 0.68359 3.6003 2.0508 4.9805 1.3802 1.3672 3.0404 2.0508 4.9805 2.0508s3.5937-0.68359 4.9609-2.0508c1.3802-1.3802 2.0703-3.0404 2.0703-4.9805v-10.156c-0.00002-0.42967 0.14972-0.79425 0.44922-1.0938 0.31248-0.31248 0.68357-0.46873 1.1133-0.46875 0.42967 0.00002 0.79425 0.15627 1.0938 0.46875 0.31248 0.2995 0.46873 0.66408 0.46875 1.0938v18.75"/>
<path id="path3199" style="" d="m247.2 442.19c-2.1615 0.00002-4.0039 0.76173-5.5273 2.2852s-2.2852 3.3659-2.2852 5.5274 0.76171 4.0039 2.2852 5.5273c1.5234 1.5234 3.3659 2.2852 5.5273 2.2852s4.0039-0.76172 5.5273-2.2852c1.5234-1.5234 2.2851-3.3659 2.2852-5.5273-0.00002-2.1614-0.76174-4.0039-2.2852-5.5274-1.5234-1.5234-3.3659-2.2851-5.5273-2.2852m7.8125 15.469c-2.1875 2.1875-4.7917 3.2812-7.8125 3.2812s-5.599-1.0677-7.7344-3.2031-3.2031-4.7135-3.2031-7.7344c0-3.0208 1.0677-5.5989 3.2031-7.7344 2.1354-2.1354 4.7135-3.2031 7.7344-3.2031 3.0208 0.00002 5.5989 1.0677 7.7344 3.2031 2.1354 2.1354 3.2031 4.7136 3.2031 7.7344v9.375c-0.00002 0.42969-0.15627 0.80078-0.46875 1.1133-0.2995 0.29948-0.66408 0.44922-1.0938 0.44922-0.42971 0-0.8008-0.14974-1.1133-0.44922-0.2995-0.3125-0.44924-0.68359-0.44922-1.1133v-1.7188"/>
<path id="path3201" style="" d="m261.27 431.25c0-0.42966 0.14974-0.79424 0.44922-1.0938 0.3125-0.31247 0.68359-0.46872 1.1133-0.46875 0.42968 0.00003 0.79427 0.15628 1.0938 0.46875 0.3125 0.29951 0.46875 0.66409 0.46875 1.0938v26.562h1.5625c0.42968 0 0.79426 0.15625 1.0938 0.46875 0.31249 0.29948 0.46874 0.66406 0.46875 1.0938-0.00001 0.42969-0.15626 0.80078-0.46875 1.1133-0.29949 0.29948-0.66407 0.44922-1.0938 0.44922h-3.125c-0.42969 0-0.80078-0.14974-1.1133-0.44922-0.29948-0.3125-0.44922-0.68359-0.44922-1.1133v-28.125"/>
<path id="path3203" style="" d="m275.72 434.37c-0.00001 0.53388-0.19532 0.99612-0.58594 1.3867-0.37761 0.37763-0.83334 0.56643-1.3672 0.5664-0.53386 0.00003-0.9961-0.18877-1.3867-0.5664-0.37761-0.3906-0.56641-0.85284-0.5664-1.3867-0.00001-0.53383 0.18879-0.98956 0.5664-1.3672 0.39062-0.3906 0.85286-0.58591 1.3867-0.58594 0.53385 0.00003 0.98958 0.19534 1.3672 0.58594 0.39062 0.37763 0.58593 0.83336 0.58594 1.3672m-3.5156 6.25c0-0.42967 0.14974-0.79425 0.44922-1.0938 0.3125-0.31248 0.68359-0.46873 1.1133-0.46875 0.42968 0.00002 0.79427 0.15627 1.0938 0.46875 0.31249 0.2995 0.46874 0.66408 0.46875 1.0938v18.75c-0.00001 0.42969-0.15626 0.80078-0.46875 1.1133-0.29948 0.29948-0.66407 0.44922-1.0938 0.44922-0.42969 0-0.80078-0.14974-1.1133-0.44922-0.29948-0.3125-0.44922-0.68359-0.44922-1.1133v-18.75"/>
<path id="path3205" style="" d="m297.2 457.81c0.42967 0 0.79425 0.15625 1.0938 0.46875 0.31248 0.29948 0.46873 0.66406 0.46875 1.0938-0.00002 0.42969-0.15627 0.80078-0.46875 1.1133-0.2995 0.29948-0.66408 0.44922-1.0938 0.44922h-15.625c-0.42969 0-0.80078-0.14974-1.1133-0.44922-0.29948-0.3125-0.44922-0.68359-0.44922-1.1133 0-0.36458 0.10417-0.68359 0.3125-0.95703l13.535-16.23h-12.285c-0.42969 0.00002-0.80078-0.14972-1.1133-0.44922-0.29948-0.31248-0.44922-0.68357-0.44922-1.1133 0-0.42967 0.14974-0.79425 0.44922-1.0938 0.3125-0.31248 0.68359-0.46873 1.1133-0.46875h15.625c0.42967 0.00002 0.79425 0.15627 1.0938 0.46875 0.31248 0.2995 0.46873 0.66408 0.46875 1.0938-0.00002 0.39064-0.12372 0.72918-0.37109 1.0156l-13.496 16.172h12.305"/>
<path id="path3207" style="" d="m311.58 442.19c-2.1615 0.00002-4.0039 0.76173-5.5273 2.2852s-2.2852 3.3659-2.2852 5.5274 0.76171 4.0039 2.2852 5.5273c1.5234 1.5234 3.3659 2.2852 5.5273 2.2852s4.0039-0.76172 5.5273-2.2852c1.5234-1.5234 2.2851-3.3659 2.2852-5.5273-0.00002-2.1614-0.76174-4.0039-2.2852-5.5274-1.5234-1.5234-3.3659-2.2851-5.5273-2.2852m7.8125 15.469c-2.1875 2.1875-4.7917 3.2812-7.8125 3.2812s-5.599-1.0677-7.7344-3.2031-3.2031-4.7135-3.2031-7.7344c0-3.0208 1.0677-5.5989 3.2031-7.7344 2.1354-2.1354 4.7135-3.2031 7.7344-3.2031 3.0208 0.00002 5.5989 1.0677 7.7344 3.2031 2.1354 2.1354 3.2031 4.7136 3.2031 7.7344v9.375c-0.00002 0.42969-0.15627 0.80078-0.46875 1.1133-0.2995 0.29948-0.66408 0.44922-1.0938 0.44922-0.42971 0-0.8008-0.14974-1.1133-0.44922-0.2995-0.3125-0.44924-0.68359-0.44922-1.1133v-1.7188"/>
<path id="path3209" style="" d="m334.86 457.81c0.42968 0 0.79426 0.15625 1.0938 0.46875 0.31249 0.29948 0.46874 0.66406 0.46875 1.0938-0.00001 0.42969-0.15626 0.80078-0.46875 1.1133-0.29949 0.29948-0.66407 0.44922-1.0938 0.44922-5.2083 0-7.8125-2.6042-7.8125-7.8125v-10.938h-1.5625c-0.42969 0.00002-0.80078-0.14972-1.1133-0.44922-0.29948-0.31248-0.44922-0.68357-0.44922-1.1133 0-0.42967 0.14974-0.79425 0.44922-1.0938 0.3125-0.31248 0.68359-0.46873 1.1133-0.46875h1.5625v-7.8125c0-0.42966 0.14974-0.79424 0.44922-1.0938 0.31249-0.31247 0.68359-0.46872 1.1133-0.46875 0.42968 0.00003 0.79426 0.15628 1.0938 0.46875 0.31249 0.29951 0.46874 0.66409 0.46875 1.0938v7.8125h3.1445c0.42968 0.00002 0.79426 0.15627 1.0938 0.46875 0.31249 0.2995 0.46874 0.66408 0.46875 1.0938-0.00001 0.42971-0.15626 0.8008-0.46875 1.1133-0.29949 0.2995-0.66407 0.44924-1.0938 0.44922h-3.1445v10.938c-0.00001 3.125 1.5625 4.6875 4.6875 4.6875"/>
<path id="path3211" style="" d="m344.63 434.37c-0.00001 0.53388-0.19532 0.99612-0.58594 1.3867-0.37761 0.37763-0.83334 0.56643-1.3672 0.5664-0.53386 0.00003-0.9961-0.18877-1.3867-0.5664-0.37761-0.3906-0.56641-0.85284-0.5664-1.3867-0.00001-0.53383 0.18879-0.98956 0.5664-1.3672 0.39062-0.3906 0.85286-0.58591 1.3867-0.58594 0.53385 0.00003 0.98958 0.19534 1.3672 0.58594 0.39062 0.37763 0.58593 0.83336 0.58594 1.3672m-3.5156 6.25c0-0.42967 0.14974-0.79425 0.44922-1.0938 0.3125-0.31248 0.68359-0.46873 1.1133-0.46875 0.42968 0.00002 0.79427 0.15627 1.0938 0.46875 0.31249 0.2995 0.46874 0.66408 0.46875 1.0938v18.75c-0.00001 0.42969-0.15626 0.80078-0.46875 1.1133-0.29948 0.29948-0.66407 0.44922-1.0938 0.44922-0.42969 0-0.80078-0.14974-1.1133-0.44922-0.29948-0.3125-0.44922-0.68359-0.44922-1.1133v-18.75"/>
<path id="path3213" style="" d="m370.8 450c-0.00002 3.0208-1.0677 5.599-3.2031 7.7344s-4.7136 3.2031-7.7344 3.2031-5.599-1.0677-7.7344-3.2031-3.2031-4.7135-3.2031-7.7344c0-3.0208 1.0677-5.5989 3.2031-7.7344 2.1354-2.1354 4.7135-3.2031 7.7344-3.2031 3.0208 0.00002 5.5989 1.0677 7.7344 3.2031 2.1354 2.1354 3.2031 4.7136 3.2031 7.7344m-10.938-7.8125c-2.1615 0.00002-4.0039 0.76173-5.5273 2.2852s-2.2852 3.3659-2.2852 5.5274 0.76171 4.0039 2.2852 5.5273c1.5234 1.5234 3.3659 2.2852 5.5273 2.2852s4.0039-0.76172 5.5273-2.2852c1.5234-1.5234 2.2851-3.3659 2.2852-5.5273-0.00002-2.1614-0.76174-4.0039-2.2852-5.5274-1.5234-1.5234-3.3659-2.2851-5.5273-2.2852"/>
<path id="path3215" style="" d="m373.92 440.62c0-0.42967 0.14974-0.79425 0.44922-1.0938 0.3125-0.31248 0.68359-0.46873 1.1133-0.46875 0.42968 0.00002 0.79427 0.15627 1.0938 0.46875 0.3125 0.2995 0.46875 0.66408 0.46875 1.0938v1.2695c1.9531-1.888 4.2969-2.832 7.0312-2.832 2.7995 0.00002 5.1888 0.99611 7.168 2.9883 1.9922 1.9792 2.9883 4.3685 2.9883 7.168v10.156c-0.00002 0.42969-0.15627 0.80078-0.46875 1.1133-0.2995 0.29948-0.66408 0.44922-1.0938 0.44922-0.42971 0-0.8008-0.14974-1.1133-0.44922-0.2995-0.3125-0.44924-0.68359-0.44922-1.1133v-10.156c-0.00002-1.9401-0.69012-3.5937-2.0703-4.9609-1.3672-1.3802-3.0208-2.0703-4.9609-2.0703-1.9401 0.00002-3.6003 0.69012-4.9805 2.0703-1.3672 1.3672-2.0508 3.0208-2.0508 4.9609v10.156c0 0.42969-0.15625 0.80078-0.46875 1.1133-0.29948 0.29948-0.66407 0.44922-1.0938 0.44922-0.42969 0-0.80078-0.14974-1.1133-0.44922-0.29948-0.3125-0.44922-0.68359-0.44922-1.1133v-18.75"/>
</g>
</g>
<g id="g3184" transform="translate(-107.37 -212.73)">
<path id="rect2985-6" d="m130.11 471.84h279.66c11.08 0 20 8.92 20 20v10.872c0 11.08-8.92 20-20 20h-279.66c-11.08 0-20-8.92-20-20v-10.872c0-11.08 8.92-20 20-20z" stroke="#000" stroke-linecap="round" stroke-width="2" fill="#dedede"/>
<g id="text3835-01">
<path id="path3171" style="" d="m175.41 483.23c-0.00001-0.42965 0.14973-0.79424 0.44921-1.0938 0.3125-0.31247 0.6836-0.46872 1.1133-0.46875 0.42968 0.00003 0.79426 0.15628 1.0938 0.46875 0.31249 0.29951 0.46874 0.6641 0.46875 1.0938v10.645c1.9531-1.888 4.2969-2.832 7.0312-2.832 2.7995 0.00003 5.1888 0.99612 7.168 2.9883 1.9922 1.9792 2.9883 4.3685 2.9883 7.168v10.156c-0.00003 0.42969-0.15628 0.80079-0.46875 1.1133-0.2995 0.29948-0.66409 0.44922-1.0938 0.44922s-0.80081-0.14974-1.1133-0.44922c-0.29949-0.31249-0.44923-0.68359-0.44921-1.1133v-10.156c-0.00002-1.9401-0.69013-3.5937-2.0703-4.9609-1.3672-1.3802-3.0208-2.0703-4.9609-2.0703-1.9401 0.00002-3.6003 0.69013-4.9805 2.0703-1.3672 1.3672-2.0508 3.0208-2.0508 4.9609v10.156c-0.00001 0.42969-0.15626 0.80079-0.46875 1.1133-0.29949 0.29948-0.66407 0.44922-1.0938 0.44922-0.42969 0-0.80079-0.14974-1.1133-0.44922-0.29948-0.31249-0.44922-0.68359-0.44921-1.1133v-28.125"/>
<path id="path3173" style="" d="m209.78 494.17c-2.1615 0.00002-4.0039 0.76174-5.5274 2.2852-1.5234 1.5234-2.2852 3.3659-2.2852 5.5273-0.00001 2.1615 0.76171 4.0039 2.2852 5.5274 1.5234 1.5234 3.3659 2.2852 5.5274 2.2852 2.1614 0.00001 4.0039-0.76171 5.5273-2.2852 1.5234-1.5234 2.2851-3.3659 2.2852-5.5274-0.00002-2.1614-0.76174-4.0039-2.2852-5.5273-1.5234-1.5234-3.3659-2.2851-5.5273-2.2852m7.8125 15.469c-2.1875 2.1875-4.7917 3.2812-7.8125 3.2812s-5.599-1.0677-7.7344-3.2031-3.2031-4.7135-3.2031-7.7344c-0.00001-3.0208 1.0677-5.5989 3.2031-7.7344 2.1354-2.1354 4.7135-3.2031 7.7344-3.2031 3.0208 0.00003 5.5989 1.0677 7.7344 3.2031 2.1354 2.1354 3.2031 4.7136 3.2031 7.7344v9.375c-0.00003 0.42969-0.15628 0.80079-0.46875 1.1133-0.29951 0.29948-0.66409 0.44922-1.0938 0.44922s-0.80081-0.14974-1.1133-0.44922c-0.2995-0.31249-0.44923-0.68359-0.44921-1.1133v-1.7188"/>
<path id="path3175" style="" d="m223.84 492.61c-0.00001-0.42966 0.14973-0.79425 0.44921-1.0938 0.3125-0.31247 0.6836-0.46872 1.1133-0.46875 0.42968 0.00003 0.79426 0.15628 1.0938 0.46875 0.31249 0.2995 0.46874 0.66409 0.46875 1.0938v1.7188c2.1875-2.1875 4.7916-3.2812 7.8125-3.2812 1.5234 0.00003 2.9232 0.26044 4.1992 0.78125 0.23436 0.0912 0.44921 0.22789 0.64454 0.41016 0.29946 0.31252 0.4492 0.68361 0.44921 1.1133-0.00001 0.42971-0.15626 0.8008-0.46875 1.1133-0.29949 0.2995-0.66407 0.44924-1.0938 0.44922-0.24741 0.00002-0.47527-0.0521-0.68359-0.15625-0.92449-0.39061-1.9401-0.58592-3.0469-0.58594-2.1615 0.00002-4.0039 0.76174-5.5274 2.2852-1.5234 1.5234-2.2852 3.3659-2.2852 5.5273v9.375c-0.00001 0.42969-0.15626 0.80079-0.46875 1.1133-0.29949 0.29948-0.66407 0.44922-1.0938 0.44922-0.42969 0-0.80079-0.14974-1.1133-0.44922-0.29948-0.31249-0.44922-0.68359-0.44921-1.1133v-18.75"/>
<path id="path3177" style="" d="m261.34 501.98c-0.00002-2.1614-0.76174-4.0039-2.2852-5.5273-1.5234-1.5234-3.3659-2.2851-5.5273-2.2852-2.1615 0.00002-4.0039 0.76174-5.5274 2.2852-1.5234 1.5234-2.2852 3.3659-2.2852 5.5273-0.00001 2.1615 0.76171 4.0039 2.2852 5.5274 1.5234 1.5234 3.3659 2.2852 5.5274 2.2852 2.1614 0.00001 4.0039-0.76171 5.5273-2.2852 1.5234-1.5234 2.2851-3.3659 2.2852-5.5274m0-18.789c-0.00002-0.42966 0.14971-0.79424 0.44921-1.0938 0.31248-0.31247 0.68358-0.46872 1.1133-0.46875 0.42966 0.00003 0.79424 0.15628 1.0938 0.46875 0.31247 0.29951 0.46872 0.66409 0.46875 1.0938v18.789c-0.00003 3.0208-1.0677 5.599-3.2031 7.7344s-4.7136 3.2031-7.7344 3.2031-5.599-1.0677-7.7344-3.2031-3.2031-4.7135-3.2031-7.7344c-0.00001-3.0208 1.0677-5.5989 3.2031-7.7344 2.1354-2.1354 4.7135-3.2031 7.7344-3.2031 3.0208 0.00003 5.5989 1.0677 7.7344 3.2031 0.026 0.0261 0.0521 0.0521 0.0781 0.0781v-11.133"/>
<path id="path3179" style="" d="m280.56 491.5c0.29946-0.29946 0.66404-0.44919 1.0938-0.44922 0.42967 0.00003 0.80076 0.14976 1.1133 0.44922 0.19529 0.20836 0.33201 0.44924 0.41015 0.72266l4.7266 14.199 4.8242-14.473c0.0781-0.15623 0.18878-0.30597 0.33204-0.44922 0.29945-0.29946 0.66403-0.44919 1.0938-0.44922 0.42965 0.00003 0.79424 0.15628 1.0938 0.46875 0.31247 0.2995 0.46872 0.66409 0.46875 1.0938-0.00003 0.20836-0.0391 0.41018-0.11719 0.60547l-6.2305 18.711c-0.0781 0.19531-0.19534 0.38411-0.35156 0.56641-0.31253 0.28645-0.68362 0.42968-1.1133 0.42968-0.42971 0-0.7943-0.14323-1.0938-0.42968-0.1693-0.1823-0.29299-0.3711-0.3711-0.56641l-4.7852-14.375-4.7852 14.375c-0.0781 0.19531-0.19532 0.38411-0.35156 0.56641-0.31251 0.28645-0.68361 0.42968-1.1133 0.42968-0.4297 0-0.79428-0.14323-1.0938-0.42968-0.16928-0.1823-0.29298-0.3711-0.3711-0.56641l-6.2305-18.711c-0.0781-0.19529-0.11719-0.39711-0.11718-0.60547-0.00001-0.42966 0.14973-0.79425 0.44921-1.0938 0.3125-0.31247 0.6836-0.46872 1.1133-0.46875 0.42968 0.00003 0.80077 0.14976 1.1133 0.44922 0.1302 0.14325 0.23437 0.29299 0.3125 0.44922l4.8242 14.473 4.7266-14.199c0.0911-0.27342 0.23436-0.5143 0.42969-0.72266"/>
<path id="path3181" style="" d="m309.78 494.17c-2.1615 0.00002-4.0039 0.76174-5.5274 2.2852-1.5234 1.5234-2.2852 3.3659-2.2852 5.5273-0.00001 2.1615 0.76171 4.0039 2.2852 5.5274 1.5234 1.5234 3.3659 2.2852 5.5274 2.2852 2.1614 0.00001 4.0039-0.76171 5.5273-2.2852 1.5234-1.5234 2.2851-3.3659 2.2852-5.5274-0.00002-2.1614-0.76174-4.0039-2.2852-5.5273-1.5234-1.5234-3.3659-2.2851-5.5273-2.2852m7.8125 15.469c-2.1875 2.1875-4.7917 3.2812-7.8125 3.2812s-5.599-1.0677-7.7344-3.2031-3.2031-4.7135-3.2031-7.7344c-0.00001-3.0208 1.0677-5.5989 3.2031-7.7344 2.1354-2.1354 4.7135-3.2031 7.7344-3.2031 3.0208 0.00003 5.5989 1.0677 7.7344 3.2031 2.1354 2.1354 3.2031 4.7136 3.2031 7.7344v9.375c-0.00003 0.42969-0.15628 0.80079-0.46875 1.1133-0.29951 0.29948-0.66409 0.44922-1.0938 0.44922s-0.80081-0.14974-1.1133-0.44922c-0.2995-0.31249-0.44923-0.68359-0.44921-1.1133v-1.7188"/>
<path id="path3183" style="" d="m323.84 492.61c-0.00001-0.42966 0.14973-0.79425 0.44921-1.0938 0.3125-0.31247 0.6836-0.46872 1.1133-0.46875 0.42968 0.00003 0.79426 0.15628 1.0938 0.46875 0.31249 0.2995 0.46874 0.66409 0.46875 1.0938v1.7188c2.1875-2.1875 4.7916-3.2812 7.8125-3.2812 1.5234 0.00003 2.9232 0.26044 4.1992 0.78125 0.23436 0.0912 0.44921 0.22789 0.64454 0.41016 0.29946 0.31252 0.4492 0.68361 0.44921 1.1133-0.00001 0.42971-0.15626 0.8008-0.46875 1.1133-0.29949 0.2995-0.66407 0.44924-1.0938 0.44922-0.24741 0.00002-0.47527-0.0521-0.68359-0.15625-0.92449-0.39061-1.9401-0.58592-3.0469-0.58594-2.1615 0.00002-4.0039 0.76174-5.5274 2.2852-1.5234 1.5234-2.2852 3.3659-2.2852 5.5273v9.375c-0.00001 0.42969-0.15626 0.80079-0.46875 1.1133-0.29949 0.29948-0.66407 0.44922-1.0938 0.44922-0.42969 0-0.80079-0.14974-1.1133-0.44922-0.29948-0.31249-0.44922-0.68359-0.44921-1.1133v-18.75"/>
<path id="path3185" style="" d="m361.21 500.42c-0.28648-1.4974-1.0026-2.819-2.1484-3.9648-1.5234-1.5234-3.3659-2.2851-5.5273-2.2852-2.1615 0.00002-4.0039 0.76174-5.5274 2.2852-1.1458 1.1458-1.862 2.4675-2.1484 3.9648h15.352m-1.6602 7.1875c0.42967 0.00001 0.79425 0.15626 1.0938 0.46875 0.31248 0.29949 0.46873 0.66407 0.46875 1.0938-0.00002 0.42969-0.14976 0.80079-0.44922 1.1133-2.0182 1.7578-4.3945 2.6367-7.1289 2.6367-3.0208 0-5.599-1.0677-7.7344-3.2031s-3.2031-4.7135-3.2031-7.7344c-0.00001-3.0208 1.0677-5.5989 3.2031-7.7344 2.1354-2.1354 4.7135-3.2031 7.7344-3.2031 3.0208 0.00003 5.5989 1.0677 7.7344 3.2031 2.1354 2.1354 3.2031 4.7136 3.2031 7.7344-0.00003 0.4297-0.15628 0.80079-0.46875 1.1133-0.29951 0.29949-0.66409 0.44923-1.0938 0.44922h-17.051c0.28646 1.4974 1.0026 2.819 2.1484 3.9648 1.5234 1.5234 3.3659 2.2852 5.5274 2.2852 1.9531 0.00001 3.6328-0.61848 5.0391-1.8555 0.28644-0.22134 0.61196-0.33202 0.97656-0.33203"/>
</g>
</g>
<g id="g3174" transform="translate(-107.37 -5.0535)">
<path id="rect2985-8" d="m130.11 367.91h279.66c11.08 0 20 8.92 20 20v10.872c0 11.08-8.92 20-20 20h-279.66c-11.08 0-20-8.92-20-20v-10.872c0-11.08 8.92-20 20-20z" stroke="#000" stroke-linecap="round" stroke-width="2" fill="#dedede"/>
<g id="text3835-97">
<path id="path3163" style="" d="m250.21 379.28c-3.4505 0.00003-6.3998 1.224-8.8476 3.6719-2.4349 2.4349-3.6524 5.3776-3.6524 8.8281s1.2174 6.3998 3.6524 8.8477c2.4479 2.4349 5.3971 3.6524 8.8476 3.6523 3.4505 0.00001 6.3932-1.2174 8.8281-3.6523 2.4479-2.4479 3.6718-5.3971 3.6719-8.8477-0.00003-3.4505-1.224-6.3932-3.6719-8.8281-2.4349-2.4479-5.3776-3.6718-8.8281-3.6719m15.625 12.5c-0.00003 4.3099-1.53 7.9948-4.5898 11.055-3.0469 3.0469-6.7253 4.5703-11.035 4.5703-4.3099 0-7.9948-1.5234-11.055-4.5703-3.0469-3.0599-4.5703-6.7448-4.5703-11.055 0-4.3099 1.5234-7.9882 4.5703-11.035 3.0599-3.0599 6.7448-4.5898 11.055-4.5898 4.3099 0.00004 7.9883 1.53 11.035 4.5898 3.0599 3.0469 4.5898 6.7253 4.5898 11.035"/>
<path id="path3165" style="" d="m281.93 376.61c0.29947-0.29945 0.66405-0.44918 1.0938-0.44922 0.42967 0.00004 0.79426 0.15628 1.0938 0.46875 0.31249 0.29951 0.46874 0.6641 0.46875 1.0938-0.00001 0.23441-0.0456 0.45576-0.13672 0.66407l-12.5 31.25c-0.0781 0.15624-0.18229 0.29947-0.3125 0.42968-0.3125 0.3125-0.68359 0.46875-1.1133 0.46875-0.42969 0-0.80078-0.15625-1.1133-0.46875-0.29948-0.29948-0.44922-0.66406-0.44922-1.0938 0-0.23437 0.0456-0.45573 0.13672-0.66406l12.5-31.25c0.0781-0.15622 0.18879-0.30596 0.33203-0.44922"/>
<path id="path3167" style="" d="m288.02 403.13c-0.20833-0.27343-0.3125-0.58593-0.3125-0.9375 0-0.42968 0.14974-0.79426 0.44922-1.0938 0.3125-0.31249 0.68359-0.46874 1.1133-0.46875 0.5599 0.00001 1.0026 0.24089 1.3281 0.72266 0.15624 0.2474 0.33853 0.48177 0.54687 0.70312 1.1068 1.3281 2.526 2.0638 4.2578 2.207 1.7187 0.13021 3.2357-0.35807 4.5508-1.4648 1.3151-1.1198 2.0442-2.5391 2.1875-4.2578 0.14321-1.7318-0.34507-3.2487-1.4648-4.5508-1.1068-1.3151-2.526-2.0443-4.2578-2.1875-2.1484-0.18228-3.9193-1.0937-5.3125-2.7344-1.3932-1.6406-2.0052-3.5416-1.8359-5.7031 0.18229-2.1484 1.0938-3.9192 2.7344-5.3125 1.4713-1.263 3.164-1.8945 5.0781-1.8945 2.2656 0.00004 4.2448 0.93102 5.9375 2.793 0.28644 0.33857 0.54035 0.69013 0.76172 1.0547 0.15623 0.24742 0.23436 0.52737 0.23438 0.83984-0.00002 0.42972-0.15627 0.80081-0.46875 1.1133-0.2995 0.2995-0.66408 0.44924-1.0938 0.44921-0.49481 0.00003-0.85939-0.15622-1.0938-0.46875-0.23439-0.31247-0.47528-0.63148-0.72266-0.95703-0.84637-0.98955-1.9076-1.5364-3.1836-1.6406-1.2891-0.10414-2.4284 0.26695-3.418 1.1133-0.98959 0.83336-1.5365 1.888-1.6406 3.1641-0.10417 1.2891 0.26041 2.4284 1.0938 3.418 0.84635 0.9896 1.9076 1.5365 3.1836 1.6406 2.5911 0.22137 4.7265 1.3151 6.4062 3.2812 1.4713 1.7448 2.207 3.724 2.207 5.9375-0.00002 0.29948-0.013 0.59896-0.0391 0.89843-0.20836 2.5781-1.2956 4.7005-3.2617 6.3672-1.7578 1.4974-3.7565 2.2461-5.9961 2.2461-2.7995 0-5.2083-1.1068-7.2266-3.3203-0.27344-0.29947-0.52083-0.61848-0.74219-0.95703"/>
</g>
</g>
<g id="g3169" transform="translate(-107.37 98.786)">
<path id="rect2985-7" d="m130.11 315.94h279.66c11.08 0 20 8.92 20 20v10.872c0 11.08-8.92 20-20 20h-279.66c-11.08 0-20-8.92-20-20v-10.872c0-11.08 8.92-20 20-20z" stroke="#000" stroke-linecap="round" stroke-width="2" fill="#dedede"/>
<g id="text3835-2">
<path id="path3141" style="" d="m160.56 355.46c-0.00001 0.42969-0.15626 0.80078-0.46875 1.1133-0.29949 0.29948-0.66407 0.44922-1.0938 0.44922-0.42969 0-0.80079-0.14974-1.1133-0.44922-0.29948-0.3125-0.44922-0.68359-0.44921-1.1133v-18.75c-0.00001-0.42967 0.14973-0.79425 0.44921-1.0938 0.3125-0.31248 0.6836-0.46873 1.1133-0.46875 0.42968 0.00002 0.79426 0.15627 1.0938 0.46875 0.31249 0.2995 0.46874 0.66408 0.46875 1.0938v0.41016c1.5495-1.3151 3.3724-1.9726 5.4688-1.9727 2.3698 0.00002 4.3945 0.83987 6.0742 2.5195 0.35155 0.35158 0.67056 0.72268 0.95704 1.1133 0.28644-0.3906 0.60545-0.7617 0.95703-1.1133 1.6797-1.6797 3.7044-2.5195 6.0742-2.5195 2.3698 0.00002 4.3945 0.83987 6.0742 2.5195 1.6797 1.6797 2.5195 3.7044 2.5195 6.0742v11.719c-0.00004 0.42969-0.15629 0.80078-0.46875 1.1133-0.29952 0.29948-0.6641 0.44922-1.0938 0.44922-0.42972 0-0.80082-0.14974-1.1133-0.44922-0.2995-0.3125-0.44924-0.68359-0.44921-1.1133v-11.719c-0.00003-1.5104-0.53389-2.7995-1.6016-3.8672s-2.3568-1.6015-3.8672-1.6016c-1.5104 0.00002-2.7995 0.53387-3.8672 1.6016s-1.6016 2.3568-1.6016 3.8672v11.719c-0.00002 0.42969-0.15627 0.80078-0.46875 1.1133-0.2995 0.29948-0.66408 0.44922-1.0938 0.44922-0.42971 0-0.8008-0.14974-1.1133-0.44922-0.29949-0.3125-0.44923-0.68359-0.44921-1.1133v-11.719c-0.00002-1.5104-0.53387-2.7995-1.6016-3.8672s-2.3568-1.6015-3.8672-1.6016c-1.5104 0.00002-2.7995 0.53387-3.8672 1.6016s-1.6016 2.3568-1.6016 3.8672v11.719"/>
<path id="path3143" style="" d="m196.89 330.46c-0.00001 0.53388-0.19532 0.99612-0.58594 1.3867-0.37761 0.37763-0.83334 0.56643-1.3672 0.56641-0.53386 0.00002-0.9961-0.18878-1.3867-0.56641-0.37761-0.3906-0.56641-0.85284-0.56641-1.3867 0-0.53383 0.1888-0.98955 0.56641-1.3672 0.39062-0.39059 0.85286-0.58591 1.3867-0.58593 0.53384 0.00002 0.98957 0.19534 1.3672 0.58593 0.39062 0.37764 0.58593 0.83336 0.58594 1.3672m-3.5156 6.25c-0.00001-0.42967 0.14973-0.79425 0.44921-1.0938 0.3125-0.31248 0.68359-0.46873 1.1133-0.46875 0.42968 0.00002 0.79426 0.15627 1.0938 0.46875 0.31249 0.2995 0.46874 0.66408 0.46875 1.0938v18.75c-0.00001 0.42969-0.15626 0.80078-0.46875 1.1133-0.29949 0.29948-0.66407 0.44922-1.0938 0.44922-0.4297 0-0.80079-0.14974-1.1133-0.44922-0.29948-0.3125-0.44922-0.68359-0.44921-1.1133v-18.75"/>
<path id="path3145" style="" d="m219.94 346.08c-0.00002-2.1614-0.76174-4.0039-2.2852-5.5273-1.5234-1.5234-3.3659-2.2851-5.5273-2.2852-2.1615 0.00002-4.0039 0.76174-5.5274 2.2852-1.5234 1.5234-2.2852 3.3659-2.2852 5.5273-0.00001 2.1615 0.76171 4.0039 2.2852 5.5273 1.5234 1.5234 3.3659 2.2852 5.5274 2.2852 2.1614 0 4.0039-0.76171 5.5273-2.2852 1.5234-1.5234 2.2851-3.3659 2.2852-5.5273m0-18.789c-0.00002-0.42966 0.14971-0.79424 0.44921-1.0938 0.31248-0.31247 0.68358-0.46872 1.1133-0.46875 0.42966 0.00003 0.79424 0.15628 1.0938 0.46875 0.31247 0.29951 0.46872 0.66409 0.46875 1.0938v18.789c-0.00003 3.0208-1.0677 5.599-3.2031 7.7344s-4.7136 3.2031-7.7344 3.2031-5.599-1.0677-7.7344-3.2031-3.2031-4.7135-3.2031-7.7344c-0.00001-3.0208 1.0677-5.5989 3.2031-7.7344 2.1354-2.1354 4.7135-3.2031 7.7344-3.2031 3.0208 0.00002 5.5989 1.0677 7.7344 3.2031 0.026 0.0261 0.0521 0.0521 0.0781 0.0781v-11.133"/>
<path id="path3147" style="" d="m244.94 346.08c-0.00002-2.1614-0.76174-4.0039-2.2852-5.5273-1.5234-1.5234-3.3659-2.2851-5.5273-2.2852-2.1615 0.00002-4.0039 0.76174-5.5274 2.2852-1.5234 1.5234-2.2852 3.3659-2.2852 5.5273-0.00001 2.1615 0.76171 4.0039 2.2852 5.5273 1.5234 1.5234 3.3659 2.2852 5.5274 2.2852 2.1614 0 4.0039-0.76171 5.5273-2.2852 1.5234-1.5234 2.2851-3.3659 2.2852-5.5273m0-18.789c-0.00002-0.42966 0.14971-0.79424 0.44921-1.0938 0.31248-0.31247 0.68358-0.46872 1.1133-0.46875 0.42966 0.00003 0.79424 0.15628 1.0938 0.46875 0.31247 0.29951 0.46872 0.66409 0.46875 1.0938v18.789c-0.00003 3.0208-1.0677 5.599-3.2031 7.7344s-4.7136 3.2031-7.7344 3.2031-5.599-1.0677-7.7344-3.2031-3.2031-4.7135-3.2031-7.7344c-0.00001-3.0208 1.0677-5.5989 3.2031-7.7344 2.1354-2.1354 4.7135-3.2031 7.7344-3.2031 3.0208 0.00002 5.5989 1.0677 7.7344 3.2031 0.026 0.0261 0.0521 0.0521 0.0781 0.0781v-11.133"/>
<path id="path3149" style="" d="m251.19 327.33c-0.00001-0.42966 0.14973-0.79424 0.44921-1.0938 0.3125-0.31247 0.6836-0.46872 1.1133-0.46875 0.42968 0.00003 0.79426 0.15628 1.0938 0.46875 0.31249 0.29951 0.46874 0.66409 0.46875 1.0938v26.562h1.5625c0.42968 0 0.79426 0.15625 1.0938 0.46875 0.31249 0.29948 0.46874 0.66407 0.46875 1.0938-0.00001 0.42969-0.15626 0.80078-0.46875 1.1133-0.29949 0.29948-0.66407 0.44922-1.0938 0.44922h-3.125c-0.42969 0-0.80079-0.14974-1.1133-0.44922-0.29948-0.3125-0.44922-0.68359-0.44921-1.1133v-28.125"/>
<path id="path3151" style="" d="m279.18 344.52c-0.28648-1.4974-1.0026-2.819-2.1484-3.9648-1.5234-1.5234-3.3659-2.2851-5.5273-2.2852-2.1615 0.00002-4.0039 0.76174-5.5274 2.2852-1.1458 1.1458-1.862 2.4675-2.1484 3.9648h15.352m-1.6602 7.1875c0.42967 0.00001 0.79425 0.15626 1.0938 0.46875 0.31248 0.29948 0.46873 0.66407 0.46875 1.0938-0.00002 0.42969-0.14976 0.80079-0.44922 1.1133-2.0182 1.7578-4.3945 2.6367-7.1289 2.6367-3.0208 0-5.599-1.0677-7.7344-3.2031s-3.2031-4.7135-3.2031-7.7344c-0.00001-3.0208 1.0677-5.5989 3.2031-7.7344 2.1354-2.1354 4.7135-3.2031 7.7344-3.2031 3.0208 0.00002 5.5989 1.0677 7.7344 3.2031 2.1354 2.1354 3.2031 4.7136 3.2031 7.7344-0.00003 0.4297-0.15628 0.80079-0.46875 1.1133-0.29951 0.29949-0.66409 0.44923-1.0938 0.44922h-17.051c0.28646 1.4974 1.0026 2.819 2.1484 3.9648 1.5234 1.5234 3.3659 2.2852 5.5274 2.2852 1.9531 0 3.6328-0.61848 5.0391-1.8555 0.28644-0.22135 0.61196-0.33202 0.97656-0.33203"/>
<path id="path3153" style="" d="m298.53 335.59c0.29946-0.29946 0.66404-0.4492 1.0938-0.44922 0.42967 0.00002 0.80076 0.14976 1.1133 0.44922 0.19529 0.20835 0.33201 0.44924 0.41015 0.72266l4.7266 14.199 4.8242-14.473c0.0781-0.15623 0.18878-0.30597 0.33204-0.44922 0.29945-0.29946 0.66403-0.4492 1.0938-0.44922 0.42965 0.00002 0.79424 0.15627 1.0938 0.46875 0.31247 0.2995 0.46872 0.66408 0.46875 1.0938-0.00003 0.20835-0.0391 0.41018-0.11719 0.60547l-6.2305 18.711c-0.0781 0.19531-0.19534 0.38411-0.35156 0.5664-0.31253 0.28646-0.68362 0.42969-1.1133 0.42969-0.42971 0-0.7943-0.14323-1.0938-0.42969-0.1693-0.18229-0.29299-0.37109-0.3711-0.5664l-4.7852-14.375-4.7852 14.375c-0.0781 0.19531-0.19532 0.38411-0.35156 0.5664-0.31251 0.28646-0.68361 0.42969-1.1133 0.42969-0.4297 0-0.79428-0.14323-1.0938-0.42969-0.16928-0.18229-0.29298-0.37109-0.3711-0.5664l-6.2305-18.711c-0.0781-0.19529-0.11719-0.39712-0.11718-0.60547-0.00001-0.42967 0.14973-0.79425 0.44921-1.0938 0.3125-0.31248 0.6836-0.46873 1.1133-0.46875 0.42968 0.00002 0.80077 0.14976 1.1133 0.44922 0.1302 0.14325 0.23437 0.29299 0.3125 0.44922l4.8242 14.473 4.7266-14.199c0.0911-0.27342 0.23436-0.51431 0.42969-0.72266"/>
<path id="path3155" style="" d="m327.75 338.27c-2.1615 0.00002-4.0039 0.76174-5.5274 2.2852-1.5234 1.5234-2.2852 3.3659-2.2852 5.5273-0.00001 2.1615 0.76171 4.0039 2.2852 5.5273 1.5234 1.5234 3.3659 2.2852 5.5274 2.2852 2.1614 0 4.0039-0.76171 5.5273-2.2852 1.5234-1.5234 2.2851-3.3659 2.2852-5.5273-0.00002-2.1614-0.76174-4.0039-2.2852-5.5273-1.5234-1.5234-3.3659-2.2851-5.5273-2.2852m7.8125 15.469c-2.1875 2.1875-4.7917 3.2812-7.8125 3.2812s-5.599-1.0677-7.7344-3.2031-3.2031-4.7135-3.2031-7.7344c-0.00001-3.0208 1.0677-5.5989 3.2031-7.7344 2.1354-2.1354 4.7135-3.2031 7.7344-3.2031 3.0208 0.00002 5.5989 1.0677 7.7344 3.2031 2.1354 2.1354 3.2031 4.7136 3.2031 7.7344v9.375c-0.00003 0.42969-0.15628 0.80078-0.46875 1.1133-0.29951 0.29948-0.66409 0.44922-1.0938 0.44922s-0.80081-0.14974-1.1133-0.44922c-0.2995-0.3125-0.44923-0.68359-0.44921-1.1133v-1.7188"/>
<path id="path3157" style="" d="m341.81 336.71c-0.00001-0.42967 0.14973-0.79425 0.44921-1.0938 0.3125-0.31248 0.6836-0.46873 1.1133-0.46875 0.42968 0.00002 0.79426 0.15627 1.0938 0.46875 0.31249 0.2995 0.46874 0.66408 0.46875 1.0938v1.7188c2.1875-2.1875 4.7916-3.2812 7.8125-3.2812 1.5234 0.00002 2.9232 0.26044 4.1992 0.78125 0.23436 0.0912 0.44921 0.22789 0.64454 0.41016 0.29946 0.31252 0.4492 0.68361 0.44921 1.1133-0.00001 0.42971-0.15626 0.8008-0.46875 1.1133-0.29949 0.2995-0.66407 0.44924-1.0938 0.44922-0.24741 0.00002-0.47527-0.0521-0.68359-0.15625-0.92449-0.39061-1.9401-0.58592-3.0469-0.58594-2.1615 0.00002-4.0039 0.76174-5.5274 2.2852-1.5234 1.5234-2.2852 3.3659-2.2852 5.5273v9.375c-0.00001 0.42969-0.15626 0.80078-0.46875 1.1133-0.29949 0.29948-0.66407 0.44922-1.0938 0.44922-0.42969 0-0.80079-0.14974-1.1133-0.44922-0.29948-0.3125-0.44922-0.68359-0.44921-1.1133v-18.75"/>
<path id="path3159" style="" d="m379.18 344.52c-0.28648-1.4974-1.0026-2.819-2.1484-3.9648-1.5234-1.5234-3.3659-2.2851-5.5273-2.2852-2.1615 0.00002-4.0039 0.76174-5.5274 2.2852-1.1458 1.1458-1.862 2.4675-2.1484 3.9648h15.352m-1.6602 7.1875c0.42967 0.00001 0.79425 0.15626 1.0938 0.46875 0.31248 0.29948 0.46873 0.66407 0.46875 1.0938-0.00002 0.42969-0.14976 0.80079-0.44922 1.1133-2.0182 1.7578-4.3945 2.6367-7.1289 2.6367-3.0208 0-5.599-1.0677-7.7344-3.2031s-3.2031-4.7135-3.2031-7.7344c-0.00001-3.0208 1.0677-5.5989 3.2031-7.7344 2.1354-2.1354 4.7135-3.2031 7.7344-3.2031 3.0208 0.00002 5.5989 1.0677 7.7344 3.2031 2.1354 2.1354 3.2031 4.7136 3.2031 7.7344-0.00003 0.4297-0.15628 0.80079-0.46875 1.1133-0.29951 0.29949-0.66409 0.44923-1.0938 0.44922h-17.051c0.28646 1.4974 1.0026 2.819 2.1484 3.9648 1.5234 1.5234 3.3659 2.2852 5.5274 2.2852 1.9531 0 3.6328-0.61848 5.0391-1.8555 0.28644-0.22135 0.61196-0.33202 0.97656-0.33203"/>
</g>
</g>
<g id="g3159" transform="translate(-107.37 306.86)">
<path id="rect2985-1" d="m130.11 212.01h279.66c11.08 0 20 8.92 20 20v10.872c0 11.08-8.92 20-20 20h-279.66c-11.08 0-20-8.92-20-20v-10.872c0-11.08 8.92-20 20-20z" stroke="#000" stroke-linecap="round" stroke-width="2" fill="#dedede"/>
<g id="text3835-99">
<path id="path3131" style="" d="m246.38 242.15c-0.00002-2.1614-0.76174-4.0039-2.2852-5.5273-1.5234-1.5234-3.3659-2.2851-5.5273-2.2852-2.1615 0.00002-4.0039 0.76174-5.5274 2.2852-1.5234 1.5234-2.2852 3.3659-2.2852 5.5273-0.00001 2.1615 0.76171 4.0039 2.2852 5.5274 1.5234 1.5234 3.3659 2.2852 5.5274 2.2852 2.1614 0.00001 4.0039-0.76171 5.5273-2.2852 1.5234-1.5234 2.2851-3.3659 2.2852-5.5274m0-18.789c-0.00002-0.42966 0.14972-0.79424 0.44922-1.0938 0.31248-0.31247 0.68357-0.46872 1.1133-0.46875 0.42966 0.00003 0.79425 0.15628 1.0938 0.46875 0.31247 0.29951 0.46872 0.66409 0.46875 1.0938v18.789c-0.00003 3.0208-1.0677 5.599-3.2031 7.7344s-4.7136 3.2031-7.7344 3.2031-5.599-1.0677-7.7344-3.2031-3.2031-4.7135-3.2031-7.7344c0-3.0208 1.0677-5.5989 3.2031-7.7344 2.1354-2.1354 4.7135-3.2031 7.7344-3.2031 3.0208 0.00003 5.5989 1.0677 7.7344 3.2031 0.026 0.0261 0.0521 0.0521 0.0781 0.0781v-11.133"/>
<path id="path3133" style="" d="m263.57 234.34c-2.1615 0.00002-4.0039 0.76174-5.5274 2.2852-1.5234 1.5234-2.2852 3.3659-2.2852 5.5273-0.00001 2.1615 0.76171 4.0039 2.2852 5.5274 1.5234 1.5234 3.3659 2.2852 5.5274 2.2852 2.1614 0.00001 4.0039-0.76171 5.5273-2.2852 1.5234-1.5234 2.2851-3.3659 2.2852-5.5274-0.00002-2.1614-0.76174-4.0039-2.2852-5.5273-1.5234-1.5234-3.3659-2.2851-5.5273-2.2852m7.8125 15.469c-2.1875 2.1875-4.7917 3.2812-7.8125 3.2812s-5.599-1.0677-7.7344-3.2031-3.2031-4.7135-3.2031-7.7344c0-3.0208 1.0677-5.5989 3.2031-7.7344 2.1354-2.1354 4.7135-3.2031 7.7344-3.2031 3.0208 0.00003 5.5989 1.0677 7.7344 3.2031 2.1354 2.1354 3.2031 4.7136 3.2031 7.7344v9.375c-0.00003 0.42969-0.15628 0.80079-0.46875 1.1133-0.2995 0.29948-0.66409 0.44922-1.0938 0.44922s-0.8008-0.14974-1.1133-0.44922c-0.2995-0.31249-0.44924-0.68359-0.44922-1.1133v-1.7188"/>
<path id="path3135" style="" d="m286.85 249.96c0.42967 0.00001 0.79426 0.15626 1.0938 0.46875 0.31248 0.29948 0.46873 0.66407 0.46875 1.0938-0.00002 0.42969-0.15627 0.80079-0.46875 1.1133-0.29949 0.29948-0.66408 0.44922-1.0938 0.44922-5.2083 0-7.8125-2.6042-7.8125-7.8125v-10.938h-1.5625c-0.42969 0.00002-0.80079-0.14972-1.1133-0.44922-0.29948-0.31248-0.44922-0.68357-0.44922-1.1133 0-0.42966 0.14974-0.79425 0.44922-1.0938 0.31249-0.31248 0.68359-0.46872 1.1133-0.46875h1.5625v-7.8125c-0.00001-0.42965 0.14973-0.79424 0.44922-1.0938 0.31249-0.31247 0.68358-0.46872 1.1133-0.46875 0.42968 0.00003 0.79426 0.15628 1.0938 0.46875 0.31249 0.29951 0.46874 0.6641 0.46875 1.0938v7.8125h3.1445c0.42968 0.00003 0.79426 0.15627 1.0938 0.46875 0.31249 0.2995 0.46874 0.66409 0.46875 1.0938-0.00001 0.42971-0.15626 0.8008-0.46875 1.1133-0.29949 0.2995-0.66407 0.44924-1.0938 0.44922h-3.1445v10.938c-0.00001 3.125 1.5625 4.6875 4.6875 4.6875"/>
<path id="path3137" style="" d="m301.31 234.34c-2.1615 0.00002-4.0039 0.76174-5.5273 2.2852-1.5234 1.5234-2.2852 3.3659-2.2852 5.5273 0 2.1615 0.76172 4.0039 2.2852 5.5274 1.5234 1.5234 3.3659 2.2852 5.5273 2.2852 2.1614 0.00001 4.0039-0.76171 5.5274-2.2852 1.5234-1.5234 2.2851-3.3659 2.2852-5.5274-0.00002-2.1614-0.76174-4.0039-2.2852-5.5273s-3.3659-2.2851-5.5274-2.2852m7.8125 15.469c-2.1875 2.1875-4.7917 3.2812-7.8125 3.2812s-5.599-1.0677-7.7344-3.2031-3.2031-4.7135-3.2031-7.7344c0-3.0208 1.0677-5.5989 3.2031-7.7344 2.1354-2.1354 4.7135-3.2031 7.7344-3.2031 3.0208 0.00003 5.5989 1.0677 7.7344 3.2031 2.1354 2.1354 3.2031 4.7136 3.2031 7.7344v9.375c-0.00002 0.42969-0.15627 0.80079-0.46875 1.1133-0.2995 0.29948-0.66408 0.44922-1.0938 0.44922-0.42971 0-0.8008-0.14974-1.1133-0.44922-0.2995-0.31249-0.44924-0.68359-0.44922-1.1133v-1.7188"/>
</g>
</g>
<g id="g4586" transform="translate(-105.82 -3.6627)">
<path id="rect2985" d="m128.56 574.4h279.66c11.08 0 20 8.92 20 20v10.872c0 11.08-8.92 20-20 20h-279.66c-11.08 0-20-8.92-20-20v-10.872c0-11.08 8.92-20 20-20z" stroke="#000" stroke-linecap="round" stroke-width="2" fill="#dedede"/>
<g id="text3835-5">
<path id="path3113" style="" d="m191.4 603.16c-1.1849-0.4427-2.0117-0.90494-2.4805-1.3867-0.92448-0.91145-1.3867-2.0117-1.3867-3.3008 0-1.289 0.48177-2.4154 1.4453-3.3789 1.875-1.914 4.3229-2.8711 7.3438-2.8711 3.2682 0.00002 6.0677 1.3086 8.3984 3.9258 0.20832 0.24741 0.30597 0.5534 0.29297 0.91797-0.00002 0.4297-0.15627 0.8008-0.46875 1.1133-0.2995 0.29949-0.66408 0.44923-1.0938 0.44922-0.4297 0.00001-0.77476-0.13671-1.0352-0.41016-0.26043-0.27342-0.44923-0.46873-0.5664-0.58594-1.5234-1.5234-3.3659-2.2851-5.5274-2.2852-2.1615 0.00002-3.8867 0.6771-5.1758 2.0312-0.3125 0.37762-0.46875 0.82684-0.46875 1.3476 0.0391 0.612 0.35807 1.0287 0.95703 1.25l9.6094 3.1836c1.1849 0.44272 2.0117 0.90496 2.4805 1.3867 0.92446 0.91146 1.3867 2.0117 1.3867 3.3008-0.00002 1.2891-0.48179 2.4154-1.4453 3.3789-1.875 1.9141-4.3229 2.8711-7.3438 2.8711-3.2812 0-6.0807-1.3086-8.3984-3.9258-0.19532-0.27344-0.29297-0.57943-0.29297-0.91797 0-0.42968 0.14974-0.79427 0.44922-1.0938 0.31249-0.3125 0.68359-0.46875 1.1133-0.46875 0.42968 0 0.77473 0.13672 1.0352 0.41015 0.26042 0.27345 0.44922 0.46876 0.56641 0.58594 1.5234 1.5234 3.3659 2.2852 5.5273 2.2852s3.8867-0.67708 5.1758-2.0312c0.31248-0.3776 0.46873-0.82682 0.46875-1.3477-0.0391-0.61197-0.35809-1.0286-0.95704-1.25l-9.6094-3.1836"/>
<path id="path3115" style="" d="m226.85 601.6c-0.28648-1.4974-1.0026-2.819-2.1484-3.9648-1.5234-1.5234-3.3659-2.2851-5.5273-2.2852-2.1615 0.00002-4.0039 0.76173-5.5274 2.2852-1.1458 1.1458-1.862 2.4675-2.1484 3.9648h15.352m-1.6602 7.1875c0.42967 0 0.79425 0.15625 1.0938 0.46875 0.31248 0.29948 0.46873 0.66406 0.46875 1.0938-0.00002 0.42969-0.14976 0.80078-0.44922 1.1133-2.0182 1.7578-4.3945 2.6367-7.1289 2.6367-3.0208 0-5.599-1.0677-7.7344-3.2031s-3.2031-4.7135-3.2031-7.7344c0-3.0208 1.0677-5.5989 3.2031-7.7344 2.1354-2.1354 4.7135-3.2031 7.7344-3.2031 3.0208 0.00002 5.5989 1.0677 7.7344 3.2031 2.1354 2.1354 3.2031 4.7136 3.2031 7.7344-0.00003 0.4297-0.15628 0.80079-0.46875 1.1133-0.29951 0.29949-0.66409 0.44923-1.0938 0.44922h-17.051c0.28645 1.4974 1.0026 2.819 2.1484 3.9648 1.5234 1.5234 3.3659 2.2852 5.5274 2.2852 1.9531 0 3.6328-0.61849 5.0391-1.8555 0.28644-0.22135 0.61196-0.33203 0.97656-0.33203"/>
<path id="path3117" style="" d="m233.24 593.79c0-0.42967 0.14973-0.79425 0.44922-1.0938 0.31249-0.31248 0.68359-0.46873 1.1133-0.46875 0.42968 0.00002 0.79426 0.15627 1.0938 0.46875 0.31249 0.2995 0.46874 0.66408 0.46875 1.0938v1.7188c2.1875-2.1875 4.7916-3.2812 7.8125-3.2812 1.5234 0.00002 2.9232 0.26044 4.1992 0.78125 0.23435 0.0912 0.4492 0.22788 0.64453 0.41015 0.29946 0.31252 0.4492 0.68362 0.44922 1.1133-0.00002 0.4297-0.15627 0.8008-0.46875 1.1133-0.2995 0.29949-0.66408 0.44923-1.0938 0.44922-0.24742 0.00001-0.47528-0.0521-0.6836-0.15625-0.92449-0.39061-1.9401-0.58592-3.0469-0.58594-2.1615 0.00002-4.0039 0.76173-5.5274 2.2852-1.5234 1.5235-2.2852 3.3659-2.2852 5.5274v9.375c-0.00001 0.42969-0.15626 0.80078-0.46875 1.1133-0.29949 0.29948-0.66407 0.44922-1.0938 0.44922-0.42969 0-0.80079-0.14974-1.1133-0.44922-0.29949-0.3125-0.44922-0.68359-0.44922-1.1133v-18.75"/>
<path id="path3119" style="" d="m263.26 613.67c-0.28647 0.28646-0.65757 0.42969-1.1133 0.42969-0.45574 0-0.82684-0.14974-1.1133-0.44922-0.0912-0.0781-0.1758-0.20182-0.25391-0.37109l-8.6719-18.887c-0.0781-0.18228-0.11718-0.3841-0.11718-0.60547 0-0.42967 0.14973-0.79425 0.44922-1.0938 0.31249-0.31248 0.68359-0.46873 1.1133-0.46875 0.42968 0.00002 0.80077 0.14976 1.1133 0.44922 0.10416 0.10418 0.20182 0.2409 0.29297 0.41015l7.1875 15.703 7.1875-15.703c0.0911-0.16925 0.19529-0.30597 0.3125-0.41015 0.29946-0.29946 0.66404-0.4492 1.0938-0.44922 0.42966 0.00002 0.79425 0.15627 1.0938 0.46875 0.31247 0.2995 0.46872 0.66408 0.46875 1.0938-0.00003 0.22137-0.0391 0.42319-0.11719 0.60547l-8.6719 18.887c-0.0781 0.16927-0.16277 0.29947-0.2539 0.39062"/>
<path id="path3121" style="" d="m280.5 587.54c-0.00001 0.53388-0.19532 0.99612-0.58594 1.3867-0.37761 0.37763-0.83333 0.56643-1.3672 0.5664-0.53386 0.00003-0.9961-0.18877-1.3867-0.5664-0.37761-0.3906-0.56641-0.85284-0.56641-1.3867 0-0.53383 0.1888-0.98956 0.56641-1.3672 0.39062-0.3906 0.85286-0.58591 1.3867-0.58594 0.53385 0.00003 0.98957 0.19534 1.3672 0.58594 0.39062 0.37763 0.58593 0.83336 0.58594 1.3672m-3.5156 6.25c-0.00001-0.42967 0.14973-0.79425 0.44922-1.0938 0.31249-0.31248 0.68358-0.46873 1.1133-0.46875 0.42968 0.00002 0.79426 0.15627 1.0938 0.46875 0.31249 0.2995 0.46874 0.66408 0.46875 1.0938v18.75c-0.00001 0.42969-0.15626 0.80078-0.46875 1.1133-0.29949 0.29948-0.66407 0.44922-1.0938 0.44922-0.4297 0-0.80079-0.14974-1.1133-0.44922-0.29949-0.3125-0.44923-0.68359-0.44922-1.1133v-18.75"/>
<path id="path3123" style="" d="m301.79 608.75c0.42967 0 0.79426 0.15625 1.0938 0.46875 0.31248 0.29948 0.46873 0.66406 0.46875 1.0938-0.00002 0.42969-0.16278 0.8138-0.48828 1.1523-2.0182 1.7578-4.3945 2.6367-7.1289 2.6367-3.0208 0-5.599-1.0677-7.7344-3.2031s-3.2031-4.7135-3.2031-7.7344c0-3.0208 1.0677-5.5989 3.2031-7.7344 2.1354-2.1354 4.7135-3.2031 7.7344-3.2031 2.7344 0.00002 5.1107 0.87892 7.1289 2.6367 0.36457 0.32554 0.54686 0.72918 0.54688 1.2109-0.00002 0.42971-0.15627 0.8008-0.46875 1.1133-0.2995 0.29949-0.66408 0.44923-1.0938 0.44921-0.37762 0.00002-0.70966-0.11717-0.9961-0.35156-1.4584-1.289-3.1641-1.9336-5.1172-1.9336-2.1615 0.00002-4.0039 0.76173-5.5274 2.2852-1.5234 1.5235-2.2852 3.3659-2.2852 5.5274-0.00001 2.1615 0.76171 4.0039 2.2852 5.5273 1.5234 1.5234 3.3659 2.2852 5.5274 2.2852 1.9531 0 3.6523-0.63802 5.0976-1.9141 0.27342-0.20833 0.59243-0.3125 0.95703-0.3125"/>
<path id="path3125" style="" d="m325.29 601.6c-0.28648-1.4974-1.0026-2.819-2.1484-3.9648-1.5234-1.5234-3.3659-2.2851-5.5273-2.2852-2.1615 0.00002-4.0039 0.76173-5.5274 2.2852-1.1458 1.1458-1.862 2.4675-2.1484 3.9648h15.352m-1.6602 7.1875c0.42967 0 0.79425 0.15625 1.0938 0.46875 0.31248 0.29948 0.46873 0.66406 0.46875 1.0938-0.00002 0.42969-0.14976 0.80078-0.44922 1.1133-2.0182 1.7578-4.3945 2.6367-7.1289 2.6367-3.0208 0-5.599-1.0677-7.7344-3.2031s-3.2031-4.7135-3.2031-7.7344c0-3.0208 1.0677-5.5989 3.2031-7.7344 2.1354-2.1354 4.7135-3.2031 7.7344-3.2031 3.0208 0.00002 5.5989 1.0677 7.7344 3.2031 2.1354 2.1354 3.2031 4.7136 3.2031 7.7344-0.00003 0.4297-0.15628 0.80079-0.46875 1.1133-0.29951 0.29949-0.66409 0.44923-1.0938 0.44922h-17.051c0.28645 1.4974 1.0026 2.819 2.1484 3.9648 1.5234 1.5234 3.3659 2.2852 5.5274 2.2852 1.9531 0 3.6328-0.61849 5.0391-1.8555 0.28644-0.22135 0.61196-0.33203 0.97656-0.33203"/>
<path id="path3127" style="" d="m335.54 603.16c-1.1849-0.4427-2.0117-0.90494-2.4805-1.3867-0.92449-0.91145-1.3867-2.0117-1.3867-3.3008 0-1.289 0.48177-2.4154 1.4453-3.3789 1.875-1.914 4.3229-2.8711 7.3438-2.8711 3.2682 0.00002 6.0677 1.3086 8.3984 3.9258 0.20831 0.24741 0.30597 0.5534 0.29297 0.91797-0.00002 0.4297-0.15627 0.8008-0.46875 1.1133-0.2995 0.29949-0.66409 0.44923-1.0938 0.44922-0.42971 0.00001-0.77476-0.13671-1.0352-0.41016-0.26043-0.27342-0.44924-0.46873-0.56641-0.58594-1.5234-1.5234-3.3659-2.2851-5.5273-2.2852-2.1615 0.00002-3.8867 0.6771-5.1758 2.0312-0.31251 0.37762-0.46876 0.82684-0.46875 1.3476 0.0391 0.612 0.35807 1.0287 0.95703 1.25l9.6094 3.1836c1.1849 0.44272 2.0117 0.90496 2.4805 1.3867 0.92446 0.91146 1.3867 2.0117 1.3867 3.3008-0.00002 1.2891-0.48179 2.4154-1.4453 3.3789-1.875 1.9141-4.3229 2.8711-7.3438 2.8711-3.2813 0-6.0807-1.3086-8.3984-3.9258-0.19531-0.27344-0.29297-0.57943-0.29297-0.91797 0-0.42968 0.14974-0.79427 0.44922-1.0938 0.3125-0.3125 0.68359-0.46875 1.1133-0.46875 0.42969 0 0.77474 0.13672 1.0352 0.41015 0.26041 0.27345 0.44921 0.46876 0.56641 0.58594 1.5234 1.5234 3.3659 2.2852 5.5273 2.2852s3.8867-0.67708 5.1758-2.0312c0.31248-0.3776 0.46873-0.82682 0.46875-1.3477-0.0391-0.61197-0.35809-1.0286-0.95703-1.25l-9.6094-3.1836"/>
</g>
</g>
<g id="g3164" transform="translate(-107.37 202.63)">
<path id="rect2985-2" d="m130.11 263.97h279.66c11.08 0 20 8.92 20 20v10.872c0 11.08-8.92 20-20 20h-279.66c-11.08 0-20-8.92-20-20v-10.872c0-11.08 8.92-20 20-20z" stroke="#000" stroke-linecap="round" stroke-width="2" fill="#dedede"/>
<g id="text3835-8">
<path id="path3097" style="" d="m197.2 284.72c0-0.42967 0.14974-0.79425 0.44922-1.0938 0.3125-0.31248 0.68359-0.46873 1.1133-0.46875 0.42968 0.00002 0.79427 0.15627 1.0938 0.46875 0.3125 0.2995 0.46875 0.66408 0.46875 1.0938v1.7188c2.1875-2.1875 4.7917-3.2812 7.8125-3.2812 1.5234 0.00002 2.9232 0.26043 4.1992 0.78125 0.23436 0.0912 0.4492 0.22788 0.64453 0.41015 0.29946 0.31252 0.4492 0.68362 0.44922 1.1133-0.00002 0.42971-0.15627 0.8008-0.46875 1.1133-0.2995 0.2995-0.66408 0.44924-1.0938 0.44922-0.24741 0.00002-0.47528-0.0521-0.68359-0.15625-0.9245-0.3906-1.9401-0.58592-3.0469-0.58593-2.1615 0.00001-4.0039 0.76173-5.5273 2.2852-1.5234 1.5234-2.2852 3.3659-2.2852 5.5274v9.375c0 0.42968-0.15625 0.80078-0.46875 1.1133-0.29948 0.29948-0.66407 0.44922-1.0938 0.44922-0.42969 0-0.80078-0.14974-1.1133-0.44922-0.29948-0.3125-0.44922-0.6836-0.44922-1.1133v-18.75"/>
<path id="path3099" style="" d="m236.27 303.47c-0.00002 0.42968-0.15627 0.80078-0.46875 1.1133-0.2995 0.29948-0.66408 0.44922-1.0938 0.44922-0.42971 0-0.8008-0.14974-1.1133-0.44922-0.2995-0.3125-0.44924-0.6836-0.44922-1.1133v-1.2695c-1.9531 1.888-4.2969 2.832-7.0312 2.832-2.7995 0-5.1953-0.98959-7.1875-2.9688-1.9792-1.9922-2.9688-4.388-2.9688-7.1875v-10.156c0-0.42967 0.14974-0.79425 0.44922-1.0938 0.3125-0.31248 0.68359-0.46873 1.1133-0.46875 0.42968 0.00002 0.79427 0.15627 1.0938 0.46875 0.3125 0.2995 0.46875 0.66408 0.46875 1.0938v10.156c0 1.9401 0.68359 3.6003 2.0508 4.9805 1.3802 1.3672 3.0404 2.0508 4.9805 2.0508s3.5937-0.68359 4.9609-2.0508c1.3802-1.3802 2.0703-3.0404 2.0703-4.9805v-10.156c-0.00002-0.42967 0.14972-0.79425 0.44922-1.0938 0.31248-0.31248 0.68357-0.46873 1.1133-0.46875 0.42967 0.00002 0.79425 0.15627 1.0938 0.46875 0.31248 0.2995 0.46873 0.66408 0.46875 1.0938v18.75"/>
<path id="path3101" style="" d="m239.39 284.72c0-0.42967 0.14974-0.79425 0.44922-1.0938 0.3125-0.31248 0.68359-0.46873 1.1133-0.46875 0.42968 0.00002 0.79427 0.15627 1.0938 0.46875 0.3125 0.2995 0.46875 0.66408 0.46875 1.0938v1.2695c1.9531-1.888 4.2969-2.832 7.0312-2.832 2.7995 0.00002 5.1888 0.99611 7.168 2.9883 1.9922 1.9792 2.9883 4.3685 2.9883 7.168v10.156c-0.00002 0.42968-0.15627 0.80078-0.46875 1.1133-0.2995 0.29948-0.66408 0.44922-1.0938 0.44922-0.42971 0-0.8008-0.14974-1.1133-0.44922-0.2995-0.3125-0.44924-0.6836-0.44922-1.1133v-10.156c-0.00002-1.9401-0.69012-3.5937-2.0703-4.9609-1.3672-1.3802-3.0208-2.0703-4.9609-2.0703-1.9401 0.00001-3.6003 0.69012-4.9805 2.0703-1.3672 1.3672-2.0508 3.0208-2.0508 4.9609v10.156c0 0.42968-0.15625 0.80078-0.46875 1.1133-0.29948 0.29948-0.66407 0.44922-1.0938 0.44922-0.42969 0-0.80078-0.14974-1.1133-0.44922-0.29948-0.3125-0.44922-0.6836-0.44922-1.1133v-18.75"/>
<path id="path3103" style="" d="m272.36 301.91c0.42968 0 0.79426 0.15625 1.0938 0.46875 0.31249 0.29948 0.46874 0.66406 0.46875 1.0938-0.00001 0.42968-0.15626 0.80078-0.46875 1.1133-0.29949 0.29948-0.66407 0.44922-1.0938 0.44922-5.2083 0-7.8125-2.6042-7.8125-7.8125v-10.938h-1.5625c-0.42969 0.00001-0.80078-0.14972-1.1133-0.44922-0.29948-0.31248-0.44922-0.68358-0.44922-1.1133 0-0.42967 0.14974-0.79425 0.44922-1.0938 0.3125-0.31248 0.68359-0.46873 1.1133-0.46875h1.5625v-7.8125c0-0.42966 0.14974-0.79424 0.44922-1.0938 0.31249-0.31247 0.68359-0.46872 1.1133-0.46875 0.42968 0.00003 0.79426 0.15628 1.0938 0.46875 0.31249 0.29951 0.46874 0.66409 0.46875 1.0938v7.8125h3.1445c0.42968 0.00002 0.79426 0.15627 1.0938 0.46875 0.31249 0.2995 0.46874 0.66408 0.46875 1.0938-0.00001 0.4297-0.15626 0.8008-0.46875 1.1133-0.29949 0.2995-0.66407 0.44923-1.0938 0.44922h-3.1445v10.938c-0.00001 3.125 1.5625 4.6875 4.6875 4.6875"/>
<path id="path3105" style="" d="m282.13 278.47c-0.00001 0.53388-0.19532 0.99612-0.58594 1.3867-0.37761 0.37763-0.83334 0.56644-1.3672 0.56641-0.53386 0.00003-0.9961-0.18878-1.3867-0.56641-0.37761-0.39059-0.56641-0.85283-0.5664-1.3867-0.00001-0.53383 0.18879-0.98956 0.5664-1.3672 0.39062-0.3906 0.85286-0.58591 1.3867-0.58594 0.53385 0.00003 0.98958 0.19534 1.3672 0.58594 0.39062 0.37763 0.58593 0.83336 0.58594 1.3672m-3.5156 6.25c0-0.42967 0.14974-0.79425 0.44922-1.0938 0.3125-0.31248 0.68359-0.46873 1.1133-0.46875 0.42968 0.00002 0.79427 0.15627 1.0938 0.46875 0.31249 0.2995 0.46874 0.66408 0.46875 1.0938v18.75c-0.00001 0.42968-0.15626 0.80078-0.46875 1.1133-0.29948 0.29948-0.66407 0.44922-1.0938 0.44922-0.42969 0-0.80078-0.14974-1.1133-0.44922-0.29948-0.3125-0.44922-0.6836-0.44922-1.1133v-18.75"/>
<path id="path3107" style="" d="m289.55 303.47c0 0.42968-0.15625 0.80078-0.46875 1.1133-0.29948 0.29948-0.66407 0.44922-1.0938 0.44922-0.42969 0-0.80078-0.14974-1.1133-0.44922-0.29948-0.3125-0.44922-0.6836-0.44922-1.1133v-18.75c0-0.42967 0.14974-0.79425 0.44922-1.0938 0.3125-0.31248 0.68359-0.46873 1.1133-0.46875 0.42968 0.00002 0.79427 0.15627 1.0938 0.46875 0.3125 0.2995 0.46875 0.66408 0.46875 1.0938v0.41015c1.5495-1.3151 3.3724-1.9726 5.4688-1.9726 2.3698 0.00002 4.3945 0.83986 6.0742 2.5195 0.35155 0.35158 0.67056 0.72267 0.95703 1.1133 0.28644-0.39061 0.60545-0.7617 0.95703-1.1133 1.6797-1.6797 3.7044-2.5195 6.0742-2.5195 2.3698 0.00002 4.3945 0.83986 6.0742 2.5195 1.6796 1.6797 2.5195 3.7044 2.5195 6.0742v11.719c-0.00003 0.42968-0.15628 0.80078-0.46875 1.1133-0.29951 0.29948-0.66409 0.44922-1.0938 0.44922-0.42972 0-0.80081-0.14974-1.1133-0.44922-0.29951-0.3125-0.44925-0.6836-0.44922-1.1133v-11.719c-0.00003-1.5104-0.53388-2.7995-1.6016-3.8672s-2.3568-1.6016-3.8672-1.6016c-1.5104 0.00001-2.7995 0.53387-3.8672 1.6016s-1.6016 2.3568-1.6016 3.8672v11.719c-0.00002 0.42968-0.15627 0.80078-0.46875 1.1133-0.2995 0.29948-0.66408 0.44922-1.0938 0.44922-0.4297 0-0.8008-0.14974-1.1133-0.44922-0.2995-0.3125-0.44924-0.6836-0.44922-1.1133v-11.719c-0.00002-1.5104-0.53387-2.7995-1.6016-3.8672s-2.3568-1.6016-3.8672-1.6016c-1.5104 0.00001-2.7995 0.53387-3.8672 1.6016s-1.6016 2.3568-1.6016 3.8672v11.719"/>
<path id="path3109" style="" d="m339.41 292.53c-0.28648-1.4974-1.0026-2.819-2.1484-3.9648-1.5234-1.5234-3.3659-2.2851-5.5273-2.2852-2.1615 0.00001-4.0039 0.76173-5.5273 2.2852-1.1458 1.1458-1.862 2.4675-2.1484 3.9648h15.352m-1.6602 7.1875c0.42966 0 0.79425 0.15625 1.0938 0.46875 0.31248 0.29948 0.46873 0.66406 0.46875 1.0938-0.00002 0.42969-0.14976 0.80078-0.44922 1.1133-2.0182 1.7578-4.3946 2.6367-7.1289 2.6367-3.0208 0-5.599-1.0677-7.7344-3.2031s-3.2031-4.7135-3.2031-7.7344c0-3.0208 1.0677-5.599 3.2031-7.7344s4.7135-3.2031 7.7344-3.2031c3.0208 0.00002 5.5989 1.0677 7.7344 3.2031 2.1354 2.1354 3.2031 4.7136 3.2031 7.7344-0.00002 0.42969-0.15627 0.80079-0.46875 1.1133-0.2995 0.29949-0.66408 0.44923-1.0938 0.44922h-17.051c0.28645 1.4974 1.0026 2.819 2.1484 3.9648 1.5234 1.5234 3.3659 2.2852 5.5273 2.2852 1.9531 0 3.6328-0.61849 5.0391-1.8555 0.28644-0.22135 0.61196-0.33203 0.97657-0.33203"/>
</g>
</g>
<text id="text3989-4" style="word-spacing:0px;letter-spacing:0px" xml:space="preserve" transform="rotate(90)" line-height="125%" font-size="40px" y="-351.75586" x="415.31134" font-family="Comfortaa" fill="#000000"><tspan id="tspan3991-6" font-weight="900" font-size="48px" line-height="125%" y="-351.75586" x="415.31134" font-family="Men Nefer Black" fill="#000000"/></text>
<g id="g4591" transform="translate(-105.82 -3.6626)">
<path id="rect2985-0" d="m128.56 626.28h279.66c11.08 0 20 8.92 20 20v10.872c0 11.08-8.92 20-20 20h-279.66c-11.08 0-20-8.92-20-20v-10.872c0-11.08 8.92-20 20-20z" stroke="#000" stroke-linecap="round" stroke-width="2" fill="#dedede"/>
<g id="text3835-5-2">
<path id="path3079" style="" d="m185.89 656.4c-1.1849-0.4427-2.0117-0.90494-2.4805-1.3867-0.92448-0.91144-1.3867-2.0117-1.3867-3.3008 0-1.289 0.48177-2.4154 1.4453-3.3789 1.875-1.914 4.3229-2.8711 7.3438-2.8711 3.2682 0.00002 6.0677 1.3086 8.3984 3.9258 0.20831 0.24742 0.30597 0.5534 0.29297 0.91797-0.00002 0.4297-0.15627 0.8008-0.46875 1.1133-0.2995 0.2995-0.66408 0.44924-1.0938 0.44922-0.42971 0.00002-0.77476-0.1367-1.0352-0.41016-0.26043-0.27342-0.44923-0.46873-0.5664-0.58593-1.5235-1.5234-3.3659-2.2851-5.5274-2.2852-2.1615 0.00002-3.8867 0.6771-5.1758 2.0312-0.3125 0.37762-0.46875 0.82684-0.46875 1.3477 0.0391 0.61199 0.35807 1.0287 0.95703 1.25l9.6094 3.1836c1.1849 0.44272 2.0117 0.90496 2.4805 1.3867 0.92446 0.91147 1.3867 2.0117 1.3867 3.3008-0.00002 1.2891-0.48179 2.4154-1.4453 3.3789-1.875 1.9141-4.3229 2.8711-7.3438 2.8711-3.2813 0-6.0807-1.3086-8.3984-3.9258-0.19531-0.27343-0.29297-0.57942-0.29296-0.91797-0.00001-0.42968 0.14973-0.79426 0.44921-1.0938 0.3125-0.31249 0.6836-0.46874 1.1133-0.46875 0.42968 0.00001 0.77473 0.13673 1.0352 0.41016 0.26041 0.27344 0.44922 0.46875 0.56641 0.58593 1.5234 1.5234 3.3659 2.2852 5.5273 2.2852s3.8867-0.67708 5.1758-2.0312c0.31249-0.3776 0.46874-0.82682 0.46875-1.3477-0.0391-0.61197-0.35809-1.0286-0.95703-1.25l-9.6094-3.1836"/>
<path id="path3081" style="" d="m224.6 656.4c-0.00002 3.0208-1.0677 5.599-3.2031 7.7344s-4.7136 3.2031-7.7344 3.2031-5.599-1.0677-7.7344-3.2031-3.2031-4.7135-3.2031-7.7344c0-3.0208 1.0677-5.5989 3.2031-7.7344 2.1354-2.1354 4.7135-3.2031 7.7344-3.2031 3.0208 0.00002 5.5989 1.0677 7.7344 3.2031 2.1354 2.1354 3.2031 4.7136 3.2031 7.7344m-10.938-7.8125c-2.1615 0.00002-4.0039 0.76174-5.5273 2.2852-1.5234 1.5234-2.2852 3.3659-2.2852 5.5273 0 2.1615 0.76172 4.0039 2.2852 5.5273 1.5234 1.5234 3.3659 2.2852 5.5273 2.2852s4.0039-0.76171 5.5274-2.2852c1.5234-1.5234 2.2851-3.3659 2.2852-5.5273-0.00002-2.1614-0.76173-4.0039-2.2852-5.5273s-3.3659-2.2851-5.5274-2.2852"/>
<path id="path3083" style="" d="m239.13 636.09c0.42968 0.00003 0.79426 0.15628 1.0938 0.46875 0.31249 0.29951 0.46874 0.66409 0.46875 1.0938-0.00001 0.42972-0.15626 0.80081-0.46875 1.1133-0.29949 0.29951-0.66407 0.44925-1.0938 0.44922-4.1667 0.00003-6.25 2.0834-6.25 6.25v1.1719h4.707c0.42967 0.00002 0.79425 0.15627 1.0938 0.46875 0.31248 0.29949 0.46873 0.66408 0.46875 1.0938-0.00002 0.4297-0.15627 0.8008-0.46875 1.1133-0.2995 0.29949-0.66408 0.44923-1.0938 0.44922h-4.707v16.016c0 0.42969-0.15625 0.80078-0.46875 1.1133-0.29948 0.29948-0.66407 0.44922-1.0938 0.44922-0.42969 0-0.80078-0.14974-1.1133-0.44922-0.29948-0.3125-0.44922-0.68359-0.44922-1.1133v-16.016h-1.5625c-0.42969 0.00001-0.80078-0.14973-1.1133-0.44922-0.29948-0.31248-0.44922-0.68358-0.44922-1.1133 0-0.42967 0.14974-0.79426 0.44922-1.0938 0.3125-0.31248 0.68359-0.46873 1.1133-0.46875h1.5625v-1.1719c0-6.25 3.125-9.375 9.375-9.375"/>
<path id="path3085" style="" d="m253.2 664.21c0.42968 0 0.79426 0.15625 1.0938 0.46875 0.31249 0.29948 0.46874 0.66407 0.46875 1.0938-0.00001 0.42969-0.15626 0.80078-0.46875 1.1133-0.29949 0.29948-0.66407 0.44922-1.0938 0.44922-5.2083 0-7.8125-2.6042-7.8125-7.8125v-10.938h-1.5625c-0.42969 0.00002-0.80078-0.14972-1.1133-0.44922-0.29948-0.31248-0.44922-0.68357-0.44922-1.1133 0-0.42967 0.14974-0.79425 0.44922-1.0938 0.3125-0.31248 0.68359-0.46873 1.1133-0.46875h1.5625v-7.8125c0-0.42966 0.14974-0.79424 0.44922-1.0938 0.3125-0.31247 0.68359-0.46872 1.1133-0.46875 0.42968 0.00003 0.79427 0.15628 1.0938 0.46875 0.3125 0.29951 0.46875 0.66409 0.46875 1.0938v7.8125h3.1445c0.42967 0.00002 0.79425 0.15627 1.0938 0.46875 0.31248 0.2995 0.46873 0.66408 0.46875 1.0938-0.00002 0.42971-0.15627 0.8008-0.46875 1.1133-0.2995 0.2995-0.66408 0.44924-1.0938 0.44922h-3.1445v10.938c0 3.125 1.5625 4.6875 4.6875 4.6875"/>
<path id="path3087" style="" d="m270.85 645.91c0.29947-0.29946 0.66405-0.4492 1.0938-0.44922 0.42968 0.00002 0.80077 0.14976 1.1133 0.44922 0.19529 0.20835 0.33201 0.44924 0.41015 0.72266l4.7266 14.199 4.8242-14.473c0.0781-0.15623 0.18878-0.30597 0.33203-0.44922 0.29946-0.29946 0.66404-0.4492 1.0938-0.44922 0.42966 0.00002 0.79425 0.15627 1.0938 0.46875 0.31247 0.2995 0.46872 0.66408 0.46875 1.0938-0.00003 0.20835-0.0391 0.41018-0.11718 0.60547l-6.2305 18.711c-0.0781 0.19531-0.19534 0.38411-0.35156 0.5664-0.31253 0.28646-0.68362 0.42969-1.1133 0.42969-0.4297 0-0.79429-0.14323-1.0938-0.42969-0.16929-0.18229-0.29299-0.37109-0.37109-0.5664l-4.7852-14.375-4.7852 14.375c-0.0781 0.19531-0.19533 0.38411-0.35156 0.5664-0.31251 0.28646-0.68361 0.42969-1.1133 0.42969s-0.79428-0.14323-1.0938-0.42969c-0.16927-0.18229-0.29297-0.37109-0.37109-0.5664l-6.2305-18.711c-0.0781-0.19529-0.11719-0.39712-0.11719-0.60547 0-0.42967 0.14974-0.79425 0.44922-1.0938 0.3125-0.31248 0.68359-0.46873 1.1133-0.46875 0.42969 0.00002 0.80078 0.14976 1.1133 0.44922 0.1302 0.14325 0.23437 0.29299 0.3125 0.44922l4.8242 14.473 4.7266-14.199c0.0911-0.27342 0.23436-0.51431 0.42968-0.72266"/>
<path id="path3089" style="" d="m300.07 648.59c-2.1615 0.00002-4.0039 0.76174-5.5273 2.2852-1.5234 1.5234-2.2852 3.3659-2.2852 5.5273 0 2.1615 0.76172 4.0039 2.2852 5.5273 1.5234 1.5234 3.3659 2.2852 5.5273 2.2852s4.0039-0.76171 5.5274-2.2852c1.5234-1.5234 2.2851-3.3659 2.2852-5.5273-0.00002-2.1614-0.76173-4.0039-2.2852-5.5273s-3.3659-2.2851-5.5274-2.2852m7.8125 15.469c-2.1875 2.1875-4.7917 3.2812-7.8125 3.2812s-5.599-1.0677-7.7344-3.2031-3.2031-4.7135-3.2031-7.7344c0-3.0208 1.0677-5.5989 3.2031-7.7344 2.1354-2.1354 4.7135-3.2031 7.7344-3.2031 3.0208 0.00002 5.5989 1.0677 7.7344 3.2031 2.1354 2.1354 3.2031 4.7136 3.2031 7.7344v9.375c-0.00002 0.42969-0.15627 0.80078-0.46875 1.1133-0.2995 0.29948-0.66408 0.44922-1.0938 0.44922-0.4297 0-0.8008-0.14974-1.1133-0.44922-0.2995-0.3125-0.44924-0.68359-0.44922-1.1133v-1.7188"/>
<path id="path3091" style="" d="m314.13 647.03c0-0.42967 0.14974-0.79425 0.44922-1.0938 0.3125-0.31248 0.68359-0.46873 1.1133-0.46875 0.42969 0.00002 0.79427 0.15627 1.0938 0.46875 0.3125 0.2995 0.46875 0.66408 0.46875 1.0938v1.7188c2.1875-2.1875 4.7917-3.2812 7.8125-3.2812 1.5234 0.00002 2.9232 0.26044 4.1992 0.78125 0.23436 0.0912 0.4492 0.22789 0.64453 0.41016 0.29947 0.31252 0.44921 0.68361 0.44922 1.1133-0.00001 0.4297-0.15626 0.8008-0.46875 1.1133-0.29949 0.2995-0.66408 0.44924-1.0938 0.44922-0.24741 0.00002-0.47527-0.0521-0.68359-0.15625-0.92449-0.39061-1.9401-0.58592-3.0469-0.58594-2.1615 0.00002-4.0039 0.76174-5.5273 2.2852-1.5234 1.5234-2.2852 3.3659-2.2852 5.5273v9.375c0 0.42969-0.15625 0.80078-0.46875 1.1133-0.29948 0.29948-0.66406 0.44922-1.0938 0.44922-0.42969 0-0.80078-0.14974-1.1133-0.44922-0.29948-0.3125-0.44922-0.68359-0.44922-1.1133v-18.75"/>
<path id="path3093" style="" d="m351.5 654.84c-0.28648-1.4974-1.0026-2.819-2.1484-3.9648-1.5235-1.5234-3.3659-2.2851-5.5274-2.2852-2.1615 0.00002-4.0039 0.76174-5.5273 2.2852-1.1458 1.1458-1.862 2.4675-2.1484 3.9648h15.352m-1.6602 7.1875c0.42967 0.00001 0.79425 0.15626 1.0938 0.46875 0.31248 0.29948 0.46873 0.66407 0.46875 1.0938-0.00002 0.42969-0.14976 0.80078-0.44922 1.1133-2.0182 1.7578-4.3946 2.6367-7.1289 2.6367-3.0208 0-5.599-1.0677-7.7344-3.2031s-3.2031-4.7135-3.2031-7.7344c0-3.0208 1.0677-5.5989 3.2031-7.7344 2.1354-2.1354 4.7135-3.2031 7.7344-3.2031 3.0208 0.00002 5.5989 1.0677 7.7344 3.2031 2.1354 2.1354 3.2031 4.7136 3.2031 7.7344-0.00002 0.4297-0.15627 0.80079-0.46875 1.1133-0.2995 0.29949-0.66408 0.44923-1.0938 0.44922h-17.051c0.28646 1.4974 1.0026 2.819 2.1484 3.9648 1.5234 1.5234 3.3659 2.2852 5.5273 2.2852 1.9531 0 3.6328-0.61849 5.0391-1.8555 0.28644-0.22135 0.61196-0.33202 0.97656-0.33203"/>
</g>
</g>
<g id="g4599" transform="translate(-105.82 98.57)">
<path id="rect2985-9-4" d="m128.56 4.5619h279.66c11.08 0 20 8.92 20 20v10.872c0 11.08-8.92 20-20 20h-279.66c-11.08 0-20-8.92-20-20v-10.872c0-11.08 8.92-20 20-20z" stroke="#000" stroke-linecap="round" stroke-width="2" fill="#dedede"/>
<g id="text3835-5-7-0">
<path id="path3065" style="" d="m205.89 32.998c-0.00001 2.1615 0.76171 4.0039 2.2852 5.5273 1.5234 1.5234 3.3659 2.2852 5.5274 2.2852 2.1614 0.000003 4.0039-0.76172 5.5273-2.2852 1.5234-1.5234 2.2851-3.3659 2.2852-5.5273-0.00002-2.1614-0.76174-4.0039-2.2852-5.5273-1.5234-1.5234-3.3659-2.2851-5.5273-2.2852-2.1615 0.000019-4.0039 0.76174-5.5274 2.2852-1.5234 1.5235-2.2852 3.3659-2.2852 5.5273m0 18.75c-0.00001 0.42968-0.15626 0.79426-0.46875 1.0938-0.29948 0.31249-0.66407 0.46874-1.0938 0.46875-0.42969-0.000009-0.80078-0.15626-1.1133-0.46875-0.29948-0.29949-0.44922-0.66407-0.44922-1.0938v-18.75c0-3.0208 1.0677-5.5989 3.2031-7.7344 2.1354-2.1354 4.7135-3.2031 7.7344-3.2031 3.0208 0.000022 5.5989 1.0677 7.7344 3.2031 2.1354 2.1354 3.2031 4.7136 3.2031 7.7344-0.00002 3.0208-1.0677 5.599-3.2031 7.7344s-4.7136 3.2031-7.7344 3.2031-5.599-1.0677-7.7344-3.2031c-0.026-0.02604-0.0521-0.05208-0.0781-0.07813v11.094"/>
<path id="path3067" style="" d="m246.38 31.436c-0.28648-1.4974-1.0026-2.819-2.1484-3.9648-1.5234-1.5234-3.3659-2.2851-5.5273-2.2852-2.1615 0.000019-4.0039 0.76174-5.5274 2.2852-1.1458 1.1458-1.862 2.4675-2.1484 3.9648h15.352m-1.6602 7.1875c0.42967 0.000005 0.79426 0.15626 1.0938 0.46875 0.31248 0.29948 0.46873 0.66407 0.46875 1.0938-0.00002 0.42969-0.14976 0.80078-0.44922 1.1133-2.0182 1.7578-4.3945 2.6367-7.1289 2.6367-3.0208 0-5.599-1.0677-7.7344-3.2031s-3.2031-4.7135-3.2031-7.7344c0-3.0208 1.0677-5.5989 3.2031-7.7344 2.1354-2.1354 4.7135-3.2031 7.7344-3.2031 3.0208 0.000022 5.5989 1.0677 7.7344 3.2031 2.1354 2.1354 3.2031 4.7136 3.2031 7.7344-0.00002 0.4297-0.15627 0.80079-0.46875 1.1133-0.2995 0.29949-0.66409 0.44923-1.0938 0.44922h-17.051c0.28645 1.4974 1.0026 2.819 2.1484 3.9648 1.5234 1.5234 3.3659 2.2852 5.5274 2.2852 1.9531 0.000003 3.6328-0.61849 5.0391-1.8555 0.28644-0.22135 0.61196-0.33203 0.97656-0.33203"/>
<path id="path3069" style="" d="m274.64 32.998c-0.00002 3.0208-1.0677 5.599-3.2031 7.7344s-4.7136 3.2031-7.7344 3.2031-5.599-1.0677-7.7344-3.2031-3.2031-4.7135-3.2031-7.7344c0-3.0208 1.0677-5.5989 3.2031-7.7344 2.1354-2.1354 4.7135-3.2031 7.7344-3.2031 3.0208 0.000022 5.5989 1.0677 7.7344 3.2031 2.1354 2.1354 3.2031 4.7136 3.2031 7.7344m-10.938-7.8125c-2.1615 0.000019-4.0039 0.76174-5.5274 2.2852-1.5234 1.5235-2.2852 3.3659-2.2852 5.5273-0.00001 2.1615 0.76171 4.0039 2.2852 5.5273 1.5234 1.5234 3.3659 2.2852 5.5274 2.2852 2.1614 0.000003 4.0039-0.76172 5.5273-2.2852 1.5234-1.5234 2.2851-3.3659 2.2852-5.5273-0.00002-2.1614-0.76174-4.0039-2.2852-5.5273-1.5234-1.5234-3.3659-2.2851-5.5273-2.2852"/>
<path id="path3071" style="" d="m280.89 32.998c-0.00001 2.1615 0.76171 4.0039 2.2852 5.5273 1.5234 1.5234 3.3659 2.2852 5.5274 2.2852 2.1614 0.000003 4.0039-0.76172 5.5273-2.2852 1.5234-1.5234 2.2851-3.3659 2.2852-5.5273-0.00002-2.1614-0.76174-4.0039-2.2852-5.5273-1.5234-1.5234-3.3659-2.2851-5.5273-2.2852-2.1615 0.000019-4.0039 0.76174-5.5274 2.2852-1.5234 1.5235-2.2852 3.3659-2.2852 5.5273m0 18.75c-0.00001 0.42968-0.15626 0.79426-0.46875 1.0938-0.29948 0.31249-0.66407 0.46874-1.0938 0.46875-0.42969-0.000009-0.80078-0.15626-1.1133-0.46875-0.29948-0.29949-0.44922-0.66407-0.44922-1.0938v-18.75c0-3.0208 1.0677-5.5989 3.2031-7.7344 2.1354-2.1354 4.7135-3.2031 7.7344-3.2031 3.0208 0.000022 5.5989 1.0677 7.7344 3.2031 2.1354 2.1354 3.2031 4.7136 3.2031 7.7344-0.00002 3.0208-1.0677 5.599-3.2031 7.7344s-4.7136 3.2031-7.7344 3.2031-5.599-1.0677-7.7344-3.2031c-0.026-0.02604-0.0521-0.05208-0.0781-0.07813v11.094"/>
<path id="path3073" style="" d="m302.77 14.248c0-0.42966 0.14974-0.79424 0.44922-1.0938 0.3125-0.31247 0.68359-0.46872 1.1133-0.46875 0.42968 0.000031 0.79427 0.15628 1.0938 0.46875 0.31249 0.29951 0.46874 0.66409 0.46875 1.0938v26.562h1.5625c0.42968 0.000003 0.79426 0.15625 1.0938 0.46875 0.31249 0.29948 0.46874 0.66406 0.46875 1.0938-0.00001 0.42969-0.15626 0.80078-0.46875 1.1133-0.29949 0.29948-0.66407 0.44922-1.0938 0.44922h-3.125c-0.42969 0-0.80078-0.14974-1.1133-0.44922-0.29948-0.3125-0.44922-0.68359-0.44922-1.1133v-28.125"/>
<path id="path3075" style="" d="m330.76 31.436c-0.28648-1.4974-1.0026-2.819-2.1484-3.9648-1.5234-1.5234-3.3659-2.2851-5.5273-2.2852-2.1615 0.000019-4.0039 0.76174-5.5274 2.2852-1.1458 1.1458-1.862 2.4675-2.1484 3.9648h15.352m-1.6602 7.1875c0.42967 0.000005 0.79426 0.15626 1.0938 0.46875 0.31248 0.29948 0.46873 0.66407 0.46875 1.0938-0.00002 0.42969-0.14976 0.80078-0.44922 1.1133-2.0182 1.7578-4.3945 2.6367-7.1289 2.6367-3.0208 0-5.599-1.0677-7.7344-3.2031s-3.2031-4.7135-3.2031-7.7344c0-3.0208 1.0677-5.5989 3.2031-7.7344 2.1354-2.1354 4.7135-3.2031 7.7344-3.2031 3.0208 0.000022 5.5989 1.0677 7.7344 3.2031 2.1354 2.1354 3.2031 4.7136 3.2031 7.7344-0.00002 0.4297-0.15627 0.80079-0.46875 1.1133-0.2995 0.29949-0.66409 0.44923-1.0938 0.44922h-17.051c0.28645 1.4974 1.0026 2.819 2.1484 3.9648 1.5234 1.5234 3.3659 2.2852 5.5274 2.2852 1.9531 0.000003 3.6328-0.61849 5.0391-1.8555 0.28644-0.22135 0.61196-0.33203 0.97656-0.33203"/>
</g>
</g>
</g>
</svg>
